<svg width="76" height="76" viewBox="0 0 76 76" fill="none" xmlns="http://www.w3.org/2000/svg">
<path d="M40.5017 66.5L9.5 35.4983V41.8316C9.5 43.51 10.165 45.125 11.3683 46.2966L36.0367 70.965C38.5067 73.435 42.5283 73.435 44.9983 70.965L64.6633 51.3C67.1333 48.83 67.1333 44.8083 64.6633 42.3383L40.5017 66.5Z" fill="#B86D5A"/>
<path d="M36.0367 55.1317C38.5067 57.6017 42.5283 57.6017 44.9983 55.1317L64.6633 35.4667C67.1333 32.9967 67.1333 28.975 64.6633 26.505L39.995 1.83667C38.7921 0.662789 37.1791 0.00394353 35.4983 0L15.8333 0C12.35 0 9.5 2.85 9.5 6.33333V25.9983C9.5 27.6767 10.165 29.2917 11.3683 30.4633L36.0367 55.1317ZM22.9583 9.5C24.0081 9.5 25.015 9.91704 25.7573 10.6594C26.4996 11.4017 26.9167 12.4085 26.9167 13.4583C26.9167 14.5081 26.4996 15.515 25.7573 16.2573C25.015 16.9996 24.0081 17.4167 22.9583 17.4167C21.9085 17.4167 20.9017 16.9996 20.1594 16.2573C19.417 15.515 19 14.5081 19 13.4583C19 12.4085 19.417 11.4017 20.1594 10.6594C20.9017 9.91704 21.9085 9.5 22.9583 9.5Z" fill="#B86D5A"/>
</svg>
