<svg width="70" height="63" viewBox="0 0 70 63" fill="none" xmlns="http://www.w3.org/2000/svg">
<path d="M35 0C35 0 13.349 18.69 1.2495 28.812C0.86432 29.1473 0.554009 29.5599 0.338739 30.0231C0.123468 30.4862 0.00805457 30.9894 0 31.5C0 32.4283 0.368749 33.3185 1.02513 33.9749C1.6815 34.6312 2.57174 35 3.5 35H10.5V59.5C10.5 60.4283 10.8687 61.3185 11.5251 61.9749C12.1815 62.6313 13.0717 63 14 63H24.5C25.4283 63 26.3185 62.6313 26.9749 61.9749C27.6313 61.3185 28 60.4283 28 59.5V45.5H42V59.5C42 60.4283 42.3688 61.3185 43.0251 61.9749C43.6815 62.6313 44.5717 63 45.5 63H56C56.9283 63 57.8185 62.6313 58.4749 61.9749C59.1313 61.3185 59.5 60.4283 59.5 59.5V35H66.5C67.4283 35 68.3185 34.6312 68.9749 33.9749C69.6313 33.3185 70 32.4283 70 31.5C69.9951 30.9796 69.8719 30.4672 69.6396 30.0015C69.4074 29.5358 69.0722 29.129 68.6595 28.812C56.644 18.69 35 0 35 0Z" fill="#BA6054"/>
</svg>
