<svg width="65" height="52" viewBox="0 0 65 52" fill="none" xmlns="http://www.w3.org/2000/svg">
<path d="M6.5 0C4.77609 0 3.12279 0.676039 1.90381 1.8794C0.684819 3.08276 0 4.71486 0 6.41667V19.25C1.72391 19.25 3.37721 19.926 4.59619 21.1294C5.81518 22.3328 6.5 23.9649 6.5 25.6667C6.5 27.3685 5.81518 29.0006 4.59619 30.2039C3.37721 31.4073 1.72391 32.0833 0 32.0833V44.9167C0 46.6185 0.684819 48.2506 1.90381 49.4539C3.12279 50.6573 4.77609 51.3333 6.5 51.3333H58.5C60.2239 51.3333 61.8772 50.6573 63.0962 49.4539C64.3152 48.2506 65 46.6185 65 44.9167V32.0833C63.2761 32.0833 61.6228 31.4073 60.4038 30.2039C59.1848 29.0006 58.5 27.3685 58.5 25.6667C58.5 23.9649 59.1848 22.3328 60.4038 21.1294C61.6228 19.926 63.2761 19.25 65 19.25V6.41667C65 4.71486 64.3152 3.08276 63.0962 1.8794C61.8772 0.676039 60.2239 0 58.5 0H6.5ZM43.875 9.625L48.75 14.4375L21.125 41.7083L16.25 36.8958L43.875 9.625ZM22.1325 9.75333C25.3175 9.75333 27.885 12.2879 27.885 15.4321C27.885 16.9382 27.2789 18.3826 26.2001 19.4476C25.1213 20.5125 23.6582 21.1108 22.1325 21.1108C18.9475 21.1108 16.38 18.5763 16.38 15.4321C16.38 13.926 16.9861 12.4816 18.0649 11.4166C19.1437 10.3516 20.6068 9.75333 22.1325 9.75333ZM42.8675 30.2225C46.0525 30.2225 48.62 32.7571 48.62 35.9012C48.62 37.4073 48.0139 38.8518 46.9351 39.9167C45.8563 40.9817 44.3932 41.58 42.8675 41.58C39.6825 41.58 37.115 39.0454 37.115 35.9012C37.115 34.3951 37.7211 32.9507 38.7999 31.8858C39.8787 30.8208 41.3418 30.2225 42.8675 30.2225Z" fill="#B86D5A"/>
</svg>
