<svg width="13" height="14" viewBox="0 0 13 14" fill="none" xmlns="http://www.w3.org/2000/svg">
<path d="M10.3138 2.19333C9.74717 1.5863 9.43486 0.806866 9.43495 0H6.87309V9.64444C6.85374 10.1665 6.61899 10.6611 6.21837 11.0238C5.81774 11.3866 5.28257 11.5892 4.72576 11.5889C3.54847 11.5889 2.57015 10.6867 2.57015 9.56667C2.57015 8.22889 3.94643 7.22556 5.36416 7.63778V5.18C2.50383 4.82222 0 6.90667 0 9.56667C0 12.1567 2.28827 14 4.71747 14C7.32079 14 9.43495 12.0167 9.43495 9.56667V4.67444C10.4738 5.37433 11.721 5.74984 13 5.74778V3.34444C13 3.34444 11.4413 3.41444 10.3138 2.19333Z" fill="#9DA3AE"/>
</svg>
