<svg width="55" height="56" viewBox="0 0 55 56" fill="none" xmlns="http://www.w3.org/2000/svg">
<path d="M46.692 43.6685C47.8789 41.7734 48.5532 39.4939 48.5532 37.077C48.5532 30.2109 43.1584 24.718 36.4149 24.718C29.6714 24.718 24.2766 30.2109 24.2766 37.077C24.2766 43.9431 29.6714 49.436 36.4149 49.436C38.7617 49.436 40.9735 48.7494 42.8347 47.5684L51.2506 56L55 52.1824L46.692 43.6685ZM36.4149 43.9431C34.6264 43.9431 32.9112 43.2197 31.6465 41.9321C30.3819 40.6444 29.6714 38.898 29.6714 37.077C29.6714 35.256 30.3819 33.5096 31.6465 32.2219C32.9112 30.9343 34.6264 30.2109 36.4149 30.2109C38.2034 30.2109 39.9186 30.9343 41.1833 32.2219C42.4479 33.5096 43.1584 35.256 43.1584 37.077C43.1584 38.898 42.4479 40.6444 41.1833 41.9321C39.9186 43.2197 38.2034 43.9431 36.4149 43.9431ZM8.0922 46.6896V24.718H0L26.974 0L53.948 24.718H49.0387C45.8558 21.3399 41.3781 19.2251 36.4149 19.2251C26.7582 19.2251 18.8818 27.2447 18.8818 37.077C18.8818 40.6199 19.9068 43.9431 21.6601 46.6896H8.0922Z" fill="#BA6054"/>
</svg>
