<svg width="45" height="50" viewBox="0 0 45 50" fill="none" xmlns="http://www.w3.org/2000/svg">
<path d="M0 24.9378C0 38.8673 10.0255 45.6295 16.3166 48.4979C18.0218 49.2762 18.8756 49.6666 21.2856 49.6666V15.0774L0 22.4894V24.9378Z" fill="#BA6054"/>
<path opacity="0.5" d="M27.3486 48.3641C33.9018 45.4861 44.3451 38.7121 44.3451 24.7455V22.291L21.7836 15.0702V49.6665C24.2964 49.6665 25.5723 49.1443 27.3486 48.3641ZM14.3826 1.99381L12.9709 2.47678C5.56285 5.02786 1.86003 6.3034 0.931247 7.63343C9.27429e-08 8.96594 0 12.9288 0 20.8471V22.291L21.7836 15.0702L22.1725 0C20.1746 0 18.2431 0.663777 14.3826 1.99381Z" fill="#BA6054"/>
<path d="M30.8553 2.56216L29.3872 2.06254C25.3723 0.686659 23.3661 0 21.2856 0V15.373L44.3451 23.0594V21.5657C44.3451 13.3719 44.3451 9.27502 43.3766 7.89658C42.4107 6.5207 38.5597 5.19862 30.8553 2.56216Z" fill="#BA6054"/>
</svg>
