<svg width="43" height="45" viewBox="0 0 43 45" fill="none" xmlns="http://www.w3.org/2000/svg">
<path d="M16.7059 1.99169e-05C10.7457 0.010281 3.89857 3.70939 0 8.25997C0 8.25997 9.08852 7.44799 10.5499 11.6942C12.9102 18.5523 0.573392 17.7765 0.395433 28.5013C0.261411 36.5815 8.9867 44.9343 17.3261 44.9396C17.7312 45.0756 34.8194 44.9396 34.8194 44.9396C36.7214 44.9124 36.8005 42.7566 30.1265 41.393C44.1241 27.0805 21.787 25.9944 21.9106 36.9615C20.1843 35.1413 21.9661 27.2991 31.3029 27.6847C34.467 29.9576 36.2847 30.3345 39.8173 29.5515C40.4886 29.4027 40.9758 27.067 39.2922 26.9316L36.2368 26.6857C33.5346 24.2001 32.8893 23.1547 35.5955 21.1232C42.2168 22.8712 43.003 22.2922 43 19.8328C42.9971 17.4268 42.084 11.0593 36.6708 10.7513C35.9304 9.75315 37.612 6.68151 36.2907 6.59294C34.4627 6.47039 31.4373 9.34377 31.8426 10.8316C30.0798 11.5823 28.1192 13.8476 26.1558 16.6024C19.4916 19.0641 14.6677 30.4102 14.6043 33.12C14.5486 15.4598 29.3373 15.6381 28.085 9.42567C26.7323 2.71494 21.6442 -0.00849869 16.7059 1.99169e-05ZM38.4986 14.1721C39.1874 14.1721 39.7458 14.7343 39.7458 15.4279C39.7458 16.1214 39.1874 16.6836 38.4986 16.6836C37.8098 16.6836 37.2514 16.1214 37.2514 15.4279C37.2514 14.7343 37.8098 14.1721 38.4986 14.1721Z" fill="#BA6054"/>
</svg>
