<svg width="51" height="48" viewBox="0 0 51 48" fill="none" xmlns="http://www.w3.org/2000/svg">
<path d="M19.6858 0C8.95113 0 0 7.50245 0 17.0056C0 21.8671 2.61821 26.1045 6.33686 29.1975C6.09482 30.8405 5.43756 32.3915 4.42931 33.699C4.01766 34.2356 3.58691 34.7568 3.13792 35.2615C2.90568 35.5101 2.69921 35.7823 2.52175 36.0738C2.40954 36.2599 2.23434 36.4679 2.15363 36.8881C2.07291 37.3082 2.18316 37.9944 2.52175 38.5126L2.76782 38.9507L3.25997 39.2008C4.98248 40.0751 6.84278 39.9211 8.55151 39.4509C10.2583 38.9787 11.9001 38.1705 13.473 37.3242C15.0459 36.4779 16.538 35.5956 17.7172 34.9494C17.8826 34.8594 17.9889 34.8374 18.1483 34.7614C21.2528 39.0988 26.938 42.0137 33.2808 42.0137C33.3418 42.0217 33.3989 42.0137 33.4659 42.0137C36.025 42.0137 44.293 50.6045 49.2145 47.2034C49.4114 46.4052 44.8876 44.4025 44.6612 38.4506C48.5137 35.6837 51 31.5683 51 27.0088C51 20.2626 45.7321 14.6888 38.6964 12.6921C36.4699 5.32974 28.7295 0 19.6858 0ZM19.6858 4.00131C28.6369 4.00131 35.4344 10.1033 35.4344 17.0056C35.4344 23.9078 28.6369 30.0098 19.6858 30.0098C18.0873 30.0098 17.17 30.674 15.8707 31.3863C14.5714 32.0985 13.0812 32.9788 11.6264 33.761C10.3665 34.4373 9.16571 34.9574 8.05937 35.3235C9.13618 33.743 10.2602 31.6644 10.4571 28.7594L10.5201 27.633L9.59683 26.9468C6.08882 24.448 3.93716 20.8528 3.93716 17.0056C3.93716 10.1033 10.7347 4.00131 19.6858 4.00131Z" fill="#BA6054"/>
</svg>
