<svg width="96" height="97" viewBox="0 0 96 97" fill="none" xmlns="http://www.w3.org/2000/svg">
<path d="M37.7384 0C28.0656 0 18.3918 3.67837 11.0341 11.0341C-3.67805 25.7465 -3.67805 49.728 11.0341 64.4404C24.8075 78.213 46.6601 79.023 61.4657 67.0064L65.0952 70.636C64.8899 71.3741 64.8422 72.0843 64.9554 72.7175C65.0686 73.3507 65.34 73.8917 65.7509 74.3032L92.0918 100.644C92.8449 101.396 94.0175 101.668 95.3519 101.398C96.6862 101.129 98.0728 100.34 99.2068 99.2063C100.341 98.0721 101.129 96.6853 101.399 95.351C101.668 94.0167 101.396 92.844 100.643 92.0911L74.3042 65.7518C73.8926 65.3402 73.3512 65.0683 72.7175 64.9549C72.0838 64.8415 71.3728 64.8894 70.634 65.0951L67.0044 61.4655C79.0218 46.6586 78.2129 24.8056 64.4406 11.0341C57.085 3.67837 47.4112 0.001015 37.7384 0.001015M37.7384 8.34128C45.2462 8.34128 52.7551 11.2178 58.508 16.9708C61.243 19.694 63.4131 22.9305 64.894 26.4946C66.3748 30.0588 67.1371 33.8803 67.1371 37.7398C67.1371 41.5993 66.3748 45.4208 64.894 48.9849C63.4131 52.5491 61.243 55.7856 58.508 58.5088C55.7849 61.2438 52.5484 63.414 48.9843 64.8948C45.4203 66.3757 41.5988 67.138 37.7394 67.138C33.8799 67.138 30.0585 66.3757 26.4944 64.8948C22.9304 63.414 19.6939 61.2438 16.9708 58.5088C14.2358 55.7856 12.0656 52.5491 10.5848 48.9849C9.10401 45.4208 8.34172 41.5993 8.34172 37.7398C8.34172 33.8803 9.10401 30.0588 10.5848 26.4946C12.0656 22.9305 14.2358 19.694 16.9708 16.9708C22.7237 11.2178 30.2316 8.34128 37.7384 8.34128Z" fill="#BA6054"/>
<path d="M37.6518 17.4626C37.9497 17.4626 38.2375 17.5748 38.4587 17.7774L57.4405 33.4482C58.2656 34.2001 57.7415 34.6269 56.6356 34.6259H51.7333V54.4356C51.7333 55.1123 51.194 55.6616 50.5285 55.6616H24.7781C24.4585 55.6616 24.1521 55.5323 23.9261 55.3022C23.7002 55.0721 23.5732 54.76 23.5732 54.4345V34.6259H18.671C17.5651 34.6269 17.042 34.2001 17.8661 33.4482L36.8479 17.7774C37.069 17.5758 37.3548 17.4626 37.6518 17.4626Z" fill="#BA6054"/>
</svg>
