<svg width="813" height="279" viewBox="0 0 813 279" fill="none" xmlns="http://www.w3.org/2000/svg">
<path d="M116.646 257.98C106.306 254.51 96.646 249.72 88.646 242.18C75.646 229.98 70.396 214.35 69.006 197.11C68.216 187.28 69.596 177.52 70.396 167.74C71.396 154.97 72.396 142.14 68.826 129.57C66.436 121.2 62.706 113.31 53.746 110.57C35.746 104.98 22.796 119.02 25.526 136.12C26.756 143.84 31.226 149.84 37.766 154.21C38.866 154.95 39.976 155.66 41.066 156.41C41.136 156.47 41.066 156.73 41.066 157.22C33.0549 156.803 25.4359 153.623 19.506 148.22C0.695984 131.48 -3.81401 110.63 2.99599 87.0301C17.066 38.2701 77.996 19.8301 115.626 52.8001C121.177 57.799 125.581 63.9394 128.536 70.8001C129.196 72.3501 128.736 74.4501 131.066 75.4501C131.526 73.2901 130.246 71.6901 129.686 69.9401C124.997 54.4207 124.075 38.0071 126.996 22.0601C127.756 17.7001 129.296 17.0601 133.196 18.9401C144.076 24.1501 153.386 31.1901 160.326 41.1101C161.956 43.4501 163.166 44.3701 166.226 43.1101C184.646 35.6401 203.286 36.1101 221.836 42.5701C225.506 43.8501 227.476 43.7501 229.966 40.2901C236.77 30.7659 246.043 23.2773 256.786 18.6301C259.956 17.2401 261.576 17.1601 262.276 21.4901C265.076 38.7501 264.656 55.6301 257.536 71.8801C257.033 72.8827 256.792 73.9964 256.836 75.1173C256.879 76.2382 257.206 77.3298 257.786 78.2901C262.706 88.3949 265.433 99.4266 265.786 110.66C265.886 112.71 266.206 114.28 267.996 115.81C280.896 126.81 283.856 140.13 276.736 155.6C269.616 171.07 256.906 181.01 241.416 187.47C239.866 188.11 238.796 189.22 236.626 189.95C246.126 194.51 255.236 195.31 264.626 192.27C264.436 192.74 265.236 192.07 264.626 192.27C264.626 182.39 277.496 177.8 277.606 168.18C277.606 164.93 277.916 160.77 283.016 160.72C287.286 160.72 291.226 164.44 292.016 169.28C292.756 173.83 291.726 178.18 290.266 182.39C290.586 182.68 290.786 183.02 291.006 183.04C302.656 183.74 305.606 186.97 304.836 198.61C304.606 202.1 304.426 205.56 304.426 209.05C304.426 217.11 299 220.5 292.346 221.85C285 222.5 271.5 224 262.006 226.34C257 226.34 251.866 226.98 246.356 225.34C248.516 236.34 250.246 247.09 249.906 258.03C245.511 258.485 241.081 258.485 236.686 258.03C237.756 237.28 234.556 217.31 225.776 198.36C224.696 196.03 224.146 193.61 220.136 194.77C203.136 199.66 185.926 199.01 168.856 194.87C165.926 194.15 164.716 194.8 163.506 197.33C158.762 207.209 155.596 217.77 154.126 228.63C153.696 231.74 154.606 233.28 157.556 234.63C167.956 239.56 170.806 248.15 165.716 257.94C149.366 258.63 132.996 258.39 116.646 257.98ZM180.996 134.25C171.626 130.86 162.906 125.86 153.316 122.98C143.436 119.98 133.676 119.3 124.316 124.63C116.756 128.93 113.316 136.21 114.626 144.73C116.536 156.97 124.276 165.28 133.686 172.29C144.809 180.585 157.697 186.201 171.346 188.7C203.136 194.7 232.606 189.62 258.706 169.7C266.115 164.172 271.524 156.383 274.116 147.51C277.116 137.26 272.646 127.61 263.006 123.09C253.366 118.57 243.796 120.56 234.326 123.63C225.586 126.46 217.576 130.95 209.326 134.94C208.656 130.42 206.126 128.1 201.486 127.65C197.032 127.12 192.53 127.12 188.076 127.65C184.606 128.09 180.996 129.51 180.996 134.25ZM250.886 65.4701C255.686 54.1401 257.736 42.9001 256.356 30.3701C248.796 35.8601 244.106 42.7801 239.226 49.5201C238.446 50.5801 237.816 51.7801 239.326 52.9201C243.796 56.3101 246.446 61.4101 250.906 65.4701H250.886ZM138.096 64.9101C139.491 63.515 140.772 62.0101 141.926 60.4101C144.026 56.9501 149.856 55.2501 149.176 51.2901C148.496 47.3301 144.796 44.0301 142.106 40.6801C139.416 37.3301 136.976 33.5901 132.626 31.6801C130.996 43.0001 133.206 56.4401 138.116 64.9101H138.096ZM231.266 97.7601C225.356 97.7601 220.506 101.27 218.086 107.21C217.396 108.93 216.526 110.81 218.566 112.12C220.916 113.63 221.706 111.52 222.746 110.04C225.546 106.04 229.156 103.87 234.236 104.85C237.586 105.5 239.776 107.65 241.756 110.22C242.806 111.58 244.196 112.76 245.996 111.44C247.576 110.29 246.746 108.77 246.256 107.37C244.266 101.72 237.996 97.7001 231.286 97.7601H231.266ZM160.036 97.8501C153.756 97.8001 147.116 102.52 146.036 107.85C145.786 109.12 145.426 110.54 146.906 111.4C148.386 112.26 149.286 111.55 150.366 110.52C158.916 102.44 161.596 102.42 170.096 110.32C171.176 111.32 172.266 111.95 173.626 111.22C175.156 110.39 174.716 109.08 174.296 107.74C172.736 102.63 165.996 97.8901 160.056 97.8501H160.036Z" fill="url(#paint0_linear_36_767)"/>
<path d="M209.366 134.9C217.586 130.9 225.596 126.42 234.366 123.59C243.836 120.52 253.366 118.51 263.046 123.05C272.726 127.59 277.166 137.22 274.156 147.47C271.55 156.336 266.131 164.114 258.716 169.63C232.616 189.63 203.146 194.63 171.356 188.63C157.707 186.131 144.819 180.515 133.696 172.22C124.286 165.22 116.546 156.9 114.636 144.66C113.306 136.14 116.766 128.86 124.326 124.56C133.696 119.23 143.456 119.94 153.326 122.91C162.916 125.79 171.636 130.79 181.006 134.18C182.599 138.584 185.498 142.398 189.316 145.11C190.806 146.11 192.636 146.84 192.016 149.25C191.756 150.221 191.228 151.098 190.492 151.783C189.756 152.467 188.843 152.931 187.856 153.12C181.536 154.89 175.686 154.19 170.686 149.51C169.786 148.67 169.106 146.66 167.686 147.62C166.266 148.58 167.006 150.35 167.956 151.57C172.676 157.57 176.146 164.47 180.606 170.65C186.846 179.3 200.016 180.37 207.366 172.75C213.366 166.52 217.316 158.68 222.366 151.7C223.176 150.58 223.736 148.96 222.576 148.06C220.936 146.79 220.486 148.97 219.646 149.73C214.316 154.56 206.216 156.02 200.706 153.03C196.836 150.93 196.566 148.03 200.136 145.66C204.232 143.092 207.451 139.339 209.366 134.9Z" fill="#F0EFEE"/>
<path d="M236.726 258H165.726C170.816 248.21 167.966 239.62 157.566 234.69C154.616 233.3 153.706 231.76 154.136 228.69C155.616 217.818 158.795 207.246 163.556 197.36C164.766 194.83 165.976 194.18 168.906 194.9C185.976 199.04 203.166 199.69 220.186 194.8C224.186 193.64 224.746 196.06 225.826 198.39C234.596 217.28 237.796 237.25 236.726 258Z" fill="#F0EFEE"/>
<path d="M209.366 134.9C207.463 139.365 204.243 143.143 200.136 145.73C196.566 148.06 196.836 151 200.706 153.1C206.216 156.1 214.316 154.63 219.646 149.8C220.486 149.04 220.936 146.86 222.576 148.13C223.736 149.03 223.176 150.65 222.366 151.77C217.296 158.77 213.366 166.59 207.366 172.82C200.016 180.44 186.846 179.37 180.606 170.72C176.146 164.54 172.676 157.72 167.956 151.64C167.006 150.42 166.166 148.69 167.686 147.69C169.206 146.69 169.816 148.74 170.686 149.58C175.686 154.26 181.536 154.96 187.856 153.19C188.843 153.001 189.756 152.537 190.492 151.853C191.228 151.168 191.756 150.291 192.016 149.32C192.636 146.91 190.806 146.21 189.316 145.18C185.494 142.469 182.591 138.656 180.996 134.25C180.996 129.51 184.586 128.09 188.096 127.58C192.55 127.05 197.052 127.05 201.506 127.58C206.166 128.06 208.696 130.38 209.366 134.9ZM194.926 174.46C201.126 174.57 202.806 173.18 203.736 167.07C203.936 165.77 204.066 164.44 204.146 163.12C204.256 161.27 206.146 158.52 203.936 157.77C201.356 156.91 198.256 155 195.446 157C194.146 157.93 194.196 158.18 192.646 157C192.08 156.586 191.435 156.292 190.751 156.137C190.067 155.982 189.358 155.97 188.669 156.1C187.98 156.23 187.325 156.501 186.745 156.895C186.164 157.289 185.671 157.798 185.296 158.39C181.836 164.8 187.806 174.33 194.926 174.46Z" fill="#322C29"/>
<path d="M250.906 65.4701C246.446 61.4101 243.796 56.3101 239.346 52.9201C237.836 51.7801 238.466 50.5801 239.246 49.5201C244.126 42.7801 248.816 35.8601 256.376 30.3701C257.756 42.9001 255.706 54.1401 250.906 65.4701Z" fill="#322C29"/>
<path d="M138.116 64.9099C133.206 56.4399 130.986 42.9999 132.646 31.6799C136.996 33.5899 139.446 37.3199 142.126 40.6799C144.806 44.0399 148.536 47.4499 149.196 51.2899C149.856 55.1299 144.046 56.9499 141.946 60.4099C140.792 62.01 139.511 63.5148 138.116 64.9099Z" fill="#322C29"/>
<path d="M231.286 97.7599C238.006 97.6999 244.286 101.76 246.286 107.37C246.776 108.77 247.606 110.29 246.026 111.44C244.226 112.76 242.836 111.58 241.786 110.22C239.786 107.65 237.616 105.5 234.266 104.85C229.186 103.85 225.576 106.06 222.776 110.04C221.776 111.52 220.946 113.63 218.596 112.12C216.596 110.81 217.426 108.93 218.116 107.21C220.526 101.27 225.376 97.7999 231.286 97.7599Z" fill="#322C29"/>
<path d="M160.056 97.85C165.986 97.85 172.736 102.61 174.316 107.75C174.736 109.09 175.176 110.4 173.646 111.23C172.286 111.96 171.196 111.34 170.116 110.33C161.616 102.43 158.936 102.45 150.386 110.53C149.306 111.53 148.336 112.24 146.926 111.41C145.516 110.58 145.806 109.13 146.056 107.86C147.136 102.52 153.776 97.8 160.056 97.85Z" fill="#322C29"/>
<path d="M194.926 174.46C187.806 174.33 181.836 164.8 185.296 158.38C185.671 157.788 186.164 157.279 186.745 156.885C187.325 156.491 187.98 156.22 188.669 156.09C189.358 155.96 190.067 155.972 190.751 156.127C191.435 156.282 192.08 156.576 192.646 156.99C194.196 158.18 194.146 157.93 195.446 156.99C198.256 154.99 201.356 156.9 203.936 157.76C206.156 158.51 204.256 161.26 204.146 163.11C204.066 164.43 203.936 165.76 203.736 167.06C202.806 173.18 201.126 174.57 194.926 174.46Z" fill="#322C29"/>
<path d="M195.5 153.288C197.077 153.888 198.697 154.514 200.19 155.3C201.39 156.01 203.85 156.63 203.85 156.63C203.923 157.711 203.746 158.795 203.334 159.797C202.921 160.8 202.283 161.693 201.47 162.41C199.77 163.87 197.54 164.35 195.5 162.5V153.288Z" fill="#ECECE9"/>
<path d="M195.16 162.81C192.86 164.69 190.96 163.72 189.3 161.89C187.908 160.159 187.102 158.029 187 155.81C189.952 155.573 192.807 154.641 195.33 153.09C195.27 156.337 195.213 159.577 195.16 162.81Z" fill="#ECECE9"/>
<path d="M195.16 162.81C195.207 159.577 195.263 156.337 195.33 153.09L195.58 162.81H195.16Z" fill="#322C29"/>
<path d="M194.898 176C193.697 175.971 192.516 175.692 191.427 175.178C190.338 174.665 189.364 173.929 188.567 173.016C187.714 172.057 187.811 171.233 188.943 170.648C192.87 168.624 196.81 168.335 200.822 170.507C202.124 171.22 202.469 172.008 201.234 173.238C200.414 174.106 199.43 174.798 198.342 175.273C197.253 175.747 196.082 175.994 194.898 176ZM194.407 175.385C195.492 175.439 196.575 175.25 197.581 174.834C198.587 174.417 199.49 173.782 200.229 172.973C201.016 172.186 200.919 171.528 200.024 170.919C197.863 169.442 191.987 169.541 189.784 171.03C188.785 171.712 188.852 172.395 189.675 173.023C191.291 174.222 193.009 175.293 194.395 175.354L194.407 175.385Z" fill="#9C664C"/>
<path d="M194 175.5C192 175 191.41 174.303 189.755 173.192C188.912 172.636 188.733 171.673 189.755 171.056C192 169.5 198 169.5 200.243 170.956C201.161 171.512 201.26 172.101 200.454 172.813C199.697 173.544 199.03 174.624 198 175C196.97 175.376 195.111 175.548 194 175.5Z" fill="#C35F46"/>
<path d="M109.646 257.98C126.006 258.39 142.366 258.59 158.716 257.98H229.716C234.111 258.435 238.541 258.435 242.936 257.98C261.086 258.05 279.246 258.04 297.396 258.28C301.176 258.28 300.756 256.15 300.756 253.79C300.816 232.99 300.966 212.18 300.956 191.38C300.956 160.75 300.736 130.13 300.826 99.5002C300.826 95.7102 299.636 93.4002 296.616 91.3002C286.496 84.3002 276.616 76.9801 266.476 69.9301C263.786 68.0601 262.886 66.2001 264.136 62.9301C266.056 57.9901 266.396 52.6402 267.376 47.1702C268.069 47.3352 268.74 47.5802 269.376 47.9001C295.456 66.0801 321.516 84.2902 347.556 102.53C351.936 105.61 352.816 109.84 350.886 114.43C348.396 120.35 342.116 122.43 336.376 118.92C331.056 115.63 326.036 111.86 320.076 107.75C320.076 110.36 320.076 112.11 320.076 113.86C320.263 157.3 320.443 200.737 320.616 244.17C320.616 251.66 320.466 259.17 320.406 266.64C320.336 275.07 317.106 278.37 308.596 278.38C265.929 278.42 223.279 278.42 180.646 278.38C144.153 278.38 107.666 278.36 71.1861 278.32C60.6761 278.32 57.6361 275.55 57.4861 265.23C57.2961 252.85 57.436 240.47 58.006 227.97C63.096 236.06 68.786 243.31 76.006 249.32C77.386 250.47 77.306 252.03 77.116 253.45C76.616 257.1 77.7961 258.37 81.6861 258.21C90.9961 257.97 100.316 258.07 109.646 257.98Z" fill="url(#paint1_linear_36_767)"/>
<path d="M194.696 0C197.698 0.14785 200.596 1.14293 203.056 2.87001C213.316 10.25 223.566 17.62 233.956 24.81C236.746 26.75 237.856 28.18 234.446 30.45C233.395 31.2659 232.427 32.1837 231.556 33.19C223.706 41.1 223.696 41.12 214.276 34.77C209.046 31.24 203.706 27.83 198.726 23.97C196.046 21.9 194.186 22.28 191.726 24.07C184.496 29.38 177.046 34.41 169.876 39.8C167.656 41.48 166.436 41.43 164.506 39.49C161.365 36.2884 157.989 33.3268 154.406 30.63C151.806 28.71 152.666 27.84 154.646 26.41C165.699 18.41 176.719 10.3867 187.706 2.34001C189.763 0.905007 192.19 0.0926333 194.696 0Z" fill="#D3FFF6"/>
<path d="M345.5 240V170.182H395.818V185.455H364.455V197.455H393.227V212.727H364.455V224.727H395.682V240H345.5ZM421.435 240H400.981L424.026 170.182H449.935L472.981 240H452.526L437.253 189.409H436.708L421.435 240ZM417.617 212.455H456.071V226.636H417.617V212.455ZM512.703 192C512.521 189.727 511.669 187.955 510.146 186.682C508.646 185.409 506.362 184.773 503.294 184.773C501.339 184.773 499.737 185.011 498.487 185.489C497.259 185.943 496.35 186.568 495.759 187.364C495.169 188.159 494.862 189.068 494.839 190.091C494.794 190.932 494.941 191.693 495.282 192.375C495.646 193.034 496.214 193.636 496.987 194.182C497.759 194.705 498.748 195.182 499.953 195.614C501.157 196.045 502.589 196.432 504.248 196.773L509.975 198C513.839 198.818 517.146 199.898 519.896 201.239C522.646 202.58 524.896 204.159 526.646 205.977C528.396 207.773 529.68 209.795 530.498 212.045C531.339 214.295 531.771 216.75 531.794 219.409C531.771 224 530.623 227.886 528.35 231.068C526.078 234.25 522.828 236.67 518.6 238.33C514.396 239.989 509.339 240.818 503.43 240.818C497.362 240.818 492.066 239.92 487.544 238.125C483.044 236.33 479.544 233.568 477.044 229.841C474.566 226.091 473.316 221.295 473.294 215.455H491.294C491.407 217.591 491.941 219.386 492.896 220.841C493.85 222.295 495.191 223.398 496.919 224.148C498.669 224.898 500.748 225.273 503.157 225.273C505.18 225.273 506.873 225.023 508.237 224.523C509.6 224.023 510.634 223.33 511.339 222.443C512.044 221.557 512.407 220.545 512.43 219.409C512.407 218.341 512.055 217.409 511.373 216.614C510.714 215.795 509.623 215.068 508.1 214.432C506.578 213.773 504.521 213.159 501.93 212.591L494.975 211.091C488.794 209.75 483.919 207.511 480.35 204.375C476.805 201.216 475.044 196.909 475.066 191.455C475.044 187.023 476.225 183.148 478.612 179.83C481.021 176.489 484.35 173.886 488.6 172.023C492.873 170.159 497.771 169.227 503.294 169.227C508.93 169.227 513.805 170.17 517.919 172.057C522.032 173.943 525.203 176.602 527.43 180.034C529.68 183.443 530.816 187.432 530.839 192H512.703ZM534.22 170.182H555.356L568.993 198.545H569.538L583.175 170.182H604.311L578.675 218.045V240H559.856V218.045L534.22 170.182Z" fill="url(#paint2_linear_36_767)"/>
<path d="M616.5 240V170.182H635.455V198.409H636.409L657.409 170.182H679.5L655.909 201.273L680.045 240H657.409L641.727 213.818L635.455 222V240H616.5ZM746.435 205.091C746.435 212.864 744.924 219.42 741.901 224.761C738.878 230.08 734.799 234.114 729.662 236.864C724.526 239.591 718.799 240.955 712.481 240.955C706.117 240.955 700.367 239.58 695.231 236.83C690.117 234.057 686.049 230.011 683.026 224.693C680.026 219.352 678.526 212.818 678.526 205.091C678.526 197.318 680.026 190.773 683.026 185.455C686.049 180.114 690.117 176.08 695.231 173.352C700.367 170.602 706.117 169.227 712.481 169.227C718.799 169.227 724.526 170.602 729.662 173.352C734.799 176.08 738.878 180.114 741.901 185.455C744.924 190.773 746.435 197.318 746.435 205.091ZM726.935 205.091C726.935 200.909 726.378 197.386 725.265 194.523C724.174 191.636 722.549 189.455 720.39 187.977C718.253 186.477 715.617 185.727 712.481 185.727C709.344 185.727 706.696 186.477 704.537 187.977C702.401 189.455 700.776 191.636 699.662 194.523C698.571 197.386 698.026 200.909 698.026 205.091C698.026 209.273 698.571 212.807 699.662 215.693C700.776 218.557 702.401 220.739 704.537 222.239C706.696 223.716 709.344 224.455 712.481 224.455C715.617 224.455 718.253 223.716 720.39 222.239C722.549 220.739 724.174 218.557 725.265 215.693C726.378 212.807 726.935 209.273 726.935 205.091ZM790.921 192C790.74 189.727 789.887 187.955 788.365 186.682C786.865 185.409 784.58 184.773 781.512 184.773C779.558 184.773 777.955 185.011 776.705 185.489C775.478 185.943 774.569 186.568 773.978 187.364C773.387 188.159 773.08 189.068 773.058 190.091C773.012 190.932 773.16 191.693 773.501 192.375C773.865 193.034 774.433 193.636 775.205 194.182C775.978 194.705 776.967 195.182 778.171 195.614C779.376 196.045 780.808 196.432 782.467 196.773L788.194 198C792.058 198.818 795.365 199.898 798.115 201.239C800.865 202.58 803.115 204.159 804.865 205.977C806.615 207.773 807.899 209.795 808.717 212.045C809.558 214.295 809.99 216.75 810.012 219.409C809.99 224 808.842 227.886 806.569 231.068C804.296 234.25 801.046 236.67 796.819 238.33C792.615 239.989 787.558 240.818 781.649 240.818C775.58 240.818 770.285 239.92 765.762 238.125C761.262 236.33 757.762 233.568 755.262 229.841C752.785 226.091 751.535 221.295 751.512 215.455H769.512C769.626 217.591 770.16 219.386 771.115 220.841C772.069 222.295 773.41 223.398 775.137 224.148C776.887 224.898 778.967 225.273 781.376 225.273C783.399 225.273 785.092 225.023 786.455 224.523C787.819 224.023 788.853 223.33 789.558 222.443C790.262 221.557 790.626 220.545 790.649 219.409C790.626 218.341 790.274 217.409 789.592 216.614C788.933 215.795 787.842 215.068 786.319 214.432C784.796 213.773 782.74 213.159 780.149 212.591L773.194 211.091C767.012 209.75 762.137 207.511 758.569 204.375C755.024 201.216 753.262 196.909 753.285 191.455C753.262 187.023 754.444 183.148 756.83 179.83C759.24 176.489 762.569 173.886 766.819 172.023C771.092 170.159 775.99 169.227 781.512 169.227C787.149 169.227 792.024 170.17 796.137 172.057C800.251 173.943 803.421 176.602 805.649 180.034C807.899 183.443 809.035 187.432 809.058 192H790.921Z" fill="url(#paint3_linear_36_767)"/>
<defs>
<linearGradient id="paint0_linear_36_767" x1="152.475" y1="17.7822" x2="152.475" y2="258.376" gradientUnits="userSpaceOnUse">
<stop stop-color="#E29A3C"/>
<stop offset="1" stop-color="#D34D44"/>
</linearGradient>
<linearGradient id="paint1_linear_36_767" x1="204.63" y1="47.1702" x2="205" y2="265.5" gradientUnits="userSpaceOnUse">
<stop offset="0.00961538" stop-color="#D3FFF6"/>
<stop offset="0.386101" stop-color="#AFC7C2"/>
<stop offset="1" stop-color="#29A185"/>
</linearGradient>
<linearGradient id="paint2_linear_36_767" x1="473.989" y1="168" x2="473.989" y2="256" gradientUnits="userSpaceOnUse">
<stop stop-color="#BFE5DC"/>
<stop offset="1" stop-color="#268E76"/>
</linearGradient>
<linearGradient id="paint3_linear_36_767" x1="712.871" y1="168" x2="712.871" y2="256" gradientUnits="userSpaceOnUse">
<stop stop-color="#E29F49"/>
<stop offset="1" stop-color="#D34F43"/>
</linearGradient>
</defs>
</svg>
