<svg width="472" height="116" viewBox="0 0 472 116" fill="none" xmlns="http://www.w3.org/2000/svg">
<path d="M4.5 93V23.1818H54.8182V38.4545H23.4545V50.4545H52.2273V65.7273H23.4545V77.7273H54.6818V93H4.5ZM80.4351 93H59.9806L83.026 23.1818H108.935L131.981 93H111.526L96.2533 42.4091H95.7078L80.4351 93ZM76.6169 65.4545H115.071V79.6364H76.6169V65.4545ZM171.703 45C171.521 42.7273 170.669 40.9545 169.146 39.6818C167.646 38.4091 165.362 37.7727 162.294 37.7727C160.339 37.7727 158.737 38.0114 157.487 38.4886C156.259 38.9432 155.35 39.5682 154.759 40.3636C154.169 41.1591 153.862 42.0682 153.839 43.0909C153.794 43.9318 153.941 44.6932 154.282 45.375C154.646 46.0341 155.214 46.6364 155.987 47.1818C156.759 47.7045 157.748 48.1818 158.953 48.6136C160.157 49.0455 161.589 49.4318 163.248 49.7727L168.975 51C172.839 51.8182 176.146 52.8977 178.896 54.2386C181.646 55.5795 183.896 57.1591 185.646 58.9773C187.396 60.7727 188.68 62.7955 189.498 65.0455C190.339 67.2955 190.771 69.75 190.794 72.4091C190.771 77 189.623 80.8864 187.35 84.0682C185.078 87.25 181.828 89.6705 177.6 91.3295C173.396 92.9886 168.339 93.8182 162.43 93.8182C156.362 93.8182 151.066 92.9205 146.544 91.125C142.044 89.3295 138.544 86.5682 136.044 82.8409C133.566 79.0909 132.316 74.2955 132.294 68.4545H150.294C150.407 70.5909 150.941 72.3864 151.896 73.8409C152.85 75.2955 154.191 76.3977 155.919 77.1477C157.669 77.8977 159.748 78.2727 162.157 78.2727C164.18 78.2727 165.873 78.0227 167.237 77.5227C168.6 77.0227 169.634 76.3295 170.339 75.4432C171.044 74.5568 171.407 73.5455 171.43 72.4091C171.407 71.3409 171.055 70.4091 170.373 69.6136C169.714 68.7955 168.623 68.0682 167.1 67.4318C165.578 66.7727 163.521 66.1591 160.93 65.5909L153.975 64.0909C147.794 62.75 142.919 60.5114 139.35 57.375C135.805 54.2159 134.044 49.9091 134.066 44.4545C134.044 40.0227 135.225 36.1477 137.612 32.8295C140.021 29.4886 143.35 26.8864 147.6 25.0227C151.873 23.1591 156.771 22.2273 162.294 22.2273C167.93 22.2273 172.805 23.1705 176.919 25.0568C181.032 26.9432 184.203 29.6023 186.43 33.0341C188.68 36.4432 189.816 40.4318 189.839 45H171.703ZM193.22 23.1818H214.356L227.993 51.5455H228.538L242.175 23.1818H263.311L237.675 71.0455V93H218.856V71.0455L193.22 23.1818Z" fill="url(#paint0_linear_36_789)"/>
<path d="M275.5 93V23.1818H294.455V51.4091H295.409L316.409 23.1818H338.5L314.909 54.2727L339.045 93H316.409L300.727 66.8182L294.455 75V93H275.5ZM405.435 58.0909C405.435 65.8636 403.924 72.4205 400.901 77.7614C397.878 83.0795 393.799 87.1136 388.662 89.8636C383.526 92.5909 377.799 93.9545 371.481 93.9545C365.117 93.9545 359.367 92.5795 354.231 89.8295C349.117 87.0568 345.049 83.0114 342.026 77.6932C339.026 72.3523 337.526 65.8182 337.526 58.0909C337.526 50.3182 339.026 43.7727 342.026 38.4545C345.049 33.1136 349.117 29.0795 354.231 26.3523C359.367 23.6023 365.117 22.2273 371.481 22.2273C377.799 22.2273 383.526 23.6023 388.662 26.3523C393.799 29.0795 397.878 33.1136 400.901 38.4545C403.924 43.7727 405.435 50.3182 405.435 58.0909ZM385.935 58.0909C385.935 53.9091 385.378 50.3864 384.265 47.5227C383.174 44.6364 381.549 42.4545 379.39 40.9773C377.253 39.4773 374.617 38.7273 371.481 38.7273C368.344 38.7273 365.696 39.4773 363.537 40.9773C361.401 42.4545 359.776 44.6364 358.662 47.5227C357.571 50.3864 357.026 53.9091 357.026 58.0909C357.026 62.2727 357.571 65.8068 358.662 68.6932C359.776 71.5568 361.401 73.7386 363.537 75.2386C365.696 76.7159 368.344 77.4545 371.481 77.4545C374.617 77.4545 377.253 76.7159 379.39 75.2386C381.549 73.7386 383.174 71.5568 384.265 68.6932C385.378 65.8068 385.935 62.2727 385.935 58.0909ZM449.921 45C449.74 42.7273 448.887 40.9545 447.365 39.6818C445.865 38.4091 443.58 37.7727 440.512 37.7727C438.558 37.7727 436.955 38.0114 435.705 38.4886C434.478 38.9432 433.569 39.5682 432.978 40.3636C432.387 41.1591 432.08 42.0682 432.058 43.0909C432.012 43.9318 432.16 44.6932 432.501 45.375C432.865 46.0341 433.433 46.6364 434.205 47.1818C434.978 47.7045 435.967 48.1818 437.171 48.6136C438.376 49.0455 439.808 49.4318 441.467 49.7727L447.194 51C451.058 51.8182 454.365 52.8977 457.115 54.2386C459.865 55.5795 462.115 57.1591 463.865 58.9773C465.615 60.7727 466.899 62.7955 467.717 65.0455C468.558 67.2955 468.99 69.75 469.012 72.4091C468.99 77 467.842 80.8864 465.569 84.0682C463.296 87.25 460.046 89.6705 455.819 91.3295C451.615 92.9886 446.558 93.8182 440.649 93.8182C434.58 93.8182 429.285 92.9205 424.762 91.125C420.262 89.3295 416.762 86.5682 414.262 82.8409C411.785 79.0909 410.535 74.2955 410.512 68.4545H428.512C428.626 70.5909 429.16 72.3864 430.115 73.8409C431.069 75.2955 432.41 76.3977 434.137 77.1477C435.887 77.8977 437.967 78.2727 440.376 78.2727C442.399 78.2727 444.092 78.0227 445.455 77.5227C446.819 77.0227 447.853 76.3295 448.558 75.4432C449.262 74.5568 449.626 73.5455 449.649 72.4091C449.626 71.3409 449.274 70.4091 448.592 69.6136C447.933 68.7955 446.842 68.0682 445.319 67.4318C443.796 66.7727 441.74 66.1591 439.149 65.5909L432.194 64.0909C426.012 62.75 421.137 60.5114 417.569 57.375C414.024 54.2159 412.262 49.9091 412.285 44.4545C412.262 40.0227 413.444 36.1477 415.83 32.8295C418.24 29.4886 421.569 26.8864 425.819 25.0227C430.092 23.1591 434.99 22.2273 440.512 22.2273C446.149 22.2273 451.024 23.1705 455.137 25.0568C459.251 26.9432 462.421 29.6023 464.649 33.0341C466.899 36.4432 468.035 40.4318 468.058 45H449.921Z" fill="url(#paint1_linear_36_789)"/>
<defs>
<linearGradient id="paint0_linear_36_789" x1="132.989" y1="21" x2="132.989" y2="109" gradientUnits="userSpaceOnUse">
<stop stop-color="#BFE5DC"/>
<stop offset="1" stop-color="#268E76"/>
</linearGradient>
<linearGradient id="paint1_linear_36_789" x1="371.871" y1="21" x2="371.871" y2="109" gradientUnits="userSpaceOnUse">
<stop stop-color="#E29F49"/>
<stop offset="1" stop-color="#D34F43"/>
</linearGradient>
</defs>
</svg>
