<svg width="59" height="15" viewBox="0 0 59 15" fill="none" xmlns="http://www.w3.org/2000/svg">
<path d="M2.49289 10.4779C3.23396 11.5352 4.46637 12.1374 5.75587 12.0724C7.27652 12.0724 8.395 11.101 8.395 9.7808V9.08445H8.35805C7.52491 9.89872 6.38743 10.3246 5.22438 10.2576C3.38698 10.3104 1.66449 9.36616 0.720638 7.78883C-0.223212 6.2115 -0.24108 4.24726 0.67392 2.65302C1.58892 1.05878 3.29395 0.0833929 5.13201 0.10271C6.31717 0.0266681 7.48213 0.43697 8.35805 1.23893H8.395V0.286052H10.9986V9.74457C10.9986 12.4938 8.81708 14.4003 5.7559 14.4003C3.75077 14.5096 1.81482 13.6508 0.550192 12.0909L2.49289 10.4779ZM8.28554 4.59359C8.28554 3.49361 7.03919 2.4853 5.64641 2.4853C3.8856 2.4853 2.71314 3.54903 2.71314 5.14358C2.66093 5.89908 2.94489 6.63909 3.48908 7.16574C4.03327 7.69239 4.78218 7.95196 5.53557 7.87505C7.05763 7.87505 8.28554 6.92145 8.28554 5.72981V4.59359ZM17.8173 0.0110569C20.9893 0.0110569 23.2987 2.26573 23.2987 5.14358C23.2987 8.02143 20.9893 10.2761 17.8173 10.2761C15.9033 10.4016 14.0786 9.45168 13.0835 7.81193C12.0885 6.17217 12.0885 4.11499 13.0835 2.47523C14.0786 0.83548 15.9033 -0.11441 17.8173 0.0110569ZM17.8173 2.39363C16.3012 2.40397 15.0796 3.63952 15.0863 5.15561C15.0932 6.6717 16.3259 7.89619 17.842 7.89289C19.3582 7.88956 20.5855 6.65969 20.5857 5.14358C20.6201 4.40099 20.3388 3.6785 19.8114 3.15461C19.284 2.63071 18.5596 2.35429 17.8173 2.39363ZM24.7653 0.286052H27.3689V1.14727H27.4058C28.2565 0.364923 29.3851 -0.0442616 30.5395 0.0110569C33.3345 0.061487 35.5754 2.33905 35.5804 5.13452C35.5855 7.93 33.3528 10.2156 30.558 10.2761C29.4547 10.3015 28.3776 9.93807 27.5153 9.24932H27.4783V14.1253H24.7653V0.286052ZM30.1188 2.41208C28.6877 2.41208 27.4783 3.42042 27.4783 4.5204V5.74828C27.4783 6.92145 28.6522 7.89282 30.1359 7.89282C31.6493 7.88811 32.8724 6.65739 32.8677 5.14393C32.863 3.63048 31.6323 2.4074 30.1188 2.41208ZM40.6951 4.20845C42.473 3.97041 43.0045 3.71389 43.0045 3.21862C43.0045 2.57696 42.3266 2.19253 41.2821 2.19253C40.1566 2.09723 39.1294 2.83608 38.8618 3.93346L36.2952 3.40194C36.6619 1.42227 38.697 0.0110569 41.2082 0.0110569C44.0491 0.0110569 45.8099 1.45922 45.8099 3.82332V10.0011H43.3712V8.93808H43.3342C42.5075 9.86951 41.295 10.3639 40.0527 10.2761C37.9082 10.2761 36.4245 9.10293 36.4245 7.37978C36.4245 5.56495 37.6339 4.63054 40.6951 4.20845ZM43.2248 5.23524H43.1878C42.9491 5.58343 42.436 5.78523 41.1172 6.02327C39.5212 6.31674 38.9542 6.62798 38.9542 7.19644C38.9542 7.78338 39.4303 8.0399 40.4564 8.0399C42.0154 8.0399 43.2248 7.32505 43.2248 6.38993V5.23524ZM50.7214 9.46959L46.2305 0.286052H49.2192L52.1696 6.62798H52.2065L55.1213 0.286052H58.1271L51.4007 14.1253H48.412L50.7214 9.46959Z" fill="black"/>
</svg>
