<svg width="18" height="18" viewBox="0 0 18 18" fill="none" xmlns="http://www.w3.org/2000/svg">
<path d="M8.73161 17.4632C13.554 17.4632 17.4632 13.554 17.4632 8.73161C17.4632 3.90928 13.554 0 8.73161 0C3.90928 0 0 3.90928 0 8.73161C0 13.554 3.90928 17.4632 8.73161 17.4632Z" fill="#00AED6"/>
<path d="M8.73161 17.4632C13.554 17.4632 17.4632 13.554 17.4632 8.73161C17.4632 3.90928 13.554 0 8.73161 0C3.90928 0 0 3.90928 0 8.73161C0 13.554 3.90928 17.4632 8.73161 17.4632Z" fill="#00AED6"/>
<path fill-rule="evenodd" clip-rule="evenodd" d="M13.8172 8.45962C13.7528 7.35085 12.8093 6.49971 11.6998 6.54958H6.18431C5.98338 6.54958 5.82049 6.38669 5.82049 6.18576C5.82049 5.98483 5.98338 5.82194 6.18431 5.82194H11.7725C11.7423 5.06706 11.2274 4.41835 10.4991 4.21751C8.87093 3.9301 7.20497 3.9301 5.57676 4.21751C4.6512 4.4455 3.95884 5.21576 3.83044 6.16029C3.57214 7.8739 3.57214 9.61653 3.83044 11.3301C4.02707 12.3276 4.81864 13.1003 5.82052 13.2729C7.84164 13.524 9.88606 13.524 11.9072 13.2729C12.806 13.0889 13.4861 12.3502 13.5953 11.4393C13.7763 10.4569 13.8507 9.45793 13.8172 8.45962ZM12.0054 9.68204V10.0058C12.0054 10.2068 11.8425 10.3697 11.6416 10.3697C11.4406 10.3697 11.2777 10.2068 11.2777 10.0058V9.68204C11.1615 9.58013 11.0951 9.43281 11.0958 9.27821C11.0958 8.97681 11.3402 8.73248 11.6416 8.73248C11.943 8.73248 12.1873 8.97681 12.1873 9.27821C12.188 9.43281 12.1216 9.58012 12.0054 9.68204V9.68204Z" fill="white"/>
</svg>
