<svg width="61" height="19" viewBox="0 0 61 19" fill="none" xmlns="http://www.w3.org/2000/svg">
<path d="M31.4652 16.5077C31.8947 16.2989 32.4284 15.5635 32.6392 14.8898C32.7219 14.6257 33.4979 12.0661 34.3638 9.20192C35.2904 6.13645 36.0765 3.72386 36.2747 3.33696C36.8707 2.17356 37.7276 1.82016 39.9528 1.82016H41.1306V0.388419L39.1768 0.393934C37.3841 0.399 37.3058 0.469542 36.7656 0.718963C35.9339 1.10297 35.2937 1.70475 34.8728 2.49819C34.6686 2.88292 34.2294 4.11971 33.8747 5.30879C31.6484 12.7708 31.0448 14.7021 30.8851 14.8737C30.6359 15.1417 30.2574 15.1181 30.0581 14.8222C29.9674 14.6876 29.3327 12.674 28.6475 10.3476C26.9395 4.54818 26.5137 3.1992 26.2031 2.60273C25.8276 1.88172 24.9955 1.06314 24.3057 0.736198C23.7451 0.470461 23.7146 0.406577 21.8412 0.396439L19.8252 0.385529V1.79513L21.3581 1.83968C22.6577 1.87745 22.9702 1.91867 23.4107 2.11042C24.6684 2.65784 24.7717 2.87626 26.4289 8.49407C27.4465 11.9438 28.2745 14.6285 28.4717 15.1174C28.7254 15.7467 29.1043 16.2391 29.5286 16.4908C29.9558 16.7442 30.9605 16.753 31.4652 16.5077Z" fill="#5726D7"/>
<path d="M54.0698 18.7181C57.9859 17.699 60.6647 14.4995 60.9639 10.4843C61.2221 7.01779 60.0916 4.09928 57.7323 2.14146C55.9539 0.665713 53.9592 0 51.3157 0C48.6167 0 46.4867 0.753406 44.683 2.34606C43.7504 3.16961 42.8203 4.50729 42.3555 5.69364C41.5236 7.8169 41.5671 11.5441 42.4463 13.4748C43.7757 16.394 46.091 18.2122 49.3028 18.8594C50.3805 19.0765 52.9898 18.9992 54.0698 18.7181ZM49.5489 17.3405C47.4859 16.9303 45.7723 15.8199 44.6607 14.1729C42.8811 11.5363 42.9433 7.19465 44.7984 4.56011C45.8731 3.03376 47.6972 1.93291 49.6744 1.61746C50.6732 1.45809 52.8899 1.53564 53.758 1.76031C56.2049 2.39362 58.2136 4.32524 58.9898 6.79134C59.6372 8.84822 59.439 11.6034 58.5145 13.3984C57.1341 16.0785 54.5924 17.514 51.2805 17.4843C50.6997 17.479 49.9204 17.4143 49.5489 17.3405ZM52.4069 16.7751C55.3348 16.4264 57.4567 14.7418 58.3583 12.0501C58.5651 11.4326 58.6283 10.9968 58.6689 9.90779C58.7454 7.85182 58.4189 6.5631 57.4599 5.13616C56.5793 3.82581 55.3811 2.94792 53.8075 2.46026C53.0101 2.21314 52.7788 2.18752 51.3676 2.18994C49.9713 2.19234 49.7168 2.22081 48.9278 2.46293C47.3644 2.94268 46.2095 3.78507 45.2987 5.11003C44.3269 6.52377 43.9902 7.83233 44.0643 9.90779C44.105 11.0476 44.1601 11.4094 44.3955 12.0838C45.3257 14.7492 47.4197 16.4152 50.2964 16.7786C51.2443 16.8983 51.3737 16.8981 52.4069 16.7751ZM49.7246 15.1174C47.8321 14.6111 46.3799 13.1301 45.8579 11.1738C45.6442 10.3728 45.6451 8.63228 45.8596 7.8368C46.4313 5.71752 47.9914 4.21153 50.0565 3.78562C53.2547 3.12605 56.1666 4.85893 56.8833 7.84825C57.0834 8.68257 57.1058 10.1347 56.9316 10.9715C56.5163 12.9663 54.9324 14.6115 52.9265 15.1319C52.2697 15.3023 50.3841 15.2937 49.7246 15.1174Z" fill="#5726D7"/>
<path d="M32.4251 18.6268C33.243 18.235 33.8338 17.6294 34.3197 16.6848C34.7984 15.7541 35.0411 14.9928 37.1732 7.73567C38.0558 4.7315 38.0473 4.75414 38.4425 4.38532C38.742 4.10591 38.7966 4.09412 39.942 4.06138L41.1306 4.02739V2.50207L39.6856 2.54695C38.4092 2.58658 38.1828 2.62071 37.7462 2.83933C36.8595 3.2833 36.7212 3.58559 35.5251 7.69347C33.1988 15.6827 33.1302 15.8828 32.4458 16.6742C31.8743 17.335 30.6797 17.6514 29.715 17.3975C29.0675 17.2271 28.4091 16.5927 27.9871 15.7326C27.6894 15.1257 26.6323 11.6736 24.7951 5.3088C24.394 3.91936 24.2058 3.55338 23.6572 3.09652C23.1175 2.64698 22.8117 2.58341 21.1763 2.58071L19.8771 2.57856L19.8161 4.0448H20.8633C21.5395 4.0448 22.0373 4.09637 22.2686 4.19039C22.635 4.33934 23.0042 4.80712 23.1114 5.25824C23.2753 5.94804 26.1032 15.2726 26.3127 15.8142C26.9793 17.5372 27.7068 18.3536 28.9857 18.8138C29.436 18.9758 29.7522 19.0088 30.6378 18.9862C31.6348 18.9608 31.7951 18.9285 32.4251 18.6268Z" fill="#5726D7"/>
<path d="M11.8746 18.8191C13.6323 18.4644 15.0936 17.7256 16.3694 16.5468C17.6447 15.3685 18.5315 13.8813 19.0005 12.1344C19.3522 10.8245 19.3955 8.77516 19.1008 7.38426C18.3072 3.63879 15.5591 0.891451 11.9039 0.189458C10.4874 -0.0825873 8.0527 -0.0319071 6.7821 0.296071C3.72845 1.0843 1.15622 3.59407 0.400981 6.52224C-0.80239 11.1879 0.747934 15.4649 4.44484 17.6785C5.29778 18.1892 6.80256 18.738 7.78675 18.8972C8.80691 19.0623 10.8646 19.023 11.8746 18.8191ZM7.63226 17.2977C6.15065 16.9839 5.09084 16.4131 3.96454 15.3224C3.18531 14.5677 2.94171 14.2527 2.58844 13.5425C1.46526 11.2848 1.34632 8.59091 2.26203 6.14963C2.96571 4.2736 4.54494 2.69601 6.3968 2.01914C8.28504 1.32897 11.1541 1.34877 12.9643 2.06446C15.9001 3.2251 17.6427 5.99671 17.6427 9.50528C17.6427 11.3584 17.2295 12.8346 16.3333 14.1834C15.3394 15.6792 13.9353 16.6853 12.1316 17.194C11.0013 17.5128 8.87843 17.5617 7.63226 17.2977ZM11.7867 16.5794C13.7162 16.1 15.2748 14.9045 16.1371 13.2424C16.8083 11.9488 16.9661 11.2472 16.9664 9.55584C16.9667 7.77031 16.838 7.18971 16.1316 5.7901C15.3165 4.17515 13.9626 3.05088 12.1344 2.47086C11.3421 2.21948 11.0957 2.18974 9.74407 2.18234C8.46247 2.17532 8.11331 2.20895 7.40932 2.40725C6.15442 2.76073 5.43104 3.17811 4.48993 4.09167C3.5278 5.02562 2.91245 6.06395 2.5573 7.35276C2.25032 8.46674 2.25032 10.5438 2.5573 11.6578C3.19171 13.96 4.78815 15.66 7.01782 16.4078C8.52999 16.9149 10.195 16.9748 11.7867 16.5794ZM7.92531 15.078C7.01541 14.8202 6.45171 14.5054 5.77518 13.8776C5.00994 13.1674 4.63371 12.5906 4.27534 11.5782C4.02163 10.8615 3.98924 10.6251 3.9913 9.50528C3.9933 8.41084 4.03098 8.13062 4.2721 7.4164C4.61158 6.41086 5.21449 5.50733 5.93221 4.92855C6.66663 4.3363 7.19537 4.07593 8.14197 3.84037C11.4136 3.02625 14.5243 4.84246 15.2041 7.96363C15.393 8.83132 15.3943 10.1736 15.2069 11.0337C14.7772 13.0061 13.2154 14.6154 11.2467 15.1143C10.4158 15.3249 8.73154 15.3065 7.92531 15.078Z" fill="#5726D7"/>
</svg>
