<svg width="228" height="192" viewBox="0 0 228 192" fill="none" xmlns="http://www.w3.org/2000/svg">
<g filter="url(#filter0_d_65_350)">
<path d="M90.3826 166.007C83.6028 163.651 77.2689 160.398 72.0235 155.278C63.4996 146.994 60.0573 136.38 59.1459 124.673C58.6279 117.998 59.5327 111.371 60.0573 104.729C60.713 96.0579 61.3686 87.3456 59.0279 78.8099C57.4608 73.1263 55.0151 67.7685 49.1402 65.9079C37.3379 62.112 28.8468 71.6459 30.6368 83.2577C31.4433 88.5 34.3742 92.5743 38.6624 95.5418C39.3836 96.0443 40.1114 96.5264 40.8261 97.0357C40.872 97.0765 40.8261 97.253 40.8261 97.5858C35.5734 97.3027 30.5777 95.1429 26.6896 91.4743C14.3562 80.1069 11.3991 65.9487 15.8643 49.923C25.0898 16.8124 65.0405 4.29064 89.7138 26.679C93.3534 30.0736 96.241 34.2432 98.1786 38.902C98.6114 39.9545 98.3098 41.3805 99.8375 42.0596C100.139 40.5928 99.2998 39.5063 98.9327 38.318C95.8581 27.7795 95.2535 16.6338 97.1689 5.80492C97.6672 2.84425 98.6769 2.40966 101.234 3.68628C108.368 7.22414 114.472 12.0047 119.023 18.7409C120.091 20.3299 120.885 20.9546 122.891 20.099C134.969 15.0265 147.191 15.3456 159.354 19.7323C161.76 20.6015 163.052 20.5336 164.684 18.1841C169.146 11.7166 175.226 6.63148 182.27 3.47577C184.348 2.53189 185.411 2.47755 185.87 5.41785C187.705 17.1383 187.43 28.6007 182.762 39.6354C182.432 40.3162 182.274 41.0724 182.302 41.8336C182.331 42.5947 182.545 43.336 182.926 43.9881C186.152 50.8498 187.939 58.3409 188.171 65.969C188.237 67.3611 188.446 68.4272 189.62 69.4662C198.078 76.9357 200.019 85.9807 195.351 96.4857C190.682 106.991 182.349 113.74 172.192 118.127C171.176 118.562 170.474 119.315 169.051 119.811C175.28 122.908 181.254 123.451 187.41 121.387C187.286 121.706 187.81 121.251 187.41 121.387C187.41 114.678 195.849 111.561 195.921 105.028C195.921 102.821 196.124 99.9964 199.468 99.9624C202.268 99.9624 204.852 102.489 205.369 105.775C205.855 108.865 205.179 111.819 204.222 114.678C204.432 114.874 204.563 115.105 204.707 115.119C212.346 115.594 214.28 117.788 213.775 125.692C213.625 128.062 213.507 130.411 213.507 132.781C213.507 138.254 209.949 140.556 205.586 141.473C200.769 141.914 191.918 142.933 185.692 144.522C182.41 144.522 179.044 144.957 175.431 143.843C176.847 151.312 177.982 158.612 177.759 166.041C174.877 166.35 171.972 166.35 169.091 166.041C169.792 151.951 167.694 138.39 161.937 125.522C161.229 123.94 160.868 122.297 158.239 123.084C147.092 126.405 135.808 125.963 124.616 123.152C122.695 122.663 121.901 123.105 121.108 124.823C117.997 131.531 115.922 138.703 114.958 146.077C114.676 148.189 115.272 149.235 117.207 150.151C124.026 153.499 125.894 159.332 122.557 165.98C111.836 166.449 101.103 166.286 90.3826 166.007ZM132.576 81.9879C126.432 79.6859 120.714 76.2907 114.426 74.335C107.948 72.2978 101.549 71.8361 95.4116 75.4554C90.4547 78.3753 88.1991 83.3189 89.0581 89.1044C90.3104 97.416 95.3854 103.059 101.555 107.819C108.849 113.452 117.299 117.265 126.248 118.962C147.092 123.037 166.415 119.587 183.529 106.06C188.386 102.306 191.933 97.0174 193.633 90.9922C195.6 84.0319 192.669 77.479 186.348 74.4097C180.027 71.3403 173.753 72.6917 167.543 74.7764C161.813 76.6981 156.561 79.747 151.151 82.4565C150.712 79.3871 149.053 77.8117 146.011 77.5061C143.09 77.1463 140.139 77.1463 137.218 77.5061C134.943 77.8049 132.576 78.7692 132.576 81.9879ZM178.401 35.2826C181.549 27.5889 182.893 19.9564 181.988 11.4479C177.031 15.1759 173.956 19.8749 170.756 24.4517C170.245 25.1715 169.832 25.9864 170.822 26.7605C173.753 29.0625 175.49 32.5257 178.414 35.2826H178.401ZM104.447 34.9024C105.362 33.955 106.201 32.9331 106.958 31.8466C108.335 29.4971 112.158 28.3427 111.712 25.6537C111.266 22.9646 108.84 20.7237 107.076 18.4489C105.312 16.1741 103.713 13.6344 100.86 12.3374C99.7916 20.0243 101.241 29.1508 104.46 34.9024H104.447ZM165.537 57.2093C161.662 57.2093 158.482 59.5927 156.895 63.6263C156.443 64.7943 155.872 66.0709 157.21 66.9605C158.751 67.9858 159.268 66.553 159.95 65.548C161.786 62.8318 164.153 61.3583 167.484 62.0237C169.681 62.4651 171.117 63.9251 172.415 65.6703C173.103 66.5938 174.015 67.3951 175.195 66.4987C176.231 65.7178 175.687 64.6856 175.365 63.735C174.061 59.8983 169.95 57.1685 165.55 57.2093H165.537ZM118.833 57.2704C114.715 57.2364 110.361 60.4416 109.653 64.0609C109.489 64.9233 109.253 65.8876 110.223 66.4715C111.194 67.0555 111.784 66.5734 112.492 65.874C118.098 60.3872 119.855 60.3736 125.429 65.7382C126.137 66.4172 126.852 66.845 127.743 66.3493C128.747 65.7857 128.458 64.8961 128.183 63.9862C127.16 60.5162 122.74 57.2975 118.846 57.2704H118.833Z" fill="url(#paint0_linear_65_350)"/>
<path d="M151.177 82.4292C156.567 79.713 161.819 76.6708 167.569 74.7491C173.779 72.6644 180.027 71.2996 186.374 74.3825C192.721 77.4654 195.633 84.0046 193.659 90.9649C191.95 96.9855 188.397 102.267 183.535 106.013C166.422 119.594 147.099 122.989 126.255 118.915C117.306 117.218 108.855 113.404 101.562 107.771C95.392 103.018 90.317 97.3684 89.0647 89.0568C88.1926 83.2712 90.4613 78.3277 95.4182 75.4078C101.562 71.7885 107.961 72.2706 114.433 74.2874C120.721 76.243 126.439 79.6383 132.582 81.9403C133.626 84.9311 135.527 87.5206 138.031 89.3624C139.008 90.0414 140.208 90.5371 139.801 92.1736C139.631 92.8328 139.285 93.4288 138.802 93.8936C138.32 94.3584 137.721 94.673 137.074 94.8016C132.93 96.0035 129.094 95.5282 125.816 92.3502C125.226 91.7798 124.78 90.4149 123.849 91.0668C122.918 91.7187 123.403 92.9206 124.026 93.749C127.12 97.8234 129.396 102.509 132.32 106.705C136.411 112.579 145.047 113.306 149.866 108.131C153.8 103.901 156.39 98.5771 159.701 93.8373C160.232 93.0768 160.6 91.9767 159.839 91.3656C158.764 90.5032 158.469 91.9835 157.918 92.4996C154.423 95.7794 149.112 96.7708 145.499 94.7405C142.962 93.3144 142.785 91.3452 145.125 89.7358C147.811 87.9919 149.922 85.4437 151.177 82.4292Z" fill="#F0EFEE"/>
<path d="M169.117 166.021H122.563C125.901 159.373 124.032 153.54 117.213 150.192C115.279 149.248 114.682 148.202 114.964 146.118C115.934 138.735 118.019 131.556 121.141 124.843C121.934 123.125 122.727 122.684 124.648 123.173C135.841 125.984 147.112 126.425 158.272 123.105C160.895 122.317 161.262 123.96 161.97 125.542C167.72 138.37 169.818 151.93 169.117 166.021Z" fill="#F0EFEE"/>
<path d="M151.177 82.4291C149.929 85.4612 147.818 88.0268 145.125 89.7833C142.785 91.3655 142.962 93.3619 145.499 94.7879C149.112 96.8251 154.423 95.8269 157.918 92.547C158.468 92.031 158.763 90.5506 159.839 91.413C160.599 92.0242 160.232 93.1242 159.701 93.8848C156.377 98.6381 153.8 103.948 149.866 108.179C145.047 113.353 136.411 112.627 132.32 106.753C129.395 102.556 127.12 97.9251 124.025 93.7965C123.403 92.968 122.852 91.7933 123.848 91.1142C124.845 90.4352 125.245 91.8272 125.815 92.3976C129.094 95.5756 132.93 96.0509 137.074 94.849C137.721 94.7205 138.32 94.4058 138.802 93.941C139.284 93.4763 139.631 92.8802 139.801 92.2211C140.208 90.5846 139.008 90.1092 138.031 89.4098C135.525 87.569 133.622 84.9795 132.576 81.9877C132.576 78.769 134.929 77.8048 137.231 77.4585C140.152 77.0986 143.103 77.0986 146.024 77.4585C149.079 77.7844 150.738 79.3598 151.177 82.4291ZM141.709 109.292C145.774 109.367 146.876 108.423 147.486 104.274C147.617 103.392 147.702 102.488 147.755 101.592C147.827 100.336 149.066 98.4684 147.617 97.9591C145.925 97.3751 143.893 96.0781 142.05 97.4362C141.198 98.0677 141.231 98.2375 140.214 97.4362C139.843 97.1548 139.42 96.9553 138.972 96.8502C138.523 96.745 138.059 96.7364 137.607 96.8249C137.155 96.9134 136.725 97.0971 136.345 97.3646C135.965 97.6322 135.641 97.9778 135.395 98.3801C133.126 102.733 137.041 109.204 141.709 109.292Z" fill="#322C29"/>
<path d="M178.414 35.2826C175.49 32.5257 173.752 29.0625 170.835 26.7605C169.845 25.9864 170.258 25.1716 170.769 24.4518C173.969 19.8749 177.044 15.1759 182.001 11.4479C182.906 19.9564 181.562 27.589 178.414 35.2826Z" fill="#322C29"/>
<path d="M104.46 34.9022C101.241 29.1506 99.785 20.0242 100.873 12.3373C103.726 13.6343 105.332 16.1671 107.089 18.4488C108.847 20.7304 111.292 23.046 111.725 25.6535C112.158 28.2611 108.348 29.497 106.971 31.8465C106.214 32.933 105.375 33.9549 104.46 34.9022Z" fill="#322C29"/>
<path d="M165.55 57.2091C169.956 57.1683 174.074 59.9253 175.385 63.7348C175.706 64.6854 176.251 65.7176 175.215 66.4985C174.034 67.3949 173.123 66.5936 172.434 65.6701C171.123 63.9249 169.7 62.4649 167.504 62.0235C164.173 61.3445 161.806 62.8452 159.97 65.5478C159.314 66.5528 158.77 67.9856 157.229 66.9603C155.918 66.0707 156.462 64.7941 156.915 63.6261C158.495 59.5925 161.675 57.2362 165.55 57.2091Z" fill="#322C29"/>
<path d="M118.846 57.2704C122.734 57.2704 127.16 60.5027 128.196 63.993C128.471 64.903 128.76 65.7925 127.756 66.3561C126.865 66.8519 126.15 66.4308 125.442 65.745C119.868 60.3805 118.111 60.394 112.505 65.8808C111.797 66.5599 111.161 67.042 110.237 66.4784C109.312 65.9148 109.502 64.9301 109.666 64.0677C110.374 60.4416 114.728 57.2365 118.846 57.2704Z" fill="#322C29"/>
<path d="M141.709 109.293C137.041 109.204 133.126 102.733 135.395 98.3734C135.641 97.9711 135.965 97.6255 136.345 97.358C136.726 97.0905 137.155 96.9067 137.607 96.8182C138.059 96.7297 138.523 96.7383 138.972 96.8435C139.42 96.9486 139.843 97.1481 140.214 97.4295C141.231 98.2376 141.198 98.0678 142.05 97.4295C143.893 96.0714 145.925 97.3684 147.617 97.9524C149.073 98.4617 147.827 100.329 147.755 101.585C147.702 102.482 147.617 103.385 147.486 104.268C146.876 108.423 145.775 109.367 141.709 109.293Z" fill="#322C29"/>
<path d="M142.086 94.9159C143.12 95.3228 144.182 95.748 145.161 96.2819C145.948 96.764 147.561 97.1851 147.561 97.1851C147.609 97.9194 147.493 98.6553 147.222 99.3358C146.952 100.016 146.534 100.623 146 101.11C144.886 102.101 143.424 102.427 142.086 101.171V94.9159Z" fill="#ECECE9"/>
<path d="M141.863 101.382C140.355 102.658 139.109 101.999 138.02 100.757C137.107 99.5811 136.579 98.1352 136.512 96.6282C138.448 96.4672 140.32 95.8342 141.974 94.7811C141.935 96.9858 141.898 99.1859 141.863 101.382Z" fill="#ECECE9"/>
<path d="M141.863 101.382C141.893 99.1859 141.931 96.9858 141.974 94.7811L142.138 101.382H141.863Z" fill="#322C29"/>
<path d="M141.691 110.338C140.904 110.319 140.129 110.129 139.415 109.78C138.701 109.432 138.062 108.932 137.54 108.312C136.98 107.661 137.044 107.101 137.786 106.704C140.361 105.33 142.945 105.133 145.575 106.608C146.429 107.092 146.655 107.627 145.845 108.463C145.307 109.052 144.662 109.522 143.949 109.844C143.235 110.166 142.467 110.334 141.691 110.338ZM141.369 109.92C142.08 109.957 142.791 109.829 143.45 109.546C144.109 109.264 144.702 108.832 145.187 108.283C145.702 107.748 145.639 107.301 145.052 106.888C143.635 105.885 139.782 105.952 138.338 106.963C137.683 107.427 137.726 107.89 138.266 108.316C139.326 109.131 140.453 109.858 141.361 109.9L141.369 109.92Z" fill="#9C664C"/>
<path d="M141.102 109.999C139.791 109.659 139.404 109.186 138.319 108.431C137.766 108.054 137.649 107.4 138.319 106.981C139.791 105.925 143.725 105.925 145.196 106.913C145.797 107.291 145.862 107.691 145.334 108.174C144.838 108.671 144.4 109.404 143.725 109.659C143.05 109.915 141.831 110.032 141.102 109.999Z" fill="#C35F46"/>
</g>
<defs>
<filter id="filter0_d_65_350" x="-9.72748e-05" y="2.47955e-05" width="227.751" height="191.176" filterUnits="userSpaceOnUse" color-interpolation-filters="sRGB">
<feFlood flood-opacity="0" result="BackgroundImageFix"/>
<feColorMatrix in="SourceAlpha" type="matrix" values="0 0 0 0 0 0 0 0 0 0 0 0 0 0 0 0 0 0 127 0" result="hardAlpha"/>
<feOffset dy="11"/>
<feGaussianBlur stdDeviation="6.95"/>
<feComposite in2="hardAlpha" operator="out"/>
<feColorMatrix type="matrix" values="0 0 0 0 0 0 0 0 0 0 0 0 0 0 0 0 0 0 0.25 0"/>
<feBlend mode="normal" in2="BackgroundImageFix" result="effect1_dropShadow_65_350"/>
<feBlend mode="normal" in="SourceGraphic" in2="effect1_dropShadow_65_350" result="shape"/>
</filter>
<linearGradient id="paint0_linear_65_350" x1="113.875" y1="2.90002" x2="113.875" y2="166.276" gradientUnits="userSpaceOnUse">
<stop stop-color="#E29A3C"/>
<stop offset="1" stop-color="#D34D44"/>
</linearGradient>
</defs>
</svg>
