<svg width="245" height="212" viewBox="0 0 245 212" fill="none" xmlns="http://www.w3.org/2000/svg">
<path d="M60.3389 196.443C72.7965 196.755 85.2541 196.908 97.7041 196.443H151.768C155.115 196.79 158.488 196.79 161.835 196.443C175.655 196.497 189.484 196.489 203.304 196.672C206.183 196.672 205.863 195.05 205.863 193.253C205.908 177.414 206.023 161.568 206.015 145.73C206.015 122.406 205.848 99.0897 205.916 75.766C205.916 72.88 205.01 71.1211 202.71 69.522C195.004 64.1917 187.481 58.6178 179.76 53.2494C177.711 51.8255 143.918 28.9357 143.918 28.9357C143.918 28.9357 155.355 23.9633 156.101 19.7981C156.629 19.9238 181.484 36.2307 181.968 36.4743C201.827 50.3178 221.671 64.1841 241.499 78.0732C244.835 80.4186 245.505 83.6396 244.035 87.1347C242.139 91.6426 237.357 93.2264 232.986 90.5537C228.935 88.0485 225.113 85.1777 220.574 82.0481C220.574 84.0355 220.574 85.3681 220.574 86.7007C220.716 119.779 220.854 152.854 220.986 185.927C220.986 191.631 220.871 197.349 220.826 203.038C220.772 209.457 218.313 211.97 211.833 211.977C179.343 212.008 146.867 212.008 114.403 211.977C86.6146 211.977 58.8312 211.962 31.0529 211.931C23.0499 211.931 20.735 209.822 20.6208 201.964C20.4761 192.537 20.1868 107.208 20.6208 97.6898C24.4967 103.85 30.0706 90.9876 35.5684 95.564C35.5684 95.564 35.7131 191.912 35.5684 192.994C35.1877 195.773 36.0862 196.74 39.0483 196.618C46.1376 196.436 53.2344 196.512 60.3389 196.443Z" fill="url(#paint0_linear_66_840)"/>
<path d="M125.102 0C127.387 0.112583 129.594 0.870304 131.467 2.18542C139.28 7.80504 148.189 14.3232 156.101 19.7981C157.967 21.4657 157.966 21.4581 155.37 23.1867C154.569 23.8079 153.832 24.5068 153.169 25.2731C147.192 31.2963 143.918 28.9357 143.918 28.9357C139.935 26.2478 131.962 21.1916 128.17 18.2524C126.13 16.6761 124.713 16.9655 122.84 18.3285C117.335 22.3719 69.4233 52.2442 63.9636 56.3485C61.5722 53.9106 39.5967 56.3485 39.5967 56.3485C39.5967 56.3485 94.4375 19.4174 95.9452 18.3285C104.362 12.2368 111.413 7.90911 119.779 1.78184C121.345 0.689133 123.193 0.0705371 125.102 0Z" fill="#D3FFF6"/>
<path d="M47.8401 136.304C48.8605 128.947 48.3419 121.459 46.3172 114.313C44.4744 107.787 40.7433 102.891 33.753 101.292C26.0013 99.5251 17.6251 105.937 17.0007 113.879C16.4372 121.28 18.8816 127.212 25.1408 131.392C25.3495 131.547 25.5433 131.72 25.7195 131.91C25.7652 131.956 25.7195 132.07 25.7728 132.405C21.8398 132.356 18.0394 130.976 14.9905 128.491C1.17745 117.998 -2.78216 104.467 1.84756 87.5929C7.29204 67.7491 21.2726 56.6165 41.1545 53.167C50.8009 51.5369 60.7159 53.1122 69.382 57.652C69.9223 57.9381 70.4437 58.2586 70.943 58.6115C71.2083 58.8079 71.4625 59.0189 71.7045 59.2435C71.6588 59.4263 71.6664 59.5329 71.6207 59.5785C66.6788 63.9951 66.6255 64.7641 71.0496 69.8279C75.231 74.7865 80.6056 78.5992 86.6673 80.9072C87.4288 81.1737 88.1902 82.0723 88.7994 80.694C89.4086 79.3157 88.6243 78.9426 87.6648 78.5467C82.0945 76.2133 77.1419 72.6188 73.197 68.0461C72.6792 67.4597 72.207 66.8277 71.674 66.249C70.2805 64.7261 70.4633 63.462 72.3061 62.5178C83.7281 56.6393 95.6221 53.2051 108.552 56.8297C110.11 57.284 111.771 57.2414 113.303 56.7078C126.035 52.7253 138.813 52.337 151.529 56.8297C153.178 57.3778 154.959 57.3778 156.608 56.8297C165.944 54.2559 175.013 55.0783 183.96 58.7485C187.006 60.0049 190.006 61.3832 192.998 62.7615C194.658 63.5229 194.91 64.5052 193.699 66.0129C189.199 71.6326 183.929 76.2166 177.053 78.6457C175.294 79.2701 175.272 80.1686 175.919 81.5849C178.688 87.4423 180.192 93.8169 180.335 100.294C180.335 103.82 182.932 105.746 184.904 107.909C190.432 113.856 191.521 120.625 188.894 128.012C187.889 130.684 187.626 133.578 188.133 136.388C189.435 144.002 187.371 150.901 183.396 157.305C180.389 162.194 176.977 166.778 171.974 169.953C171.792 169.656 171.617 169.511 171.632 169.39C172.393 164.059 170.657 162.3 165.54 163.298C163.857 163.726 162.072 163.48 160.568 162.613C158.617 161.453 156.516 160.566 154.324 159.978C153.958 157.305 152.435 156.536 149.953 157.29C149.382 157.465 148.78 157.556 148.194 157.686L132.721 154.96C133.947 154.054 135.386 154.465 136.726 154.374C151.369 153.422 164.672 148.853 176.17 139.593C180.835 135.991 184.175 130.943 185.666 125.24C187.615 117.572 183.739 110.818 176.124 108.617C174.556 108.168 172.957 107.817 171.373 107.429C172.241 104.025 172.203 103.782 168.814 103.477C161.687 102.83 155.062 100.561 148.59 97.6899C147.668 97.2787 146.671 96.5173 145.772 97.6899C144.874 98.8626 145.437 99.9743 146.404 100.865C146.046 109.371 155.108 115.607 162.852 112.082C165.068 111.077 167.489 109.972 167.672 106.927L171.045 107.482C168.06 115.097 161.55 118.767 154.666 115.721C150.996 114.1 148.521 115.417 145.666 116.795C144.904 117.161 144.265 117.815 143.381 117.869C142.62 115.211 140.693 113.94 138.051 113.46C135.039 112.981 131.971 112.981 128.959 113.46C126.172 113.825 124.192 114.983 123.576 117.884C121.702 117.678 120.225 116.521 118.573 115.79C117.752 115.37 116.848 115.137 115.926 115.108C115.005 115.079 114.088 115.255 113.243 115.622C106.663 118.265 100.343 115.798 96.7796 109.615C96.4141 108.983 96.2999 108.198 95.31 107.97C89.2182 106.546 80.0197 112.539 78.9004 118.889C77.6668 125.872 80.5527 131.491 85.3119 136.273C95.5612 146.576 108.194 151.883 122.441 153.787C125.327 154.168 128.281 153.993 131.084 154.967C126.462 155.295 121.786 157.336 117.294 154.335C115.771 153.3 114.027 153.026 112.39 154.191C110.753 155.356 110.585 157.069 110.829 158.881C111.072 160.694 112.435 163.001 109.07 163.701C108.308 163.861 108.582 165.095 108.681 165.856C109.07 168.948 110.966 171.088 113.372 172.778C117.88 175.908 123.035 177.042 128.396 177.492C129.226 177.531 130.055 177.38 130.819 177.052C131.582 176.723 132.262 176.225 132.805 175.596C133.223 175.145 133.737 174.795 134.309 174.571C134.881 174.347 135.497 174.255 136.109 174.301C137.868 174.461 137.632 175.778 137.746 177.02C137.83 178.116 138.896 178.245 139.703 178.436C141.988 178.992 143.732 180.149 144.189 182.609C144.699 185.327 143.526 187.345 141.356 188.876C139.764 189.995 138.074 190.977 136.102 191.031C130.01 191.183 123.918 192.074 117.826 191.602C112.863 191.282 107.998 190.07 103.465 188.023C94.6627 183.964 92.0889 176.395 93.8099 167.174C94.7084 162.361 97.0765 158.204 100.138 154.419C100.61 153.84 101.805 153.224 100.678 152.31C99.6732 151.503 98.7365 151.944 97.9827 152.881C92.561 159.628 89.736 167.273 90.9391 175.915C91.8529 182.464 95.7897 187.109 101.714 190.109C102.818 190.665 104.76 190.604 104.638 192.523C104.478 194.693 102.003 196.833 99.8559 196.841C90.3528 196.841 80.8573 196.841 71.3542 196.841C69.9553 196.828 68.5844 196.447 67.3794 195.736C59.8104 191.564 54.0232 185.761 50.787 177.621C50.3682 176.57 50.1017 175.443 48.9366 174.918C45.6928 165.377 47.3452 146.127 47.8401 136.304ZM99.1401 107.383C100.478 109.542 102.498 111.193 104.879 112.076C107.261 112.959 109.869 113.022 112.291 112.257C114.7 111.453 116.79 109.9 118.255 107.825C119.719 105.75 120.482 103.26 120.431 100.721C121.192 99.8906 122.152 98.9997 121.192 97.827C120.233 96.6543 119.113 97.3473 118.085 97.827C113.204 100.116 108.058 101.794 102.765 102.822C100.724 103.18 98.6299 103.279 96.574 103.584C96.3502 103.58 96.1285 103.627 95.9246 103.719C95.7206 103.811 95.5395 103.947 95.3941 104.117C95.2487 104.287 95.1426 104.487 95.0833 104.703C95.024 104.919 95.013 105.145 95.0511 105.366C95.0437 105.851 95.2214 106.321 95.5481 106.68C95.8748 107.04 96.326 107.261 96.81 107.3C97.5715 107.391 98.3558 107.361 99.1401 107.383ZM163.918 64.8326C167.055 67.947 169.781 70.6198 171.601 74.016C172.241 75.1962 173.056 75.5389 174.388 75.1124C178.634 73.7583 182.544 71.5155 185.856 68.5334C187.211 67.3836 186.709 66.683 185.292 66.1881C182.632 65.3606 179.895 64.8069 177.122 64.5357C172.731 63.9622 168.279 64.0623 163.918 64.8326ZM100.29 65.3809C100.16 64.5433 99.5818 64.5129 99.0868 64.4443C92.6892 63.7266 86.2124 64.3173 80.0502 66.1804C78.3902 66.6449 78.1922 67.4293 79.5171 68.6781C82.8171 71.6644 86.7392 73.8803 91 75.1657C91.2375 75.2786 91.4962 75.34 91.759 75.3459C92.0219 75.3518 92.2831 75.3021 92.5254 75.2C92.7677 75.0979 92.9856 74.9458 93.165 74.7535C93.3444 74.5612 93.4811 74.3333 93.5662 74.0845C95.0621 71.1292 97.0971 68.4795 99.5665 66.2718C99.8266 65.9907 100.068 65.6932 100.29 65.3809Z" fill="url(#paint1_linear_66_840)"/>
<path d="M143.335 117.838C144.249 117.785 144.858 117.13 145.619 116.765C148.475 115.386 150.95 114.069 154.62 115.691C161.473 118.737 168.014 115.105 170.999 107.452H171.167L171.327 107.399C172.91 107.787 174.509 108.16 176.078 108.587C183.693 110.787 187.569 117.541 185.619 125.209C184.131 130.911 180.794 135.959 176.131 139.563C164.633 148.822 151.33 153.391 136.687 154.343C135.347 154.434 133.908 154.023 132.682 154.929L130.999 154.876C128.197 153.901 125.243 154.115 122.357 153.696C108.11 151.815 95.4769 146.508 85.2275 136.182C80.4684 131.4 77.6128 125.781 78.816 118.798C79.9353 112.44 89.1186 106.454 95.2256 107.878C96.2155 108.107 96.3297 108.891 96.6952 109.523C100.259 115.706 106.594 118.173 113.158 115.531C114.004 115.163 114.92 114.987 115.842 115.016C116.764 115.045 117.668 115.278 118.488 115.699C120.141 116.46 121.618 117.587 123.491 117.8C124.88 121.111 127.278 123.898 130.344 125.765C130.722 125.959 131.037 126.257 131.25 126.624C131.463 126.991 131.567 127.412 131.548 127.836C131.837 133.304 131.867 133.296 126.598 135.314C126.264 135.415 125.939 135.539 125.623 135.687C124.74 136.159 123.94 136.753 124.344 137.918C124.748 139.083 125.745 139.03 126.72 138.725C128.496 138.274 130.163 137.472 131.624 136.365C132.911 135.268 133.908 135.603 135.104 136.296C136.741 137.256 138.332 138.36 140.236 138.779C141.18 138.992 142.063 138.908 142.391 137.88C142.718 136.852 142.14 136.251 141.203 135.885C139.992 135.413 138.759 134.964 137.601 134.362C134.319 132.71 133.999 127.273 137.091 125.286C139.981 123.612 142.191 120.976 143.335 117.838Z" fill="#ECECE9"/>
<path d="M132.834 172.26C130.9 174.788 128.532 175.679 125.311 174.819C121.1 173.692 116.836 172.877 113.387 169.915C111.81 168.567 111.338 167.196 112.671 165.437C113.904 163.808 114.377 162.117 113.31 160.107C112.976 159.303 112.825 158.434 112.869 157.564C112.823 155.615 114.125 154.655 115.443 155.98C118.824 159.391 122.654 157.792 126.423 157.64C138.399 157.051 150.307 159.745 160.864 165.43C162.341 166.191 163.628 166.648 165.227 165.871C165.947 165.555 166.725 165.392 167.512 165.392C169.743 165.308 170.222 166.039 169.37 168.057C169.309 168.217 169.293 168.438 169.179 168.529C165.844 171.293 166.689 175.055 166.666 178.649C166.707 184.672 165.431 190.631 162.928 196.109C161.595 198.965 160.232 201.683 161.473 204.98C161.846 205.97 162.113 207.463 161.108 208.156C159.973 208.917 158.549 208.156 157.826 207.288C155.427 204.524 152.572 205.864 149.808 206.054C137.358 206.93 125.54 204.676 114.506 198.759C112.876 197.884 111.414 197.389 109.587 198.135C108.665 198.401 107.699 198.477 106.747 198.356C105.559 198.31 105.071 197.594 105.3 196.429C105.38 195.866 105.575 195.325 105.874 194.841C106.173 194.356 106.568 193.939 107.036 193.614C107.503 193.29 108.033 193.065 108.591 192.955C109.149 192.844 109.724 192.85 110.28 192.972C119.288 194.815 128.304 194.16 137.32 193.117C139.652 192.729 141.822 191.671 143.564 190.071C147.142 187.132 147.257 183.461 145.848 179.464C147.371 179.121 148.551 178.131 150.272 177.019C147.896 176.745 146.427 177.301 145.239 178.672C143.899 177.766 142.711 176.616 141.089 176.174C140.809 176.093 140.558 175.932 140.366 175.712C140.174 175.492 140.05 175.222 140.007 174.933C139.299 172.192 137.319 171.4 134.677 171.773C133.223 171.011 133.558 168.773 131.631 168.186C131.648 169.629 132.065 171.039 132.834 172.26ZM163.293 173.57C159.486 178.565 156.12 193.49 157.818 197.792C162.867 192.591 164.435 182.867 163.286 173.57H163.293Z" fill="#ECECE9"/>
<path d="M201.39 91.1107C203.218 91.1107 205.038 91.1107 206.865 91.1107C207.786 91.1107 208.388 91.4305 208.388 92.4204C208.421 92.6153 208.409 92.815 208.353 93.0046C208.298 93.1943 208.2 93.3688 208.067 93.5153C207.935 93.6618 207.771 93.7764 207.588 93.8506C207.404 93.9247 207.207 93.9564 207.01 93.9434C203.964 93.9434 200.918 94.0576 197.872 93.8748C196.189 93.7758 196.349 92.4966 196.928 91.3467C198.14 89.136 199.552 87.0409 201.146 85.0875C201.862 84.1128 202.593 83.1458 203.674 81.699C201.679 81.699 200.096 81.6381 198.519 81.699C197.385 81.7599 196.996 81.3563 196.996 80.2217C196.996 79.0871 197.689 79.0186 198.519 79.011C201.047 79.011 203.575 78.9653 206.134 79.011C206.796 79.011 207.604 78.7673 208.007 79.5669C208.411 80.3664 208.083 81.2345 207.528 81.9731C205.578 84.5113 203.644 87.0825 201.725 89.6868C201.522 89.8551 201.379 90.0853 201.318 90.3424C201.258 90.5995 201.283 90.8693 201.39 91.1107Z" fill="#121826"/>
<path d="M189.732 90.0218C188.384 90.0218 187.127 90.0218 185.871 90.0218C185.186 90.0218 184.63 89.8467 184.561 89.0852C184.47 88.1486 185.117 87.905 185.886 87.8974C187.973 87.8974 190.051 87.8974 192.138 87.8974C192.709 87.8974 193.409 87.7374 193.729 88.4608C194.049 89.1842 193.562 89.7477 193.135 90.3112C191.338 92.5956 189.572 94.9638 187.805 97.2634C188.566 98.2457 189.427 97.6518 190.089 97.8573C191.338 98.2229 193.699 96.8522 193.699 98.8701C193.699 101.246 191.27 99.6316 189.96 99.9514C188.753 100.093 187.534 100.093 186.328 99.9514C184.127 99.9057 183.708 99.2356 184.889 97.2862C185.879 95.6643 187.12 94.1947 188.178 92.6108C188.711 91.9027 189.549 91.3087 189.732 90.0218Z" fill="#121826"/>
<path d="M168.665 181.99C169.593 185.166 169.301 192.523 169.667 195.257C169.766 196.018 169.667 196.458 169.667 196.458C169.667 196.458 167.958 196.488 167.522 196.458H164.096C164.096 196.458 165.619 194.555 165.619 193.793L168.665 181.99Z" fill="#D45343"/>
<path d="M148.187 157.686C148.773 157.556 149.374 157.465 149.946 157.29C152.428 156.528 153.951 157.29 154.316 159.978L148.187 157.686Z" fill="#D76341"/>
<path d="M145.179 178.702C146.367 177.332 147.836 176.776 150.212 177.05C148.491 178.162 147.334 179.152 145.788 179.494C145.308 179.441 145.194 179.113 145.179 178.702Z" fill="#444444"/>
<path d="M132.834 172.26C132.062 171.051 131.638 169.652 131.608 168.217C133.512 168.803 133.177 171.08 134.654 171.803C134.129 172.336 133.459 172.199 132.834 172.26Z" fill="#444444"/>
<path d="M48.7617 187.284C48.8226 187.284 48.8988 187.208 48.9521 187.223C49.0054 187.238 49.0282 187.322 49.0663 187.376L48.7693 187.482L48.7617 187.284Z" fill="#7AA99B"/>
<path d="M209.728 76.803L210.314 77.1456C210.207 77.2903 210.108 77.4426 210.009 77.5949L209.507 77.0543L209.728 76.803Z" fill="#7AA99B"/>
<path d="M143.335 117.839C142.228 120.987 140.051 123.647 137.183 125.354C134.091 127.342 134.411 132.778 137.693 134.431C138.85 135.017 140.084 135.466 141.295 135.954C142.231 136.319 142.818 136.959 142.483 137.949C142.148 138.939 141.272 139.061 140.328 138.847C138.424 138.429 136.833 137.324 135.195 136.365C133.962 135.649 133.002 135.337 131.716 136.434C130.255 137.54 128.588 138.343 126.812 138.794C125.837 139.099 124.855 139.22 124.436 137.987C124.017 136.753 124.832 136.228 125.715 135.756C126.031 135.608 126.356 135.483 126.69 135.383C131.959 133.365 131.929 133.372 131.639 127.905C131.658 127.481 131.555 127.06 131.342 126.693C131.128 126.326 130.814 126.028 130.436 125.834C127.37 123.967 124.972 121.179 123.583 117.869C124.2 114.96 126.18 113.803 128.967 113.437C131.978 112.958 135.047 112.958 138.058 113.437C140.647 113.909 142.551 115.181 143.335 117.839Z" fill="#424342"/>
<path d="M171.357 107.429L171.197 107.482H171.03L167.657 106.926C165.997 107.353 164.024 105.609 162.6 107.65C160.575 110.543 157.689 111.168 154.506 110.429C153.032 110.124 151.699 109.342 150.714 108.204C149.728 107.066 149.145 105.635 149.054 104.132C148.833 102.167 147.927 101.429 146.389 100.865C145.422 99.9514 144.782 98.931 145.757 97.6898C146.732 96.4486 147.653 97.3091 148.574 97.6898C155.047 100.561 161.671 102.83 168.799 103.477C172.187 103.782 172.225 104.025 171.357 107.429ZM150.333 102.693C151.247 105.739 152.488 106.18 154.681 104.216L150.333 102.693Z" fill="#424342"/>
<path d="M99.1396 107.383C98.3781 107.383 97.571 107.383 96.7943 107.315C96.3169 107.273 95.8728 107.053 95.5498 106.699C95.2269 106.345 95.0487 105.883 95.0505 105.404C95.0124 105.183 95.0235 104.957 95.0827 104.741C95.142 104.525 95.2482 104.325 95.3936 104.155C95.539 103.985 95.7201 103.849 95.924 103.757C96.1279 103.665 96.3497 103.618 96.5734 103.622C98.6294 103.302 100.723 103.203 102.764 102.86C108.057 101.832 113.203 100.154 118.085 97.865C119.113 97.4081 120.255 96.7837 121.192 97.865C122.128 98.9463 121.253 99.9286 120.43 100.759C119.014 101.452 118.146 102.19 117.94 104.14C117.438 109.31 111.559 112.333 106.975 110.064C106.457 109.812 105.574 109.302 105.612 109.066C106.016 106.188 103.632 107.025 102.376 106.782C101.378 106.553 100.221 107.147 99.1396 107.383ZM112.283 104.238C114.567 105.967 115.328 105.693 116.684 102.662L112.283 104.238Z" fill="#424342"/>
<path d="M163.918 64.8326C168.278 64.0623 172.731 63.9622 177.122 64.5356C179.894 64.8069 182.632 65.3605 185.292 66.188C186.709 66.6829 187.211 67.3835 185.856 68.5333C182.544 71.5155 178.634 73.7582 174.388 75.1124C173.056 75.5007 172.241 75.1962 171.601 74.0159C169.781 70.6198 167.055 67.947 163.918 64.8326Z" fill="#424342"/>
<path d="M100.29 65.381C100.056 65.6945 99.8016 65.9921 99.5284 66.272C97.059 68.4796 95.024 71.1293 93.528 74.0846C93.443 74.3334 93.3063 74.5614 93.1269 74.7536C92.9475 74.9459 92.7295 75.0981 92.4872 75.2002C92.2449 75.3023 91.9838 75.352 91.7209 75.3461C91.458 75.3402 91.1994 75.2788 90.9619 75.1659C86.701 73.8804 82.7789 71.6645 79.479 68.6782C78.154 67.4294 78.352 66.6451 80.012 66.1806C86.1743 64.3174 92.651 63.7267 99.0487 64.4445C99.6198 64.513 100.16 64.5434 100.29 65.381Z" fill="#424342"/>
<path d="M99.1396 107.383C100.221 107.147 101.378 106.553 102.376 106.759C103.632 107.01 106.016 106.172 105.612 109.043C105.612 109.31 106.457 109.805 106.975 110.041C111.544 112.325 117.438 109.279 117.94 104.117C118.131 102.167 119.014 101.429 120.43 100.736C120.478 103.273 119.714 105.759 118.25 107.831C116.785 109.903 114.697 111.454 112.29 112.257C109.868 113.022 107.261 112.958 104.879 112.076C102.497 111.193 100.478 109.542 99.1396 107.383Z" fill="#ECECE9"/>
<path d="M146.389 100.835C147.912 101.398 148.833 102.137 149.054 104.101C149.145 105.604 149.728 107.035 150.714 108.173C151.699 109.312 153.032 110.094 154.506 110.399C157.689 111.16 160.598 110.513 162.601 107.619C164.025 105.579 165.997 107.322 167.657 106.896C167.474 109.942 165.053 111.046 162.837 112.051C155.093 115.577 146.069 109.34 146.389 100.835Z" fill="white"/>
<path d="M163.286 173.57C164.436 182.868 162.868 192.607 157.812 197.792C156.113 193.49 159.487 178.565 163.286 173.57Z" fill="#444444"/>
<path d="M44.428 182.974C44.329 183.21 44.2605 183.492 44.2072 183.484C43.9776 183.449 43.7528 183.388 43.5371 183.301C43.598 183.149 43.6437 182.89 43.7275 182.875C43.9644 182.876 44.2 182.91 44.428 182.974Z" fill="#424342"/>
<path d="M150.334 102.693L154.682 104.216C152.489 106.165 151.248 105.762 150.334 102.693Z" fill="#ECECE9"/>
<path d="M112.282 104.239L116.683 102.662C115.343 105.693 114.582 105.967 112.282 104.239Z" fill="#ECECE9"/>
<defs>
<linearGradient id="paint0_linear_66_840" x1="132.666" y1="35.9185" x2="132.948" y2="202.169" gradientUnits="userSpaceOnUse">
<stop offset="0.00961538" stop-color="#D3FFF6"/>
<stop offset="0.386101" stop-color="#AFC7C2"/>
<stop offset="1" stop-color="#29A185"/>
</linearGradient>
<linearGradient id="paint1_linear_66_840" x1="97.2274" y1="52.5413" x2="97.2274" y2="196.841" gradientUnits="userSpaceOnUse">
<stop stop-color="#E29A3C"/>
<stop offset="1" stop-color="#D34D44"/>
</linearGradient>
</defs>
</svg>
