<svg width="11" height="11" viewBox="0 0 11 11" fill="none" xmlns="http://www.w3.org/2000/svg">
<path d="M4.33333 9.47917C4.33333 9.69466 4.41894 9.90132 4.57131 10.0537C4.72368 10.2061 4.93035 10.2917 5.14583 10.2917C5.36132 10.2917 5.56798 10.2061 5.72036 10.0537C5.87273 9.90132 5.95833 9.69466 5.95833 9.47917V5.95833H9.47917C9.69466 5.95833 9.90132 5.87273 10.0537 5.72036C10.2061 5.56798 10.2917 5.36132 10.2917 5.14583C10.2917 4.93035 10.2061 4.72368 10.0537 4.57131C9.90132 4.41894 9.69466 4.33333 9.47917 4.33333H5.95833V0.8125C5.95833 0.597012 5.87273 0.390349 5.72036 0.237976C5.56798 0.0856025 5.36132 0 5.14583 0C4.93035 0 4.72368 0.0856025 4.57131 0.237976C4.41894 0.390349 4.33333 0.597012 4.33333 0.8125V4.33333H0.8125C0.597012 4.33333 0.390349 4.41894 0.237976 4.57131C0.0856025 4.72368 0 4.93035 0 5.14583C0 5.36132 0.0856025 5.56798 0.237976 5.72036C0.390349 5.87273 0.597012 5.95833 0.8125 5.95833H4.33333V9.47917Z" fill="#BA6054"/>
</svg>
