<svg width="10" height="12" viewBox="0 0 10 12" fill="none" xmlns="http://www.w3.org/2000/svg">
<path d="M5.2 0L3.46667 1.73333H0.866667C0.866667 1.73333 0 1.73333 0 2.6V10.4C0 11.2667 0.866667 11.2667 0.866667 11.2667H8.66667C8.66667 11.2667 9.53333 11.2667 9.53333 10.4V0.866667C9.53333 0 8.66667 0 8.66667 0H5.2ZM5.63333 0.866667H7.36667C7.48159 0.866667 7.59181 0.912321 7.67308 0.993587C7.75435 1.07485 7.8 1.18507 7.8 1.3C7.8 1.41493 7.75435 1.52515 7.67308 1.60641C7.59181 1.68768 7.48159 1.73333 7.36667 1.73333H5.63333C5.51841 1.73333 5.40819 1.68768 5.32692 1.60641C5.24565 1.52515 5.2 1.41493 5.2 1.3C5.2 1.18507 5.24565 1.07485 5.32692 0.993587C5.40819 0.912321 5.51841 0.866667 5.63333 0.866667ZM4.76667 4.33333C5.45623 4.33333 6.11755 4.60726 6.60514 5.09486C7.09274 5.58245 7.36667 6.24377 7.36667 6.93333C7.36667 7.6229 7.09274 8.28422 6.60514 8.77181C6.11755 9.25941 5.45623 9.53333 4.76667 9.53333C4.0771 9.53333 3.41578 9.25941 2.92819 8.77181C2.44059 8.28422 2.16667 7.6229 2.16667 6.93333C2.16667 6.24377 2.44059 5.58245 2.92819 5.09486C3.41578 4.60726 4.0771 4.33333 4.76667 4.33333Z" fill="#BA6054"/>
</svg>
