<svg width="22" height="22" viewBox="0 0 22 22" fill="none" xmlns="http://www.w3.org/2000/svg">
<path opacity="0.5" d="M11.7627 19.9842C14.6282 19.4104 18.3333 17.3488 18.3333 12.0184C18.3333 7.16829 14.7831 3.93796 12.2302 2.45387C11.6627 2.12387 11 2.55746 11 3.21287V4.88854C11 6.21037 10.4445 8.62304 8.90083 9.62679C8.1125 10.1392 7.26 9.37196 7.16467 8.43696L7.08583 7.66879C6.99417 6.77596 6.08483 6.23421 5.37167 6.77871C4.08925 7.75496 2.75 9.46912 2.75 12.0175C2.75 18.5359 7.59825 20.1666 10.0219 20.1666C10.1637 20.1666 10.3116 20.162 10.4656 20.1529C10.8744 20.1015 10.4656 20.2436 11.7627 19.9833" fill="#D60000"/>
<path d="M7.3335 16.9071C7.3335 19.3087 9.26858 20.0512 10.4657 20.1539C10.8746 20.1026 10.4657 20.2446 11.7628 19.9843C12.7152 19.6479 13.7502 18.7844 13.7502 16.9071C13.7502 15.7181 12.9994 14.9839 12.4118 14.6401C12.2322 14.5347 12.0232 14.6676 12.0076 14.8748C11.9562 15.533 11.3237 16.0573 10.8938 15.5568C10.5134 15.115 10.353 14.4687 10.353 14.0553V13.5145C10.353 13.19 10.0257 12.9736 9.74525 13.1405C8.70391 13.7574 7.3335 15.0279 7.3335 16.9071Z" fill="#D60000"/>
</svg>
