<svg width="14" height="11" viewBox="0 0 14 11" fill="none" xmlns="http://www.w3.org/2000/svg">
<path d="M1.40625 0C1.28193 0 1.1627 0.0493861 1.07479 0.137294C0.986886 0.225201 0.9375 0.34443 0.9375 0.46875V5.15625C0.9375 5.28041 0.986757 5.39949 1.07446 5.48737C1.16217 5.57526 1.28115 5.62475 1.40531 5.625H4.6875V6.33375L0.9375 7.45875V7.03219C0.937624 6.90787 0.888358 6.78859 0.800538 6.70059C0.712718 6.6126 0.593539 6.56309 0.469219 6.56297C0.407662 6.56291 0.346695 6.57497 0.2898 6.59847C0.232905 6.62197 0.181196 6.65645 0.137625 6.69993C0.0496296 6.78775 0.00012432 6.90693 0 7.03125V9.84375C0 9.96807 0.049386 10.0873 0.137294 10.1752C0.225201 10.2631 0.34443 10.3125 0.46875 10.3125C0.59307 10.3125 0.712299 10.2631 0.800206 10.1752C0.888114 10.0873 0.9375 9.96807 0.9375 9.84375V9.375C1.03619 9.37508 1.13427 9.35958 1.22812 9.32906L5.87437 7.935C6.07217 7.88042 6.24659 7.76246 6.37089 7.59921C6.49519 7.43596 6.56251 7.23644 6.5625 7.03125V5.625H8.90625C9.00187 5.62512 9.09523 5.596 9.17382 5.54153C9.25241 5.48707 9.31247 5.40988 9.34594 5.32031L11.2125 0.6525C11.2428 0.581286 11.2551 0.503666 11.2481 0.42657C11.2411 0.349475 11.2152 0.275305 11.1726 0.210683C11.13 0.146061 11.072 0.092999 11.0039 0.0562356C10.9358 0.0194723 10.8596 0.000152063 10.7822 0H1.40625ZM11.9212 1.40625L10.6088 4.6875H12.6562C12.7806 4.6875 12.8998 4.63811 12.9877 4.55021C13.0756 4.4623 13.125 4.34307 13.125 4.21875V1.87594C13.1251 1.81438 13.1131 1.7534 13.0897 1.69648C13.0662 1.63956 13.0318 1.58782 12.9884 1.54421C12.9449 1.50059 12.8933 1.46596 12.8365 1.44229C12.7797 1.41862 12.7187 1.40637 12.6572 1.40625H11.9212Z" fill="#BA6054"/>
</svg>
