<svg width="27" height="22" viewBox="0 0 27 22" fill="none" xmlns="http://www.w3.org/2000/svg">
<path fill-rule="evenodd" clip-rule="evenodd" d="M10.868 0H16.008C18.3055 0 20.1255 1.49012e-07 21.5492 0.19125C23.0142 0.38875 24.2005 0.80375 25.1367 1.73875C25.9842 2.58625 26.4055 3.64125 26.6242 4.92625C26.783 5.86375 26.8405 6.975 26.8617 8.28C26.8772 8.37509 26.8789 8.47193 26.8667 8.5675C26.87 8.925 26.8725 9.2975 26.8742 9.685C26.8749 9.93364 26.7767 10.1724 26.6014 10.3486C26.5146 10.4359 26.4114 10.5053 26.2978 10.5527C26.1842 10.6001 26.0623 10.6247 25.9392 10.625C25.6906 10.6257 25.4518 10.5275 25.2756 10.3522C25.0993 10.1768 24.9999 9.93864 24.9992 9.69V9.375H1.8767C1.8742 9.86 1.87337 10.3808 1.8742 10.9375C1.8742 13.3212 1.8767 15.015 2.0492 16.3C2.21795 17.5563 2.53545 18.2812 3.0642 18.81C3.59295 19.3388 4.31796 19.6562 5.57545 19.825C6.86046 19.9975 8.55295 20 10.9367 20H12.8117C13.0603 20 13.2988 20.0988 13.4746 20.2746C13.6504 20.4504 13.7492 20.6889 13.7492 20.9375C13.7492 21.1861 13.6504 21.4246 13.4746 21.6004C13.2988 21.7762 13.0603 21.875 12.8117 21.875H10.868C8.57045 21.875 6.75045 21.875 5.3267 21.6838C3.8617 21.4862 2.67545 21.0712 1.7392 20.1362C0.804204 19.2 0.389205 18.0138 0.191705 16.5487C0.000454541 15.1238 0.000454549 13.305 0.000454549 11.0075V10.8675C-0.00121212 10.0408 0.00170451 9.27417 0.00920451 8.5675C-0.00340116 8.47199 -0.00213808 8.37515 0.0129545 8.28C0.0329545 7.14625 0.0792045 6.1675 0.191705 5.32625C0.389205 3.86125 0.804204 2.675 1.7392 1.73875C2.67545 0.80375 3.8617 0.38875 5.3267 0.19125C6.75171 1.49012e-07 8.57045 0 10.868 0ZM1.90795 7.5H24.968C24.938 6.60625 24.8805 5.8675 24.7755 5.24C24.5967 4.1875 24.2917 3.54625 23.8105 3.065C23.2817 2.53625 22.5567 2.21875 21.2992 2.05C20.0155 1.8775 18.3217 1.875 15.938 1.875H10.938C8.5542 1.875 6.8617 1.8775 5.57545 2.05C4.3192 2.21875 3.5942 2.53625 3.06545 3.065C2.5367 3.59375 2.2192 4.31875 2.05045 5.575C1.97545 6.13125 1.93295 6.765 1.90795 7.49875M17.813 12.4987C18.0616 12.4987 18.3001 12.5975 18.4759 12.7733C18.6517 12.9492 18.7505 13.1876 18.7505 13.4362V18.6737L19.6505 17.7738C19.7363 17.6816 19.8398 17.6078 19.9548 17.5565C20.0698 17.5053 20.1939 17.4777 20.3198 17.4755C20.4457 17.4733 20.5707 17.4964 20.6875 17.5436C20.8042 17.5907 20.9102 17.6609 20.9993 17.75C21.0883 17.839 21.1585 17.945 21.2056 18.0618C21.2528 18.1785 21.2759 18.3035 21.2737 18.4294C21.2715 18.5553 21.2439 18.6794 21.1927 18.7944C21.1414 18.9094 21.0676 19.0129 20.9755 19.0987L18.4755 21.5987C18.2997 21.7743 18.0614 21.8729 17.813 21.8729C17.5645 21.8729 17.3262 21.7743 17.1505 21.5987L14.6505 19.0987C14.5583 19.0129 14.4845 18.9094 14.4332 18.7944C14.382 18.6794 14.3544 18.5553 14.3522 18.4294C14.35 18.3035 14.3731 18.1785 14.4203 18.0618C14.4675 17.945 14.5376 17.839 14.6267 17.75C14.7157 17.6609 14.8217 17.5907 14.9385 17.5436C15.0552 17.4964 15.1802 17.4733 15.3061 17.4755C15.432 17.4777 15.5561 17.5053 15.6711 17.5565C15.7861 17.6078 15.8896 17.6816 15.9755 17.7738L16.8755 18.6737V13.4375C16.8755 13.1889 16.9742 12.9504 17.15 12.7746C17.3259 12.5988 17.5643 12.5 17.813 12.5M22.7755 12.775C22.9512 12.5994 23.1895 12.5008 23.438 12.5008C23.6864 12.5008 23.9247 12.5994 24.1005 12.775L26.6005 15.275C26.6926 15.3608 26.7664 15.4643 26.8177 15.5793C26.8689 15.6943 26.8965 15.8185 26.8987 15.9443C26.9009 16.0702 26.8778 16.1953 26.8306 16.312C26.7835 16.4287 26.7133 16.5348 26.6243 16.6238C26.5352 16.7128 26.4292 16.783 26.3125 16.8302C26.1957 16.8773 26.0707 16.9005 25.9448 16.8982C25.8189 16.896 25.6948 16.8685 25.5798 16.8172C25.4648 16.766 25.3613 16.6921 25.2755 16.6L24.3755 15.7V20.9375C24.3755 21.1861 24.2767 21.4246 24.1009 21.6004C23.9251 21.7762 23.6866 21.875 23.438 21.875C23.1893 21.875 22.9509 21.7762 22.775 21.6004C22.5992 21.4246 22.5005 21.1861 22.5005 20.9375V15.7L21.6005 16.6C21.5146 16.6921 21.4111 16.766 21.2961 16.8172C21.1811 16.8685 21.057 16.896 20.9311 16.8982C20.8052 16.9005 20.6802 16.8773 20.5635 16.8302C20.4467 16.783 20.3407 16.7128 20.2517 16.6238C20.1626 16.5348 20.0925 16.4287 20.0453 16.312C19.9981 16.1953 19.975 16.0702 19.9772 15.9443C19.9794 15.8185 20.007 15.6943 20.0582 15.5793C20.1095 15.4643 20.1833 15.3608 20.2755 15.275L22.7755 12.775ZM5.00045 15.9375C5.00045 15.6889 5.09923 15.4504 5.27504 15.2746C5.45086 15.0988 5.68931 15 5.93795 15H10.938C11.1866 15 11.4251 15.0988 11.6009 15.2746C11.7767 15.4504 11.8755 15.6889 11.8755 15.9375C11.8755 16.1861 11.7767 16.4246 11.6009 16.6004C11.4251 16.7762 11.1866 16.875 10.938 16.875H5.93795C5.68931 16.875 5.45086 16.7762 5.27504 16.6004C5.09923 16.4246 5.00045 16.1861 5.00045 15.9375Z" fill="black"/>
</svg>
