<svg width="38" height="34" viewBox="0 0 38 34" fill="none" xmlns="http://www.w3.org/2000/svg">
<path d="M3.75 3.75H9.375L13.125 0H24.375L28.125 3.75H33.75C34.7446 3.75 35.6984 4.14509 36.4017 4.84835C37.1049 5.55161 37.5 6.50544 37.5 7.5V30C37.5 30.9946 37.1049 31.9484 36.4017 32.6516C35.6984 33.3549 34.7446 33.75 33.75 33.75H3.75C2.75544 33.75 1.80161 33.3549 1.09835 32.6516C0.395088 31.9484 0 30.9946 0 30V7.5C0 6.50544 0.395088 5.55161 1.09835 4.84835C1.80161 4.14509 2.75544 3.75 3.75 3.75ZM18.75 9.375C16.2636 9.375 13.879 10.3627 12.1209 12.1209C10.3627 13.879 9.375 16.2636 9.375 18.75C9.375 21.2364 10.3627 23.621 12.1209 25.3791C13.879 27.1373 16.2636 28.125 18.75 28.125C21.2364 28.125 23.621 27.1373 25.3791 25.3791C27.1373 23.621 28.125 21.2364 28.125 18.75C28.125 16.2636 27.1373 13.879 25.3791 12.1209C23.621 10.3627 21.2364 9.375 18.75 9.375ZM18.75 13.125C20.2418 13.125 21.6726 13.7176 22.7275 14.7725C23.7824 15.8274 24.375 17.2582 24.375 18.75C24.375 20.2418 23.7824 21.6726 22.7275 22.7275C21.6726 23.7824 20.2418 24.375 18.75 24.375C17.2582 24.375 15.8274 23.7824 14.7725 22.7275C13.7176 21.6726 13.125 20.2418 13.125 18.75C13.125 17.2582 13.7176 15.8274 14.7725 14.7725C15.8274 13.7176 17.2582 13.125 18.75 13.125Z" fill="#BA6054" fill-opacity="0.85"/>
</svg>
