<svg width="15" height="11" viewBox="0 0 15 11" fill="none" xmlns="http://www.w3.org/2000/svg">
<path d="M6.39062 10.1719C6.08854 9.86979 5.9375 9.5 5.9375 9.0625C5.9375 8.625 6.08854 8.25521 6.39062 7.95312C6.69271 7.65104 7.0625 7.5 7.5 7.5C7.9375 7.5 8.30729 7.65104 8.60938 7.95312C8.91146 8.25521 9.0625 8.625 9.0625 9.0625C9.0625 9.5 8.91146 9.86979 8.60938 10.1719C8.30729 10.474 7.9375 10.625 7.5 10.625C7.0625 10.625 6.69271 10.474 6.39062 10.1719ZM3.96875 7.09375L2.65625 5.75C3.27083 5.13542 3.99229 4.64854 4.82062 4.28937C5.64896 3.93021 6.54208 3.75042 7.5 3.75C8.45792 3.74958 9.35125 3.93187 10.18 4.29688C11.0087 4.66187 11.73 5.15667 12.3438 5.78125L11.0312 7.09375C10.5729 6.63542 10.0417 6.27604 9.4375 6.01562C8.83333 5.75521 8.1875 5.625 7.5 5.625C6.8125 5.625 6.16667 5.75521 5.5625 6.01562C4.95833 6.27604 4.42708 6.63542 3.96875 7.09375ZM1.3125 4.4375L0 3.125C0.958333 2.14583 2.07812 1.38021 3.35938 0.828125C4.64062 0.276042 6.02083 0 7.5 0C8.97917 0 10.3594 0.276042 11.6406 0.828125C12.9219 1.38021 14.0417 2.14583 15 3.125L13.6875 4.4375C12.8854 3.63542 11.9558 3.00792 10.8988 2.555C9.84167 2.10208 8.70875 1.87542 7.5 1.875C6.29125 1.87458 5.15854 2.10125 4.10188 2.555C3.04521 3.00875 2.11542 3.63625 1.3125 4.4375Z" fill="#BA6054"/>
</svg>
