<svg width="26" height="26" viewBox="0 0 26 26" fill="none" xmlns="http://www.w3.org/2000/svg">
<path d="M4.0625 1.625C3.84701 1.625 3.64035 1.7106 3.48798 1.86298C3.3356 2.01535 3.25 2.22201 3.25 2.4375C3.25 2.65299 3.3356 2.85965 3.48798 3.01202C3.64035 3.1644 3.84701 3.25 4.0625 3.25H21.9375C22.153 3.25 22.3597 3.1644 22.512 3.01202C22.6644 2.85965 22.75 2.65299 22.75 2.4375C22.75 2.22201 22.6644 2.01535 22.512 1.86298C22.3597 1.7106 22.153 1.625 21.9375 1.625H4.0625ZM4.875 4.875V11.375C4.65951 11.375 4.45285 11.4606 4.30048 11.613C4.1481 11.7653 4.0625 11.972 4.0625 12.1875C4.0625 12.403 4.1481 12.6097 4.30048 12.762C4.45285 12.9144 4.65951 13 4.875 13V16.25C4.65951 16.25 4.45285 16.3356 4.30048 16.488C4.1481 16.6403 4.0625 16.847 4.0625 17.0625C4.0625 17.278 4.1481 17.4847 4.30048 17.637C4.45285 17.7894 4.65951 17.875 4.875 17.875V23.5625C4.875 24.0126 5.23738 24.375 5.6875 24.375H14.625V20.3125C14.625 19.8624 14.9874 19.5 15.4375 19.5H17.0625C17.5126 19.5 17.875 19.8624 17.875 20.3125V24.375H20.3125C20.7626 24.375 21.125 24.0126 21.125 23.5625V17.875C21.3405 17.875 21.5472 17.7894 21.6995 17.637C21.8519 17.4847 21.9375 17.278 21.9375 17.0625C21.9375 16.847 21.8519 16.6403 21.6995 16.488C21.5472 16.3356 21.3405 16.25 21.125 16.25V13C21.3405 13 21.5472 12.9144 21.6995 12.762C21.8519 12.6097 21.9375 12.403 21.9375 12.1875C21.9375 11.972 21.8519 11.7653 21.6995 11.613C21.5472 11.4606 21.3405 11.375 21.125 11.375V4.875H4.875ZM8.9375 8.125H10.5625C11.0126 8.125 11.375 8.48737 11.375 8.9375V10.5625C11.375 11.0126 11.0126 11.375 10.5625 11.375H8.9375C8.72201 11.375 8.51535 11.2894 8.36298 11.137C8.2106 10.9847 8.125 10.778 8.125 10.5625V8.9375C8.125 8.48737 8.48737 8.125 8.9375 8.125ZM15.4375 8.125H17.0625C17.5126 8.125 17.875 8.48737 17.875 8.9375V10.5625C17.875 11.0126 17.5126 11.375 17.0625 11.375H15.4375C15.222 11.375 15.0153 11.2894 14.863 11.137C14.7106 10.9847 14.625 10.778 14.625 10.5625V8.9375C14.625 8.48737 14.9874 8.125 15.4375 8.125ZM8.9375 13H10.5625C11.0126 13 11.375 13.3624 11.375 13.8125V15.4375C11.375 15.8876 11.0126 16.25 10.5625 16.25H8.9375C8.72201 16.25 8.51535 16.1644 8.36298 16.012C8.2106 15.8597 8.125 15.653 8.125 15.4375V13.8125C8.125 13.3624 8.48737 13 8.9375 13ZM15.4375 13H17.0625C17.5126 13 17.875 13.3624 17.875 13.8125V15.4375C17.875 15.8876 17.5126 16.25 17.0625 16.25H15.4375C15.222 16.25 15.0153 16.1644 14.863 16.012C14.7106 15.8597 14.625 15.653 14.625 15.4375V13.8125C14.625 13.3624 14.9874 13 15.4375 13ZM8.9375 17.875H10.5625C11.0126 17.875 11.375 18.2374 11.375 18.6875V20.3125C11.375 20.7626 11.0126 21.125 10.5625 21.125H8.9375C8.72201 21.125 8.51535 21.0394 8.36298 20.887C8.2106 20.7347 8.125 20.528 8.125 20.3125V18.6875C8.125 18.2374 8.48737 17.875 8.9375 17.875Z" fill="#BA6054"/>
</svg>
