<svg width="31" height="37" viewBox="0 0 31 37" fill="none" xmlns="http://www.w3.org/2000/svg">
<path d="M22.5048 6.75925H18.8785V6.66425L22.5835 1.78125C22.9181 1.35171 23.045 1.08232 23.045 0.795286C23.045 0.301964 22.6636 0 22.1384 0H17.0335C16.5565 0 16.1907 0.31825 16.1907 0.811571C16.1907 1.33611 16.5565 1.63807 17.0335 1.63807H20.4528V1.73307L16.6996 6.60046C16.3658 7.03 16.2382 7.26818 16.2382 7.60204C16.2382 8.06346 16.6046 8.39732 17.1292 8.39732H22.5041C22.9819 8.39732 23.332 8.09536 23.332 7.57014C23.332 7.0775 22.9825 6.75925 22.5048 6.75925ZM29.9467 12.8345H27.3878V12.7707L30.0275 9.3195C30.3294 8.92254 30.457 8.66807 30.457 8.38171C30.457 7.92029 30.0913 7.63393 29.5986 7.63393H25.7016C25.2564 7.63393 24.9226 7.93657 24.9226 8.39732C24.9226 8.90625 25.2564 9.19261 25.7016 9.19261H28.008V9.25639L25.384 12.7076C25.0814 13.089 24.9701 13.3278 24.9701 13.6617C24.9701 14.0912 25.3039 14.4088 25.7979 14.4088H29.9481C30.4095 14.4088 30.7277 14.1068 30.7277 13.6298C30.7277 13.1528 30.4095 12.8345 29.9481 12.8345M13.9955 36.4203C19.7851 36.4203 24.493 33.478 26.6238 28.3887C26.8938 27.7529 26.8463 27.2284 26.5287 26.9094C26.2899 26.655 25.7966 26.6231 25.2876 26.83C23.9678 27.3552 22.441 27.5778 20.7867 27.5778C13.6617 27.5778 9.00193 23.0606 9.00193 16.1907C9.00193 14.3138 9.36836 12.2306 9.861 11.2602C10.163 10.64 10.163 10.1148 9.9085 9.79721C9.62214 9.44707 9.09761 9.38329 8.41361 9.62214C3.33993 11.4828 0 16.7946 0 22.6948C0 30.5832 5.94836 36.4203 13.9955 36.4203ZM22.9337 18.2739H20.7555V18.2101L22.9975 15.236C23.2838 14.8383 23.4114 14.6158 23.4114 14.3457C23.4114 13.8999 23.0613 13.6298 22.5998 13.6298H19.1649C18.7354 13.6298 18.4171 13.9161 18.4171 14.3613C18.4171 14.8383 18.7354 15.1091 19.1649 15.1091H21.073V15.1722L18.8622 18.1308C18.5759 18.5121 18.4646 18.7347 18.4646 19.0373C18.4646 19.4513 18.7835 19.7688 19.2443 19.7688H22.9337C23.3632 19.7688 23.6652 19.4669 23.6652 19.0054C23.6652 18.5759 23.3632 18.2739 22.9337 18.2739Z" fill="#121826"/>
</svg>
