<svg width="9" height="12" viewBox="0 0 9 12" fill="none" xmlns="http://www.w3.org/2000/svg">
<path d="M1.50117 0.9375C1.24992 1.3725 1.24992 1.95625 1.24992 3.125V5.01688C1.51867 5 1.82117 5 2.1468 5H6.60305C6.92805 5 7.23117 5 7.49992 5.01688V3.125C7.49992 1.95625 7.49992 1.3725 7.24867 0.9375C7.08411 0.652488 6.84743 0.415809 6.56242 0.25125C6.12742 -3.72529e-08 5.54367 0 4.37492 0C3.20617 0 2.62242 -3.72529e-08 2.18742 0.25125C1.90241 0.415809 1.66573 0.652488 1.50117 0.9375ZM0.781171 8.11938C0.467421 8.10688 0.277421 8.06437 0.147421 7.9225C-0.0382035 7.72 -0.0138284 7.43875 0.0349216 6.87563C0.0692966 6.46938 0.148046 6.19563 0.326796 5.99125C0.646796 5.625 1.16117 5.625 2.19055 5.625H6.5593C7.58867 5.625 8.10305 5.625 8.42305 5.99125C8.6018 6.195 8.68055 6.46875 8.71555 6.87563C8.76367 7.43813 8.78805 7.72 8.60242 7.9225C8.47242 8.06437 8.28242 8.10688 7.96867 8.11938V11.25C7.96867 11.3743 7.91929 11.4935 7.83138 11.5815C7.74347 11.6694 7.62424 11.7188 7.49992 11.7188C7.3756 11.7188 7.25637 11.6694 7.16846 11.5815C7.08056 11.4935 7.03117 11.3743 7.03117 11.25V8.125H1.71867V11.25C1.71867 11.3743 1.66929 11.4935 1.58138 11.5815C1.49347 11.6694 1.37424 11.7188 1.24992 11.7188C1.1256 11.7188 1.00637 11.6694 0.918465 11.5815C0.830557 11.4935 0.781171 11.3743 0.781171 11.25V8.11938Z" fill="#BA6054"/>
</svg>
