<svg width="77" height="64" viewBox="0 0 77 64" fill="none" xmlns="http://www.w3.org/2000/svg">
<path d="M38.0892 0.00556342C17.0546 0.00556342 0 11.3447 0 25.3316C0 33.3333 5.59866 40.4616 14.3151 45.1008C13.0747 49.217 10.5993 53.7699 5.81559 57.7999C5.81559 57.7999 16.9851 57.0601 24.8727 49.0585C25.3261 49.1697 25.7961 49.2532 26.255 49.3533C25.8085 48.062 25.5764 46.7062 25.568 45.3399C25.568 35.9032 36.07 28.5134 49.4868 28.5134C59.1182 28.5134 67.2256 32.3404 71.0415 37.9863C74.29 34.2594 76.1784 29.9402 76.1784 25.3233C76.1784 11.3392 59.1238 0 38.0892 0V0.00556342ZM70.6159 45.3455C70.6159 37.5858 61.1597 31.2918 49.4784 31.2918C37.8111 31.2918 28.3465 37.5886 28.3465 45.3483C28.3465 53.108 37.8111 59.4019 49.484 59.4019C52.065 59.4019 54.5264 59.0793 56.8154 58.5119C61.1903 62.9564 67.3841 63.3652 67.3841 63.3652C64.7336 61.1291 63.3624 58.6009 62.6727 56.3175C67.5065 53.7449 70.6159 49.7872 70.6159 45.3455Z" fill="#BA6054"/>
</svg>
