<svg width="14" height="11" viewBox="0 0 14 11" fill="none" xmlns="http://www.w3.org/2000/svg">
<path d="M7.31818 1.375C7.31818 0.611875 7.88455 0 8.59091 0H10.8182C11.5182 0 12.0909 0.61875 12.0909 1.375V2.86C11.3527 3.14187 10.8182 3.89813 10.8182 4.79188V6.1875H7.31818V1.375ZM3.18182 4.785V6.1875H6.68182V1.375C6.68182 0.611875 6.11545 0 5.40909 0H3.18182C2.48182 0 1.90909 0.61875 1.90909 1.375V2.85312C2.64727 3.135 3.18182 3.89812 3.18182 4.785ZM12.5109 3.45812C11.8873 3.56812 11.4545 4.2075 11.4545 4.895V6.875H2.54545V4.8125C2.54545 4.44783 2.41136 4.09809 2.17268 3.84023C1.934 3.58237 1.61028 3.4375 1.27273 3.4375C0.935179 3.4375 0.611456 3.58237 0.372773 3.84023C0.134091 4.09809 0 4.44783 0 4.8125V8.25C0 9.00625 0.572727 9.625 1.27273 9.625V11H2.54545V9.625H11.4545V11H12.7273V9.625C13.4273 9.625 14 9.00625 14 8.25V4.8125C14 3.98062 13.3064 3.31375 12.5109 3.45812Z" fill="#BA6054"/>
</svg>
