<svg width="44" height="20" viewBox="0 0 44 20" fill="none" xmlns="http://www.w3.org/2000/svg">
<path d="M21.7931 5.53131e-05C16.8743 5.53131e-05 12.4189 0.456057 9.25172 1.17362C7.66809 1.5324 6.40415 1.96337 5.60606 2.39087C5.20706 2.60462 4.92909 2.81856 4.785 2.97812C4.64091 3.13768 4.63687 3.20452 4.63687 3.23443C4.63687 3.26443 4.64091 3.33128 4.785 3.49075C4.92909 3.65021 5.20706 3.86424 5.60606 4.07799C6.40415 4.50549 7.66809 4.93646 9.25172 5.29524C9.70378 5.39771 10.1848 5.49409 10.687 5.5853C11.0939 5.23132 12.4373 4.90842 14.4742 4.67499C16.5111 4.44156 19.1072 4.313 21.7931 4.31256C24.479 4.31282 27.0756 4.44121 29.1134 4.6745C31.1512 4.90779 32.4957 5.2306 32.904 5.58455C33.4044 5.49362 33.8839 5.39743 34.3346 5.29524C35.9181 4.93646 37.1821 4.50549 37.9802 4.07799C38.3792 3.86424 38.6572 3.65031 38.8013 3.49075C38.9453 3.33118 38.9494 3.26434 38.9494 3.23443C38.9494 3.20443 38.9453 3.13759 38.8013 2.97812C38.6572 2.81865 38.3792 2.60462 37.9802 2.39087C37.1821 1.96337 35.9182 1.5324 34.3345 1.17362C31.1674 0.456057 26.712 5.53131e-05 21.7931 5.53131e-05ZM3.88884 4.96055L0.0799671 15.1174L0.0764046 15.1259C-0.0345016 15.4033 -0.0199703 15.5332 0.0896234 15.7493C0.199217 15.9654 0.471186 16.2617 0.942373 16.5623C1.88456 17.1637 3.55444 17.7491 5.65987 18.2068C9.87065 19.1222 15.8372 19.5938 21.7931 19.5938C27.7492 19.5938 33.7156 19.1222 37.9264 18.2068C40.0317 17.7491 41.7017 17.1637 42.6439 16.5624C43.115 16.2617 43.387 15.9655 43.4966 15.7493C43.6062 15.5331 43.6208 15.4033 43.5098 15.1259L43.5063 15.1174L39.6975 4.96055C39.4304 5.18312 39.1232 5.38018 38.7771 5.56552C37.7534 6.11387 36.3814 6.5618 34.7076 6.94102C31.36 7.69946 26.8153 8.15631 21.7931 8.15631C16.7709 8.15631 12.2262 7.69946 8.87869 6.94102C7.20488 6.5618 5.83275 6.11387 4.80919 5.56552C4.46315 5.38018 4.15594 5.18302 3.88884 4.96055Z" fill="#BA6054"/>
</svg>
