<svg width="17" height="11" viewBox="0 0 17 11" fill="none" xmlns="http://www.w3.org/2000/svg">
<path d="M6.8 7.85714L11.2115 5.5L6.8 3.14286V7.85714ZM16.626 1.705C16.7365 2.07429 16.813 2.56929 16.864 3.19786C16.9235 3.82643 16.949 4.36857 16.949 4.84L17 5.5C17 7.22071 16.864 8.48571 16.626 9.295C16.4135 10.0021 15.9205 10.4579 15.1555 10.6543C14.756 10.7564 14.025 10.8271 12.903 10.8743C11.798 10.9293 10.7865 10.9529 9.8515 10.9529L8.5 11C4.9385 11 2.72 10.8743 1.8445 10.6543C1.0795 10.4579 0.5865 10.0021 0.374 9.295C0.2635 8.92571 0.187 8.43071 0.136 7.80214C0.0765001 7.17357 0.051 6.63143 0.051 6.16L0 5.5C0 3.77929 0.136 2.51429 0.374 1.705C0.5865 0.997857 1.0795 0.542143 1.8445 0.345714C2.244 0.243571 2.975 0.172857 4.097 0.125714C5.202 0.0707142 6.2135 0.0471428 7.1485 0.0471428L8.5 0C12.0615 0 14.28 0.125714 15.1555 0.345714C15.9205 0.542143 16.4135 0.997857 16.626 1.705Z" fill="#9DA3AE"/>
</svg>
