<svg width="9" height="11" viewBox="0 0 9 11" fill="none" xmlns="http://www.w3.org/2000/svg">
<path d="M2.16667 3.25H3.25V1.625H2.16667V3.25ZM2.16667 8.125H3.25V5.41667H2.16667V8.125ZM1.08333 10.8333C0.785417 10.8333 0.530472 10.7273 0.3185 10.5154C0.106528 10.3034 0.000361111 10.0483 0 9.75V4.875H8.66667V9.75C8.66667 10.0479 8.56068 10.303 8.34871 10.5154C8.13674 10.7277 7.88161 10.8337 7.58333 10.8333H1.08333ZM0 3.79167V1.08333C0 0.785417 0.106167 0.530472 0.3185 0.3185C0.530833 0.106528 0.785778 0.000361111 1.08333 0H7.58333C7.88125 0 8.13638 0.106167 8.34871 0.3185C8.56104 0.530833 8.66703 0.785778 8.66667 1.08333V3.79167H0Z" fill="#BA6054"/>
</svg>
