<svg width="13" height="11" viewBox="0 0 13 11" fill="none" xmlns="http://www.w3.org/2000/svg">
<path d="M0 10.2143V6.28571C0 5.93214 0.0595834 5.61131 0.17875 5.32321C0.297917 5.03512 0.455 4.77976 0.65 4.55714V2.35714C0.65 1.70238 0.839583 1.14583 1.21875 0.6875C1.59792 0.229167 2.05833 0 2.6 0H5.2C5.44917 0 5.68208 0.0557856 5.89875 0.167357C6.11542 0.278928 6.31583 0.432667 6.5 0.628571C6.68417 0.432143 6.88458 0.278405 7.10125 0.167357C7.31792 0.0563094 7.55083 0.000523809 7.8 0H10.4C10.9417 0 11.4021 0.229167 11.7812 0.6875C12.1604 1.14583 12.35 1.70238 12.35 2.35714V4.55714C12.545 4.77976 12.7021 5.03512 12.8212 5.32321C12.9404 5.61131 13 5.93214 13 6.28571V10.2143C13 10.4369 12.9376 10.6236 12.8128 10.7745C12.688 10.9254 12.5337 11.0005 12.35 11C12.1663 10.9995 12.012 10.924 11.8872 10.7737C11.7624 10.6234 11.7 10.4369 11.7 10.2143V9.42857H1.3V10.2143C1.3 10.4369 1.2376 10.6236 1.1128 10.7745C0.988 10.9254 0.833733 11.0005 0.65 11C0.466267 10.9995 0.312 10.924 0.1872 10.7737C0.0624001 10.6234 0 10.4369 0 10.2143ZM7.15 3.92857H11.05V2.35714C11.05 2.13452 10.9876 1.94805 10.8628 1.79771C10.738 1.64738 10.5837 1.57195 10.4 1.57143H7.8C7.61583 1.57143 7.46157 1.64686 7.3372 1.79771C7.21283 1.94857 7.15043 2.13505 7.15 2.35714V3.92857ZM1.95 3.92857H5.85V2.35714C5.85 2.13452 5.7876 1.94805 5.6628 1.79771C5.538 1.64738 5.38373 1.57195 5.2 1.57143H2.6C2.41583 1.57143 2.26157 1.64686 2.1372 1.79771C2.01283 1.94857 1.95043 2.13505 1.95 2.35714V3.92857Z" fill="#BA6054"/>
</svg>
