<svg width="50" height="50" viewBox="0 0 50 50" fill="none" xmlns="http://www.w3.org/2000/svg">
<path fill-rule="evenodd" clip-rule="evenodd" d="M48.4825 41.8387C48.7726 38.2715 49.0758 32.6092 49.0758 24.5379C49.0758 16.4666 48.7726 10.8043 48.4825 7.23704C48.1913 3.65124 45.4245 0.884454 41.8387 0.593271C38.2715 0.303179 32.6103 0 24.5379 0C16.4666 0 10.8043 0.303179 7.23704 0.593271C3.65124 0.884454 0.884454 3.65124 0.593271 7.23704C0.303179 10.8043 0 16.4666 0 24.5379C0 32.6092 0.303179 38.2715 0.593271 41.8387C0.884454 45.4245 3.65124 48.1913 7.23704 48.4825C10.8043 48.7726 16.4666 49.0758 24.5379 49.0758C32.6092 49.0758 38.2715 48.7726 41.8387 48.4825C45.4245 48.1913 48.1913 45.4245 48.4825 41.8387ZM27.4672 37.8167C28.2806 38.4123 29.2866 38.6838 30.2892 38.5782C31.2918 38.4725 32.2192 37.9973 32.8906 37.2452C37.0086 32.6168 39.651 28.4879 40.9728 26.2108C41.6653 25.0188 41.8496 23.5411 40.8169 22.6283C40.5369 22.3809 40.2362 22.158 39.9182 21.9619C38.5834 21.1397 37.0904 21.9587 36.0903 23.1659C34.4512 25.1464 31.8404 28.2556 29.9635 30.2765C29.7892 30.4668 29.5502 30.5852 29.2933 30.6086C29.0363 30.632 28.7798 30.5587 28.5741 30.403C26.9055 29.1477 24.8269 27.3603 23.167 25.8902C21.5072 24.419 19.0065 24.3634 17.4153 25.9087C14.6911 28.5566 11.8807 31.6593 9.53597 34.4043C8.04515 36.1492 7.86739 38.7011 9.58722 40.2225C10.0441 40.6242 10.5264 40.9962 11.0311 41.336C13.0563 42.6883 15.5788 41.6239 16.8592 39.5518C17.9574 37.7742 19.3217 35.6421 20.5507 33.9495C20.636 33.8336 20.7439 33.7361 20.8677 33.6628C20.9916 33.5896 21.129 33.5421 21.2717 33.5233C21.4144 33.5044 21.5594 33.5146 21.6981 33.5532C21.8367 33.5918 21.9662 33.6579 22.0786 33.7478C23.8512 35.1347 25.6477 36.4919 27.4672 37.8167ZM8.17929 10.3604C8.17929 9.78196 8.40909 9.22718 8.81814 8.81814C9.22718 8.40909 9.78196 8.17929 10.3604 8.17929H21.2662C21.8446 8.17929 22.3994 8.40909 22.8085 8.81814C23.2175 9.22718 23.4473 9.78196 23.4473 10.3604C23.4473 10.9389 23.2175 11.4937 22.8085 11.9027C22.3994 12.3118 21.8446 12.5416 21.2662 12.5416H10.3604C9.78196 12.5416 9.22718 12.3118 8.81814 11.9027C8.40909 11.4937 8.17929 10.9389 8.17929 10.3604ZM10.3604 16.9039C9.78196 16.9039 9.22718 17.1337 8.81814 17.5427C8.40909 17.9518 8.17929 18.5065 8.17929 19.085C8.17929 19.6635 8.40909 20.2183 8.81814 20.6273C9.22718 21.0364 9.78196 21.2662 10.3604 21.2662H16.9039C17.4823 21.2662 18.0371 21.0364 18.4462 20.6273C18.8552 20.2183 19.085 19.6635 19.085 19.085C19.085 18.5065 18.8552 17.9518 18.4462 17.5427C18.0371 17.1337 17.4823 16.9039 16.9039 16.9039H10.3604Z" fill="#BA6054"/>
</svg>
