<svg width="77" height="77" viewBox="0 0 77 77" fill="none" xmlns="http://www.w3.org/2000/svg">
<path d="M68.9472 28.0088L62.8193 24.4796V17.4213C62.8193 15.6567 61.3755 14.2129 59.6109 14.2129H52.5526L49.0234 8.08503C48.8138 7.7174 48.5336 7.39486 48.1988 7.136C47.864 6.87714 47.4813 6.68706 47.0728 6.57672C46.6642 6.46639 46.2379 6.43796 45.8183 6.49309C45.3987 6.54822 44.9942 6.68582 44.628 6.89795L40.7459 9.14378L38.5001 10.4592L36.2543 9.14378L32.4043 6.89795C30.8643 5.99961 28.9072 6.54503 28.0088 8.08503L24.4797 14.2129H17.4213C15.6568 14.2129 14.213 15.6567 14.213 17.4213V24.4796L8.0851 28.0088C7.71746 28.2184 7.39493 28.4986 7.13607 28.8334C6.8772 29.1682 6.68713 29.5509 6.57679 29.9594C6.46645 30.368 6.43803 30.7943 6.49316 31.2139C6.54829 31.6335 6.68588 32.038 6.89802 32.4042L9.14385 36.2542L10.4593 38.5L6.9301 44.6279C6.71797 44.9941 6.58037 45.3987 6.52524 45.8182C6.47011 46.2378 6.49854 46.6642 6.60888 47.0727C6.71921 47.4813 6.90929 47.8639 7.16815 48.1987C7.42701 48.5335 7.74955 48.8138 8.11718 49.0234L11.9672 51.2692L14.2451 52.5846V59.6429C14.2451 61.4075 15.6888 62.8513 17.4534 62.8513H24.5118L25.8272 65.1292L28.073 68.9792C28.6826 70.0059 29.7414 70.5834 30.8643 70.5834C31.4097 70.5834 31.9551 70.455 32.4684 70.1663L36.3184 67.9204L38.5643 66.605L40.8101 67.9204L44.6922 70.1663C45.4301 70.5834 46.2964 70.7117 47.1305 70.4871C47.9647 70.2625 48.6384 69.7171 49.0876 68.9792L51.3334 65.1292L52.6489 62.8834H59.7072C61.4718 62.8834 62.9155 61.4396 62.9155 59.675V52.6167L65.1934 51.3013L69.0434 49.0554C70.5834 48.1571 71.0968 46.2 70.2305 44.66L67.9847 40.7779L66.6693 38.5321L67.9847 36.2863L70.2305 32.4363C71.1289 30.8963 70.5834 28.9392 69.0434 28.0409L68.9472 28.0088ZM61.8568 45.6867L59.3222 47.1625L57.9747 47.9325L56.3705 48.8629V56.4025H48.8309L46.168 61.0225L45.0451 62.9475L43.9543 62.3059L40.778 60.4771L40.1043 60.0921L38.5001 59.1617L36.8959 60.0921L35.5805 60.8621L33.0139 62.3379L31.923 62.9796L29.8055 59.3542L28.1051 56.4346H20.5655V48.895L18.9613 47.9646L17.6138 47.1946L15.0793 45.7188L13.9884 45.0771L14.6301 43.9863L17.8063 38.5L16.8759 36.8959L14.0205 31.955L18.9613 29.0996L20.5655 28.1692V20.6296H28.1051L31.2493 15.1754L31.8909 14.0846L36.8318 16.94L38.4359 17.8704L40.0401 16.94L43.7297 14.7904L43.8901 14.6942L44.9809 14.0525L46.9701 17.5175L48.7668 20.5975H56.3064V28.1371L57.9105 29.0675L59.258 29.8696L61.7605 31.3134L62.8514 31.955L60.9905 35.1954L59.0655 38.5321L60.3168 40.7138L62.8514 45.1092L61.7605 45.7509L61.8568 45.6867Z" fill="#B86D5A"/>
<path d="M45.5582 23.7417L35.9332 36.575L26.3082 49.4084L28.8748 51.3334L31.4415 53.2584L41.0665 40.425L50.6915 27.5917L48.1248 25.6667L45.5582 23.7417ZM46.5207 41.7084C45.2443 41.7084 44.0202 42.2154 43.1177 43.1179C42.2152 44.0204 41.7082 45.2445 41.7082 46.5209C41.7082 47.7972 42.2152 49.0213 43.1177 49.9238C44.0202 50.8263 45.2443 51.3334 46.5207 51.3334C47.797 51.3334 49.0211 50.8263 49.9236 49.9238C50.8261 49.0213 51.3332 47.7972 51.3332 46.5209C51.3332 45.2445 50.8261 44.0204 49.9236 43.1179C49.0211 42.2154 47.797 41.7084 46.5207 41.7084ZM30.479 25.6667C29.2026 25.6667 27.9786 26.1737 27.0761 27.0762C26.1735 27.9788 25.6665 29.2028 25.6665 30.4792C25.6665 31.7556 26.1735 32.9796 27.0761 33.8822C27.9786 34.7847 29.2026 35.2917 30.479 35.2917C31.7554 35.2917 32.9794 34.7847 33.882 33.8822C34.7845 32.9796 35.2915 31.7556 35.2915 30.4792C35.2915 29.2028 34.7845 27.9788 33.882 27.0762C32.9794 26.1737 31.7554 25.6667 30.479 25.6667Z" fill="#B86D5A"/>
</svg>
