<svg width="11" height="12" viewBox="0 0 11 12" fill="none" xmlns="http://www.w3.org/2000/svg">
<path d="M10.1562 5.82324V7.44824C10.1562 8.02288 9.92798 8.57398 9.52165 8.98031C9.11532 9.38664 8.56422 9.61491 7.98958 9.61491H2.57292C1.99828 9.61491 1.44718 9.38664 1.04085 8.98031C0.634523 8.57398 0.40625 8.02288 0.40625 7.44824V6.14824C0.40625 6.06205 0.440491 5.97938 0.50144 5.91843C0.56239 5.85748 0.645055 5.82324 0.73125 5.82324H10.1562Z" fill="#BA6054" stroke="#BA6054" stroke-width="0.8125" stroke-linecap="round" stroke-linejoin="round"/>
<path d="M7.44775 9.61458L7.98942 10.6979M3.11442 9.61458L2.57275 10.6979M10.1561 5.82292V2.57292C10.1561 1.99828 9.92781 1.44718 9.52149 1.04085C9.11516 0.634523 8.56406 0.40625 7.98942 0.40625H5.28109" stroke="#BA6054" stroke-width="0.8125" stroke-linecap="round" stroke-linejoin="round"/>
<path d="M7.12272 3.11458H3.43939C3.2601 3.11458 3.11655 2.96942 3.13605 2.79067C3.21514 2.07187 3.58185 0.40625 5.28105 0.40625C6.98026 0.40625 7.34697 2.07187 7.42605 2.79067C7.44555 2.96942 7.30201 3.11458 7.12272 3.11458Z" fill="#BA6054" stroke="#BA6054" stroke-width="0.8125" stroke-linecap="round" stroke-linejoin="round"/>
</svg>
