<svg width="19" height="19" viewBox="0 0 19 19" fill="none" xmlns="http://www.w3.org/2000/svg">
<path d="M5 4.99988C5 5.26509 4.89464 5.51945 4.70711 5.70698C4.51957 5.89452 4.26522 5.99988 4 5.99988H3C2.73478 5.99988 2.48043 6.10523 2.29289 6.29277C2.10536 6.48031 2 6.73466 2 6.99988V15.9999C2 16.2651 2.10536 16.5194 2.29289 16.707C2.48043 16.8945 2.73478 16.9999 3 16.9999H12C12.2652 16.9999 12.5196 16.8945 12.7071 16.707C12.8946 16.5194 13 16.2651 13 15.9999V14.9999C13 14.7347 13.1054 14.4803 13.2929 14.2928C13.4804 14.1052 13.7348 13.9999 14 13.9999C14.2652 13.9999 14.5196 14.1052 14.7071 14.2928C14.8946 14.4803 15 14.7347 15 14.9999V15.9999C15 16.7955 14.6839 17.5586 14.1213 18.1212C13.5587 18.6838 12.7956 18.9999 12 18.9999H3C2.20435 18.9999 1.44129 18.6838 0.87868 18.1212C0.316071 17.5586 0 16.7955 0 15.9999V6.99988C0 6.20423 0.316071 5.44117 0.87868 4.87856C1.44129 4.31595 2.20435 3.99988 3 3.99988H4C4.26522 3.99988 4.51957 4.10523 4.70711 4.29277C4.89464 4.48031 5 4.73466 5 4.99988Z" fill="black"/>
<path d="M11.596 3.01094L15.988 7.40294L9.708 13.7059C9.61513 13.7991 9.50478 13.873 9.38329 13.9235C9.2618 13.9739 9.13155 13.9999 9 13.9999H6C5.73478 13.9999 5.48043 13.8946 5.29289 13.707C5.10536 13.5195 5 13.2652 5 12.9999V9.99994C5.00003 9.86839 5.02601 9.73814 5.07646 9.61665C5.12691 9.49515 5.20083 9.38481 5.294 9.29194L11.596 3.01094ZM18.092 0.907938C18.6435 1.45909 18.9669 2.19801 18.9975 2.97713C19.0281 3.75625 18.7636 4.51824 18.257 5.11094L18.093 5.29094L17.4 5.98494L13.013 1.59794L13.708 0.907938C14.2894 0.326594 15.0778 0 15.9 0C16.7222 0 17.5106 0.326594 18.092 0.907938Z" fill="black"/>
</svg>
