<svg width="13" height="12" viewBox="0 0 13 12" fill="none" xmlns="http://www.w3.org/2000/svg">
<path d="M5.41506 3.24904C5.41506 2.67457 5.18686 2.12364 4.78065 1.71743C4.37444 1.31122 3.8235 1.08301 3.24904 1.08301C2.67457 1.08301 2.12364 1.31122 1.71743 1.71743C1.31122 2.12364 1.08301 2.67457 1.08301 3.24904C1.08301 3.8235 1.31122 4.37444 1.71743 4.78065C2.12364 5.18686 2.67457 5.41506 3.24904 5.41506C3.8235 5.41506 4.37444 5.18686 4.78065 4.78065C5.18686 4.37444 5.41506 3.8235 5.41506 3.24904ZM6.41685 3.97105C6.08969 5.41732 4.79459 6.49808 3.24904 6.49808C1.4553 6.49808 0 5.04278 0 3.24904C0 1.4553 1.4553 0 3.24904 0C4.79459 0 6.08969 1.08076 6.41685 2.52703H8.03685C8.23541 2.30591 8.52421 2.16603 8.8446 2.16603H11.1911C11.789 2.16603 12.2741 2.65112 12.2741 3.24904C12.2741 3.84695 11.789 4.33205 11.1911 4.33205H8.8446C8.52421 4.33205 8.23541 4.19216 8.03685 3.97105H6.41685ZM3.24904 1.80502C3.63201 1.80502 3.99931 1.95716 4.27011 2.22796C4.54092 2.49877 4.69305 2.86606 4.69305 3.24904C4.69305 3.63201 4.54092 3.99931 4.27011 4.27011C3.99931 4.54092 3.63201 4.69305 3.24904 4.69305C2.86606 4.69305 2.49877 4.54092 2.22796 4.27011C1.95716 3.99931 1.80502 3.63201 1.80502 3.24904C1.80502 2.86606 1.95716 2.49877 2.22796 2.22796C2.49877 1.95716 2.86606 1.80502 3.24904 1.80502ZM9.0251 5.41506C9.32519 5.41506 9.56661 5.65648 9.56661 5.95657V6.13707H11.7326C12.0327 6.13707 12.2741 6.37849 12.2741 6.67858C12.2741 6.97866 12.0327 7.22008 11.7326 7.22008H6.31757C6.01749 7.22008 5.77607 6.97866 5.77607 6.67858C5.77607 6.37849 6.01749 6.13707 6.31757 6.13707H8.4836V5.95657C8.4836 5.65648 8.72502 5.41506 9.0251 5.41506ZM6.49807 10.4691V7.94209H11.5521V10.4691C11.5521 11.067 11.067 11.5521 10.4691 11.5521H7.58109C6.98317 11.5521 6.49807 11.067 6.49807 10.4691ZM1.08301 7.22008H3.97105C4.56896 7.22008 5.05406 7.70518 5.05406 8.3031C5.05406 8.90101 4.56896 9.38611 3.97105 9.38611H3.61004C3.61004 9.78547 3.28739 10.1081 2.88803 10.1081H1.44402C1.04466 10.1081 0.722008 9.78547 0.722008 9.38611V7.58109C0.722008 7.38254 0.88446 7.22008 1.08301 7.22008ZM3.97105 8.6641C4.1696 8.6641 4.33205 8.50165 4.33205 8.3031C4.33205 8.10454 4.1696 7.94209 3.97105 7.94209H3.61004V8.6641H3.97105ZM0.541506 10.4691H4.51255C4.81264 10.4691 5.05406 10.7105 5.05406 11.0106C5.05406 11.3107 4.81264 11.5521 4.51255 11.5521H0.541506C0.241422 11.5521 0 11.3107 0 11.0106C0 10.7105 0.241422 10.4691 0.541506 10.4691Z" fill="#BA6054"/>
</svg>
