<svg width="322" height="279" viewBox="0 0 322 279" fill="none" xmlns="http://www.w3.org/2000/svg">
<path d="M79.2398 257.98C95.5998 258.39 111.96 258.59 128.31 257.98H199.31C203.705 258.435 208.135 258.435 212.53 257.98C230.68 258.05 248.84 258.04 266.99 258.28C270.77 258.28 270.35 256.15 270.35 253.79C270.41 232.99 270.56 212.18 270.55 191.38C270.55 160.75 270.33 130.13 270.42 99.5002C270.42 95.7102 269.23 93.4002 266.21 91.3002C256.09 84.3002 246.21 76.9801 236.07 69.9301C233.38 68.0601 189 38 189 38C189 38 204.02 31.47 205 26C205.693 26.165 238.334 47.5802 238.97 47.9001C265.05 66.0801 291.11 84.2902 317.15 102.53C321.53 105.61 322.41 109.84 320.48 114.43C317.99 120.35 311.71 122.43 305.97 118.92C300.65 115.63 295.63 111.86 289.67 107.75C289.67 110.36 289.67 112.11 289.67 113.86C289.856 157.3 290.036 200.737 290.21 244.17C290.21 251.66 290.06 259.17 290 266.64C289.93 275.07 286.7 278.37 278.19 278.38C235.523 278.42 192.873 278.42 150.24 278.38C113.746 278.38 77.2598 278.36 40.7798 278.32C30.2698 278.32 27.2298 275.55 27.0798 265.23C26.8898 252.85 26.5098 140.792 27.0798 128.292C32.1698 136.382 39.4898 119.49 46.7098 125.5C46.7098 125.5 46.8998 252.03 46.7098 253.45C46.2098 257.1 47.3898 258.37 51.2798 258.21C60.5898 257.97 69.9098 258.07 79.2398 257.98Z" fill="url(#paint0_linear_35_734)"/>
<path d="M164.29 0C167.292 0.14785 170.19 1.14293 172.65 2.87001C182.91 10.25 194.61 18.81 205 26C207.45 28.19 207.45 28.18 204.04 30.45C202.988 31.2659 202.02 32.1837 201.15 33.19C193.3 41.1 189 38 189 38C183.77 34.47 173.3 27.83 168.32 23.97C165.64 21.9 163.78 22.28 161.32 24.07C154.09 29.38 91.17 68.61 84 74C80.8595 70.7984 52 74 52 74C52 74 124.02 25.5 126 24.07C137.053 16.07 146.313 10.3867 157.3 2.34001C159.357 0.905007 161.783 0.0926333 164.29 0Z" fill="#D3FFF6"/>
<path d="M62.8263 179.002C64.1663 169.34 63.4853 159.506 60.8263 150.122C58.4063 141.552 53.5063 135.122 44.3263 133.022C34.1463 130.702 23.1463 139.122 22.3263 149.552C21.5863 159.272 24.7963 167.062 33.0163 172.552C33.2904 172.754 33.5449 172.982 33.7763 173.232C33.8363 173.292 33.7763 173.442 33.8463 173.882C28.6813 173.817 23.6904 172.005 19.6863 168.742C1.54629 154.962 -3.65369 137.192 2.42631 115.032C9.57631 88.9717 27.9363 74.3518 54.0463 69.8218C66.7146 67.681 79.7354 69.7498 91.1163 75.7117C91.8259 76.0875 92.5106 76.5083 93.1663 76.9717C93.5147 77.2297 93.8486 77.5068 94.1663 77.8018C94.1063 78.0418 94.1163 78.1818 94.0563 78.2418C87.5663 84.0418 87.4963 85.0518 93.3063 91.7018C98.7975 98.2136 105.856 103.221 113.816 106.252C114.816 106.602 115.816 107.782 116.616 105.972C117.416 104.162 116.386 103.672 115.126 103.152C107.811 100.087 101.307 95.3669 96.1263 89.3617C95.4463 88.5917 94.8263 87.7618 94.1263 87.0018C92.2963 85.0018 92.5363 83.3417 94.9563 82.1017C109.956 74.3817 125.576 69.8718 142.556 74.6318C144.602 75.2285 146.783 75.1725 148.796 74.4717C165.516 69.2417 182.296 68.7318 198.996 74.6318C201.161 75.3517 203.501 75.3517 205.666 74.6318C217.926 71.2518 229.836 72.3317 241.586 77.1517C245.586 78.8017 249.526 80.6117 253.456 82.4217C255.636 83.4217 255.966 84.7118 254.376 86.6918C248.466 94.0718 241.546 100.092 232.516 103.282C230.206 104.102 230.176 105.282 231.026 107.142C234.662 114.834 236.639 123.205 236.826 131.712C236.826 136.342 240.236 138.872 242.826 141.712C250.086 149.522 251.516 158.412 248.066 168.112C246.746 171.621 246.401 175.422 247.066 179.112C248.776 189.112 246.066 198.172 240.846 206.582C236.896 213.002 232.416 219.022 225.846 223.192C225.606 222.802 225.376 222.612 225.396 222.452C226.396 215.452 224.116 213.142 217.396 214.452C215.186 215.014 212.842 214.692 210.866 213.552C208.304 212.029 205.545 210.865 202.666 210.092C202.186 206.582 200.186 205.572 196.926 206.562C196.176 206.792 195.386 206.912 194.616 207.082L174.296 203.502C175.906 202.312 177.796 202.852 179.556 202.732C198.786 201.482 216.256 195.482 231.356 183.322C237.483 178.59 241.869 171.961 243.826 164.472C246.386 154.402 241.296 145.532 231.296 142.642C229.236 142.052 227.136 141.592 225.056 141.082C226.196 136.612 226.146 136.292 221.696 135.892C212.336 135.042 203.636 132.062 195.136 128.292C193.926 127.752 192.616 126.752 191.436 128.292C190.256 129.832 190.996 131.292 192.266 132.462C191.796 143.632 203.696 151.822 213.866 147.192C216.776 145.872 219.956 144.422 220.196 140.422L224.626 141.152C220.706 151.152 212.156 155.972 203.116 151.972C198.296 149.842 195.046 151.572 191.296 153.382C190.296 153.862 189.456 154.722 188.296 154.792C187.296 151.302 184.766 149.632 181.296 149.002C177.341 148.373 173.311 148.373 169.356 149.002C165.696 149.482 163.096 151.002 162.286 154.812C159.826 154.542 157.886 153.022 155.716 152.062C154.638 151.51 153.451 151.204 152.241 151.166C151.031 151.128 149.827 151.359 148.716 151.842C140.076 155.312 131.776 152.072 127.096 143.952C126.616 143.122 126.466 142.092 125.166 141.792C117.166 139.922 105.086 147.792 103.616 156.132C101.996 165.302 105.786 172.682 112.036 178.962C125.496 192.492 142.086 199.462 160.796 201.962C164.586 202.462 168.466 202.232 172.146 203.512C166.076 203.942 159.936 206.622 154.036 202.682C152.036 201.322 149.746 200.962 147.596 202.492C145.446 204.022 145.226 206.272 145.546 208.652C145.866 211.032 147.656 214.062 143.236 214.982C142.236 215.192 142.596 216.812 142.726 217.812C143.236 221.872 145.726 224.682 148.886 226.902C154.806 231.012 161.576 232.502 168.616 233.092C169.707 233.143 170.795 232.945 171.798 232.514C172.801 232.083 173.693 231.429 174.406 230.602C174.956 230.01 175.631 229.551 176.382 229.256C177.134 228.962 177.942 228.841 178.746 228.902C181.056 229.112 180.746 230.842 180.896 232.472C181.006 233.912 182.406 234.082 183.466 234.332C186.466 235.062 188.756 236.582 189.356 239.812C190.026 243.382 188.486 246.032 185.636 248.042C183.546 249.512 181.326 250.802 178.736 250.872C170.736 251.072 162.736 252.242 154.736 251.622C148.218 251.202 141.829 249.61 135.876 246.922C124.316 241.592 120.936 231.652 123.196 219.542C124.376 213.222 127.486 207.762 131.506 202.792C132.126 202.032 133.696 201.222 132.216 200.022C130.896 198.962 129.666 199.542 128.676 200.772C121.556 209.632 117.846 219.672 119.426 231.022C120.626 239.622 125.796 245.722 133.576 249.662C135.026 250.392 137.576 250.312 137.416 252.832C137.206 255.682 133.956 258.492 131.136 258.502C118.656 258.502 106.186 258.502 93.7063 258.502C91.8692 258.485 90.0688 257.985 88.4863 257.052C78.5463 251.572 70.9463 243.952 66.6963 233.262C66.1463 231.882 65.7963 230.402 64.2663 229.712C60.0063 217.182 62.1763 191.902 62.8263 179.002ZM130.196 141.022C131.954 143.857 134.606 146.025 137.733 147.184C140.861 148.343 144.286 148.427 147.466 147.422C150.631 146.367 153.375 144.327 155.298 141.602C157.222 138.876 158.223 135.607 158.156 132.272C159.156 131.182 160.416 130.012 159.156 128.472C157.896 126.932 156.426 127.842 155.076 128.472C148.665 131.478 141.907 133.682 134.956 135.032C132.276 135.502 129.526 135.632 126.826 136.032C126.532 136.027 126.241 136.088 125.973 136.209C125.706 136.33 125.468 136.509 125.277 136.732C125.086 136.956 124.947 137.218 124.869 137.502C124.791 137.785 124.776 138.082 124.826 138.372C124.817 139.009 125.05 139.627 125.479 140.099C125.908 140.57 126.501 140.861 127.136 140.912C128.136 141.032 129.166 140.992 130.196 141.022ZM215.266 85.1417C219.386 89.2317 222.966 92.7418 225.356 97.2018C226.196 98.7518 227.266 99.2017 229.016 98.6417C234.593 96.8633 239.726 93.9181 244.076 90.0018C245.856 88.4918 245.196 87.5717 243.336 86.9217C239.843 85.8351 236.248 85.108 232.606 84.7518C226.84 83.9987 220.993 84.1301 215.266 85.1417ZM131.706 85.8617C131.536 84.7617 130.776 84.7218 130.126 84.6318C121.725 83.6892 113.219 84.4649 105.126 86.9117C102.946 87.5217 102.686 88.5518 104.426 90.1918C108.76 94.1135 113.911 97.0236 119.506 98.7117C119.818 98.86 120.158 98.9406 120.503 98.9484C120.848 98.9561 121.191 98.8909 121.509 98.7568C121.828 98.6227 122.114 98.4228 122.349 98.1703C122.585 97.9179 122.765 97.6185 122.876 97.2917C124.841 93.4107 127.513 89.9309 130.756 87.0317C131.098 86.6626 131.415 86.2718 131.706 85.8617Z" fill="url(#paint1_linear_35_734)"/>
<path d="M188.236 154.752C189.436 154.682 190.236 153.822 191.236 153.342C194.986 151.532 198.236 149.802 203.056 151.932C212.056 155.932 220.646 151.162 224.566 141.112H224.786L224.996 141.042C227.076 141.552 229.176 142.042 231.236 142.602C241.236 145.492 246.326 154.362 243.766 164.432C241.811 171.92 237.429 178.549 231.306 183.282C216.206 195.442 198.736 201.442 179.506 202.692C177.746 202.812 175.856 202.272 174.246 203.462L172.036 203.392C168.356 202.112 164.476 202.392 160.686 201.842C141.976 199.372 125.386 192.402 111.926 178.842C105.676 172.562 101.926 165.182 103.506 156.012C104.976 147.662 117.036 139.802 125.056 141.672C126.356 141.972 126.506 143.002 126.986 143.832C131.666 151.952 139.986 155.192 148.606 151.722C149.717 151.239 150.92 151.008 152.131 151.046C153.341 151.084 154.528 151.39 155.606 151.942C157.776 152.942 159.716 154.422 162.176 154.702C164 159.049 167.15 162.71 171.176 165.162C171.673 165.416 172.085 165.808 172.365 166.29C172.646 166.772 172.781 167.325 172.756 167.882C173.136 175.062 173.176 175.052 166.256 177.702C165.818 177.834 165.39 177.997 164.976 178.192C163.816 178.812 162.766 179.592 163.296 181.122C163.826 182.652 165.136 182.582 166.416 182.182C168.749 181.589 170.938 180.535 172.856 179.082C174.546 177.642 175.856 178.082 177.426 178.992C179.576 180.252 181.666 181.702 184.166 182.252C185.406 182.532 186.566 182.422 186.996 181.072C187.426 179.722 186.666 178.932 185.436 178.452C183.846 177.832 182.226 177.242 180.706 176.452C176.396 174.282 175.976 167.142 180.036 164.532C183.831 162.334 186.734 158.872 188.236 154.752Z" fill="#ECECE9"/>
<path d="M174.446 226.222C171.906 229.542 168.796 230.712 164.566 229.582C159.036 228.102 153.436 227.032 148.906 223.142C146.836 221.372 146.216 219.572 147.966 217.262C149.586 215.122 150.206 212.902 148.806 210.262C148.367 209.205 148.169 208.064 148.226 206.922C148.166 204.362 149.876 203.102 151.606 204.842C156.046 209.322 161.076 207.222 166.026 207.022C181.753 206.248 197.393 209.786 211.256 217.252C213.196 218.252 214.886 218.852 216.986 217.832C217.932 217.416 218.953 217.202 219.986 217.202C222.916 217.092 223.546 218.052 222.426 220.702C222.346 220.912 222.326 221.202 222.176 221.322C217.796 224.952 218.906 229.892 218.876 234.612C218.93 242.521 217.254 250.347 213.966 257.542C212.216 261.292 210.426 264.862 212.056 269.192C212.546 270.492 212.896 272.452 211.576 273.362C210.086 274.362 208.216 273.362 207.266 272.222C204.116 268.592 200.366 270.352 196.736 270.602C180.386 271.752 164.866 268.792 150.376 261.022C148.236 259.872 146.316 259.222 143.916 260.202C142.706 260.552 141.436 260.65 140.186 260.492C138.626 260.432 137.986 259.492 138.286 257.962C138.391 257.222 138.648 256.512 139.04 255.875C139.433 255.239 139.952 254.691 140.566 254.265C141.18 253.839 141.875 253.544 142.608 253.399C143.341 253.254 144.096 253.261 144.826 253.422C156.656 255.842 168.496 254.982 180.336 253.612C183.4 253.102 186.249 251.713 188.536 249.612C193.236 245.752 193.386 240.932 191.536 235.682C193.536 235.232 195.086 233.932 197.346 232.472C194.226 232.112 192.296 232.842 190.736 234.642C188.976 233.452 187.416 231.942 185.286 231.362C184.918 231.255 184.589 231.044 184.337 230.755C184.085 230.466 183.922 230.111 183.866 229.732C182.936 226.132 180.336 225.092 176.866 225.582C174.956 224.582 175.396 221.642 172.866 220.872C172.889 222.767 173.436 224.618 174.446 226.222ZM214.446 227.942C209.446 234.502 205.026 254.102 207.256 259.752C213.886 252.922 215.946 240.152 214.436 227.942H214.446Z" fill="#ECECE9"/>
<path d="M264.476 119.652C266.876 119.652 269.266 119.652 271.666 119.652C272.876 119.652 273.666 120.072 273.666 121.372C273.709 121.628 273.693 121.89 273.62 122.139C273.548 122.388 273.419 122.617 273.245 122.81C273.071 123.002 272.856 123.152 272.615 123.25C272.375 123.347 272.115 123.389 271.856 123.372C267.856 123.372 263.856 123.522 259.856 123.282C257.646 123.152 257.856 121.472 258.616 119.962C260.208 117.058 262.063 114.307 264.156 111.742C265.096 110.462 266.056 109.192 267.476 107.292C264.856 107.292 262.776 107.212 260.706 107.292C259.216 107.372 258.706 106.842 258.706 105.352C258.706 103.862 259.616 103.772 260.706 103.762C264.026 103.762 267.346 103.702 270.706 103.762C271.576 103.762 272.636 103.442 273.166 104.492C273.696 105.542 273.266 106.682 272.536 107.652C269.976 110.985 267.436 114.362 264.916 117.782C264.649 118.003 264.461 118.305 264.382 118.643C264.302 118.98 264.336 119.335 264.476 119.652Z" fill="white"/>
<path d="M249.166 118.222C247.396 118.222 245.746 118.222 244.096 118.222C243.196 118.222 242.466 117.992 242.376 116.992C242.256 115.762 243.106 115.442 244.116 115.432C246.856 115.432 249.586 115.432 252.326 115.432C253.076 115.432 253.996 115.222 254.416 116.172C254.836 117.122 254.196 117.862 253.636 118.602C251.276 121.602 248.956 124.712 246.636 127.732C247.636 129.022 248.766 128.242 249.636 128.512C251.276 128.992 254.376 127.192 254.376 129.842C254.376 132.962 251.186 130.842 249.466 131.262C247.882 131.447 246.281 131.447 244.696 131.262C241.806 131.202 241.256 130.322 242.806 127.762C244.106 125.632 245.736 123.702 247.126 121.622C247.826 120.692 248.926 119.912 249.166 118.222Z" fill="white"/>
<path d="M221.5 239C222.72 243.17 222.336 252.832 222.816 256.422C222.946 257.422 222.816 258 222.816 258C222.816 258 220.572 258.04 220 258H215.5C215.5 258 217.5 255.5 217.5 254.5L221.5 239Z" fill="#D45343"/>
<path d="M194.606 207.082C195.376 206.912 196.166 206.792 196.916 206.562C200.176 205.562 202.176 206.562 202.656 210.092L194.606 207.082Z" fill="#D76341"/>
<path d="M190.656 234.682C192.216 232.882 194.146 232.152 197.266 232.512C195.006 233.972 193.486 235.272 191.456 235.722C190.826 235.652 190.676 235.222 190.656 234.682Z" fill="#444444"/>
<path d="M174.446 226.222C173.432 224.633 172.875 222.796 172.836 220.912C175.336 221.682 174.896 224.672 176.836 225.622C176.146 226.322 175.266 226.142 174.446 226.222Z" fill="#444444"/>
<path d="M64.0363 245.952C64.1163 245.952 64.2163 245.852 64.2863 245.872C64.3563 245.892 64.3862 246.002 64.4362 246.072L64.0463 246.212L64.0363 245.952Z" fill="#7AA99B"/>
<path d="M275.426 100.862L276.196 101.312C276.056 101.502 275.926 101.702 275.796 101.902L275.136 101.192L275.426 100.862Z" fill="#7AA99B"/>
<path d="M188.236 154.752C186.782 158.887 183.922 162.38 180.156 164.622C176.096 167.232 176.516 174.372 180.826 176.542C182.346 177.312 183.966 177.902 185.556 178.542C186.786 179.022 187.556 179.862 187.116 181.162C186.676 182.462 185.526 182.622 184.286 182.342C181.786 181.792 179.696 180.342 177.546 179.082C175.926 178.142 174.666 177.732 172.976 179.172C171.058 180.625 168.868 181.679 166.536 182.272C165.256 182.672 163.966 182.832 163.416 181.212C162.866 179.592 163.936 178.902 165.096 178.282C165.51 178.088 165.938 177.924 166.376 177.792C173.296 175.142 173.256 175.152 172.876 167.972C172.901 167.415 172.765 166.862 172.485 166.38C172.205 165.898 171.792 165.506 171.296 165.252C167.27 162.8 164.12 159.139 162.296 154.792C163.106 150.972 165.706 149.452 169.366 148.972C173.321 148.343 177.351 148.343 181.306 148.972C184.706 149.592 187.206 151.262 188.236 154.752Z" fill="#424342"/>
<path d="M225.036 141.082L224.826 141.152H224.606L220.176 140.422C217.996 140.982 215.406 138.692 213.536 141.372C210.876 145.172 207.086 145.992 202.906 145.022C200.97 144.621 199.22 143.594 197.926 142.099C196.631 140.605 195.865 138.725 195.746 136.752C195.456 134.172 194.266 133.202 192.246 132.462C190.976 131.262 190.136 129.922 191.416 128.292C192.696 126.662 193.906 127.792 195.116 128.292C203.616 132.062 212.316 135.042 221.676 135.892C226.126 136.292 226.176 136.612 225.036 141.082ZM197.426 134.862C198.626 138.862 200.256 139.442 203.136 136.862L197.426 134.862Z" fill="#424342"/>
<path d="M130.196 141.022C129.196 141.022 128.136 141.022 127.116 140.932C126.489 140.877 125.906 140.588 125.482 140.123C125.058 139.658 124.824 139.051 124.826 138.422C124.776 138.132 124.791 137.835 124.869 137.552C124.946 137.268 125.086 137.006 125.277 136.782C125.468 136.559 125.706 136.38 125.973 136.259C126.241 136.138 126.532 136.078 126.826 136.082C129.526 135.662 132.276 135.532 134.956 135.082C141.907 133.732 148.665 131.529 155.076 128.522C156.426 127.922 157.926 127.102 159.156 128.522C160.386 129.942 159.236 131.232 158.156 132.322C156.296 133.232 155.156 134.202 154.886 136.762C154.226 143.552 146.506 147.522 140.486 144.542C139.806 144.212 138.646 143.542 138.696 143.232C139.226 139.452 136.096 140.552 134.446 140.232C133.136 139.932 131.616 140.712 130.196 141.022ZM147.456 136.892C150.456 139.162 151.456 138.802 153.236 134.822L147.456 136.892Z" fill="#424342"/>
<path d="M215.266 85.1417C220.993 84.1301 226.84 83.9986 232.606 84.7517C236.247 85.1079 239.843 85.835 243.336 86.9217C245.196 87.5717 245.856 88.4917 244.076 90.0017C239.726 93.9181 234.593 96.8633 229.016 98.6417C227.266 99.1517 226.196 98.7517 225.356 97.2017C222.966 92.7417 219.386 89.2317 215.266 85.1417Z" fill="#424342"/>
<path d="M131.706 85.8619C131.399 86.2735 131.065 86.6643 130.706 87.0319C127.463 89.9311 124.791 93.4108 122.826 97.2919C122.715 97.6186 122.535 97.918 122.299 98.1705C122.064 98.423 121.778 98.6228 121.459 98.7569C121.141 98.891 120.798 98.9563 120.453 98.9485C120.108 98.9408 119.768 98.8601 119.456 98.7119C113.861 97.0237 108.71 94.1137 104.376 90.1919C102.636 88.5519 102.896 87.5219 105.076 86.9119C113.169 84.4651 121.675 83.6894 130.076 84.6319C130.826 84.7219 131.536 84.7619 131.706 85.8619Z" fill="#424342"/>
<path d="M130.196 141.022C131.616 140.712 133.136 139.932 134.446 140.202C136.096 140.532 139.226 139.432 138.696 143.202C138.696 143.552 139.806 144.202 140.486 144.512C146.486 147.512 154.226 143.512 154.886 136.732C155.136 134.172 156.296 133.202 158.156 132.292C158.219 135.624 157.215 138.888 155.292 141.61C153.369 144.331 150.628 146.368 147.466 147.422C144.286 148.427 140.861 148.343 137.733 147.184C134.606 146.025 131.954 143.857 130.196 141.022Z" fill="#ECECE9"/>
<path d="M192.246 132.422C194.246 133.162 195.456 134.132 195.746 136.712C195.866 138.685 196.632 140.565 197.926 142.06C199.22 143.554 200.97 144.581 202.906 144.982C207.086 145.982 210.906 145.132 213.536 141.332C215.406 138.652 217.996 140.942 220.176 140.382C219.936 144.382 216.756 145.832 213.846 147.152C203.676 151.782 191.826 143.592 192.246 132.422Z" fill="white"/>
<path d="M214.436 227.942C215.946 240.152 213.886 252.942 207.246 259.752C205.016 254.102 209.446 234.502 214.436 227.942Z" fill="#444444"/>
<path d="M58.3463 240.292C58.2163 240.602 58.1263 240.972 58.0563 240.962C57.7547 240.915 57.4595 240.835 57.1763 240.722C57.2563 240.522 57.3163 240.182 57.4263 240.162C57.7374 240.163 58.0468 240.207 58.3463 240.292Z" fill="#424342"/>
<path d="M197.426 134.862L203.136 136.862C200.256 139.422 198.626 138.892 197.426 134.862Z" fill="#ECECE9"/>
<path d="M147.456 136.892L153.236 134.822C151.476 138.802 150.476 139.162 147.456 136.892Z" fill="#ECECE9"/>
<defs>
<linearGradient id="paint0_linear_35_734" x1="174.224" y1="47.1702" x2="174.594" y2="265.5" gradientUnits="userSpaceOnUse">
<stop offset="0.00961538" stop-color="#D3FFF6"/>
<stop offset="0.386101" stop-color="#AFC7C2"/>
<stop offset="1" stop-color="#29A185"/>
</linearGradient>
<linearGradient id="paint1_linear_35_734" x1="127.684" y1="69" x2="127.684" y2="258.502" gradientUnits="userSpaceOnUse">
<stop stop-color="#E29A3C"/>
<stop offset="1" stop-color="#D34D44"/>
</linearGradient>
</defs>
</svg>