<svg width="352" height="308" viewBox="0 0 352 308" fill="none" xmlns="http://www.w3.org/2000/svg">
<path d="M116.646 286.98C106.306 283.51 96.646 278.72 88.646 271.18C75.646 258.98 70.396 243.35 69.006 226.11C68.216 216.28 69.596 206.52 70.396 196.74C71.396 183.97 72.396 171.14 68.826 158.57C66.436 150.2 62.706 142.31 53.746 139.57C35.746 133.98 22.796 148.02 25.526 165.12C26.756 172.84 31.226 178.84 37.766 183.21C38.866 183.95 39.976 184.66 41.066 185.41C41.136 185.47 41.066 185.73 41.066 186.22C33.0549 185.803 25.4359 182.623 19.506 177.22C0.695984 160.48 -3.81401 139.63 2.99599 116.03C17.066 67.2701 77.996 48.8301 115.626 81.8001C121.177 86.799 125.581 92.9394 128.536 99.8001C129.196 101.35 128.736 103.45 131.066 104.45C131.526 102.29 130.246 100.69 129.686 98.9401C124.997 83.4207 124.075 67.0071 126.996 51.0601C127.756 46.7001 129.296 46.0601 133.196 47.9401C144.076 53.1501 153.386 60.1901 160.326 70.1101C161.956 72.4501 163.166 73.3701 166.226 72.1101C184.646 64.6401 203.286 65.1101 221.836 71.5701C225.506 72.8501 227.476 72.7501 229.966 69.2901C236.77 59.7659 246.043 52.2773 256.786 47.6301C259.956 46.2401 261.576 46.1601 262.276 50.4901C265.076 67.7501 264.656 84.6301 257.536 100.88C257.033 101.883 256.792 102.996 256.836 104.117C256.879 105.238 257.206 106.33 257.786 107.29C262.706 117.395 265.433 128.427 265.786 139.66C265.886 141.71 266.206 143.28 267.996 144.81C280.896 155.81 283.856 169.13 276.736 184.6C269.616 200.07 256.906 210.01 241.416 216.47C239.866 217.11 238.796 218.22 236.626 218.95C246.126 223.51 255.236 224.31 264.626 221.27C264.436 221.74 265.236 221.07 264.626 221.27C264.626 211.39 277.496 206.8 277.606 197.18C277.606 193.93 277.916 189.77 283.016 189.72C287.286 189.72 291.226 193.44 292.016 198.28C292.756 202.83 291.726 207.18 290.266 211.39C290.586 211.68 290.786 212.02 291.006 212.04C302.656 212.74 305.606 215.97 304.836 227.61C304.606 231.1 304.426 234.56 304.426 238.05C304.426 246.11 299 249.5 292.346 250.85C285 251.5 271.5 253 262.006 255.34C257 255.34 251.866 255.98 246.356 254.34C248.516 265.34 250.246 276.09 249.906 287.03C245.511 287.485 241.081 287.485 236.686 287.03C237.756 266.28 234.556 246.31 225.776 227.36C224.696 225.03 224.146 222.61 220.136 223.77C203.136 228.66 185.926 228.01 168.856 223.87C165.926 223.15 164.716 223.8 163.506 226.33C158.762 236.209 155.596 246.77 154.126 257.63C153.696 260.74 154.606 262.28 157.556 263.63C167.956 268.56 170.806 277.15 165.716 286.94C149.366 287.63 132.996 287.39 116.646 286.98ZM180.996 163.25C171.626 159.86 162.906 154.86 153.316 151.98C143.436 148.98 133.676 148.3 124.316 153.63C116.756 157.93 113.316 165.21 114.626 173.73C116.536 185.97 124.276 194.28 133.686 201.29C144.809 209.585 157.697 215.201 171.346 217.7C203.136 223.7 232.606 218.62 258.706 198.7C266.115 193.172 271.524 185.383 274.116 176.51C277.116 166.26 272.646 156.61 263.006 152.09C253.366 147.57 243.796 149.56 234.326 152.63C225.586 155.46 217.576 159.95 209.326 163.94C208.656 159.42 206.126 157.1 201.486 156.65C197.032 156.12 192.53 156.12 188.076 156.65C184.606 157.09 180.996 158.51 180.996 163.25ZM250.886 94.4701C255.686 83.1401 257.736 71.9001 256.356 59.3701C248.796 64.8601 244.106 71.7801 239.226 78.5201C238.446 79.5801 237.816 80.7801 239.326 81.9201C243.796 85.3101 246.446 90.4101 250.906 94.4701H250.886ZM138.096 93.9101C139.491 92.515 140.772 91.0101 141.926 89.4101C144.026 85.9501 149.856 84.2501 149.176 80.2901C148.496 76.3301 144.796 73.0301 142.106 69.6801C139.416 66.3301 136.976 62.5901 132.626 60.6801C130.996 72.0001 133.206 85.4401 138.116 93.9101H138.096ZM231.266 126.76C225.356 126.76 220.506 130.27 218.086 136.21C217.396 137.93 217.46 139.69 219.5 141C221.85 142.51 221.706 140.52 222.746 139.04C225.546 135.04 229.156 132.87 234.236 133.85C237.586 134.5 241 138.5 241 138.5C241 138.5 242.49 136.9 242 135.5C240.01 129.85 237.996 126.7 231.286 126.76H231.266ZM160.036 126.85C153.756 126.8 156 136 156 136C164.55 127.92 161.596 131.42 170.096 139.32C171.176 140.32 172.266 140.95 173.626 140.22C175.156 139.39 174.716 138.08 174.296 136.74C172.736 131.63 165.996 126.89 160.056 126.85H160.036Z" fill="url(#paint0_linear_35_730)"/>
<path d="M209.366 163.9C217.586 159.9 225.596 155.42 234.366 152.59C243.836 149.52 253.366 147.51 263.046 152.05C272.726 156.59 277.166 166.22 274.156 176.47C271.55 185.336 266.131 193.114 258.716 198.63C232.616 218.63 203.146 223.63 171.356 217.63C157.707 215.131 144.819 209.515 133.696 201.22C124.286 194.22 116.546 185.9 114.636 173.66C113.306 165.14 116.766 157.86 124.326 153.56C133.696 148.23 143.456 148.94 153.326 151.91C162.916 154.79 171.636 159.79 181.006 163.18C182.599 167.584 185.498 171.398 189.316 174.11C190.806 175.11 192.636 175.84 192.016 178.25C191.756 179.221 191.228 180.098 190.492 180.783C189.756 181.467 188.843 181.931 187.856 182.12C181.536 183.89 175.686 183.19 170.686 178.51C169.786 177.67 169.106 175.66 167.686 176.62C166.266 177.58 167.006 179.35 167.956 180.57C172.676 186.57 176.146 193.47 180.606 199.65C186.846 208.3 200.016 209.37 207.366 201.75C213.366 195.52 217.316 187.68 222.366 180.7C223.176 179.58 223.736 177.96 222.576 177.06C220.936 175.79 220.486 177.97 219.646 178.73C214.316 183.56 206.216 185.02 200.706 182.03C196.836 179.93 196.566 177.03 200.136 174.66C204.232 172.092 207.451 168.339 209.366 163.9Z" fill="#F0EFEE"/>
<path d="M236.726 287H165.726C170.816 277.21 167.966 268.62 157.566 263.69C154.616 262.3 153.706 260.76 154.136 257.69C155.616 246.818 158.795 236.246 163.556 226.36C164.766 223.83 165.976 223.18 168.906 223.9C185.976 228.04 203.166 228.69 220.186 223.8C224.186 222.64 224.746 225.06 225.826 227.39C234.596 246.28 237.796 266.25 236.726 287Z" fill="#F0EFEE"/>
<path d="M209.366 163.9C207.463 168.365 204.243 172.143 200.136 174.73C196.566 177.06 196.836 180 200.706 182.1C206.216 185.1 214.316 183.63 219.646 178.8C220.486 178.04 220.936 175.86 222.576 177.13C223.736 178.03 223.176 179.65 222.366 180.77C217.296 187.77 213.366 195.59 207.366 201.82C200.016 209.44 186.846 208.37 180.606 199.72C176.146 193.54 172.676 186.72 167.956 180.64C167.006 179.42 166.166 177.69 167.686 176.69C169.206 175.69 169.816 177.74 170.686 178.58C175.686 183.26 181.536 183.96 187.856 182.19C188.843 182.001 189.756 181.537 190.492 180.853C191.228 180.168 191.756 179.291 192.016 178.32C192.636 175.91 190.806 175.21 189.316 174.18C185.494 171.469 182.591 167.656 180.996 163.25C180.996 158.51 184.586 157.09 188.096 156.58C192.55 156.05 197.052 156.05 201.506 156.58C206.166 157.06 208.696 159.38 209.366 163.9ZM194.926 203.46C201.126 203.57 202.806 202.18 203.736 196.07C203.936 194.77 204.066 193.44 204.146 192.12C204.256 190.27 206.146 187.52 203.936 186.77C201.356 185.91 198.256 184 195.446 186C194.146 186.93 194.196 187.18 192.646 186C192.08 185.586 191.435 185.292 190.751 185.137C190.067 184.982 189.358 184.97 188.669 185.1C187.98 185.23 187.325 185.501 186.745 185.895C186.164 186.289 185.671 186.798 185.296 187.39C181.836 193.8 187.806 203.33 194.926 203.46Z" fill="#322C29"/>
<path d="M250.906 94.4701C246.446 90.4101 243.796 85.3101 239.346 81.9201C237.836 80.7801 238.466 79.5801 239.246 78.5201C244.126 71.7801 248.816 64.8601 256.376 59.3701C257.756 71.9001 255.706 83.1401 250.906 94.4701Z" fill="#322C29"/>
<path d="M138.116 93.9099C133.206 85.4399 130.986 71.9999 132.646 60.6799C136.996 62.5899 139.446 66.3199 142.126 69.6799C144.806 73.0399 148.536 76.4499 149.196 80.2899C149.856 84.1299 144.046 85.9499 141.946 89.4099C140.792 91.01 139.511 92.5148 138.116 93.9099Z" fill="#322C29"/>
<path d="M227.438 96.0007C234.158 95.9407 240.438 100.001 242.438 105.611C242.928 107.011 243.758 108.531 242.178 109.681C240.378 111.001 238.988 109.821 237.938 108.461C235.938 105.891 233.768 103.741 230.418 103.091C225.338 102.091 221.728 104.301 218.928 108.281C217.928 109.761 217.098 111.871 214.748 110.361C212.748 109.051 213.578 107.171 214.268 105.451C216.678 99.5106 221.528 96.0407 227.438 96.0007Z" fill="#322C29"/>
<path d="M171.208 97.0907C177.138 97.0907 183.888 101.851 185.468 106.991C185.888 108.331 186.328 109.641 184.798 110.471C183.438 111.201 182.348 110.581 181.268 109.571C172.768 101.671 170.088 101.691 161.538 109.771C160.458 110.771 159.488 111.481 158.078 110.651C156.668 109.821 156.958 108.371 157.208 107.101C158.288 101.761 164.928 97.0407 171.208 97.0907Z" fill="#322C29"/>
<path d="M194.926 203.46C187.806 203.33 181.836 193.8 185.296 187.38C185.671 186.788 186.164 186.279 186.745 185.885C187.325 185.491 187.98 185.22 188.669 185.09C189.358 184.96 190.067 184.972 190.751 185.127C191.435 185.282 192.08 185.576 192.646 185.99C194.196 187.18 194.146 186.93 195.446 185.99C198.256 183.99 201.356 185.9 203.936 186.76C206.156 187.51 204.256 190.26 204.146 192.11C204.066 193.43 203.936 194.76 203.736 196.06C202.806 202.18 201.126 203.57 194.926 203.46Z" fill="#322C29"/>
<path d="M229.218 145.69C227.414 145.701 225.625 145.354 223.955 144.671C222.284 143.988 220.766 142.981 219.486 141.709C218.206 140.436 217.191 138.924 216.498 137.258C215.805 135.591 215.448 133.805 215.448 132C215.423 128.362 216.825 124.859 219.352 122.242C221.879 119.625 225.331 118.102 228.968 118C232.662 118.039 236.193 119.529 238.799 122.148C241.405 124.767 242.877 128.305 242.898 132C242.943 133.809 242.62 135.609 241.949 137.29C241.278 138.97 240.272 140.497 238.993 141.777C237.713 143.058 236.187 144.065 234.507 144.737C232.827 145.41 231.027 145.734 229.218 145.69ZM227.218 142.91C228.5 142.91 229.768 142.657 230.952 142.164C232.135 141.672 233.209 140.951 234.112 140.042C235.016 139.133 235.731 138.054 236.215 136.868C236.7 135.682 236.946 134.411 236.938 133.13C236.938 130.61 235.937 128.194 234.156 126.412C232.374 124.631 229.958 123.63 227.438 123.63C224.919 123.63 222.502 124.631 220.721 126.412C218.939 128.194 217.938 130.61 217.938 133.13C217.918 138.69 221.888 142.88 227.218 142.91Z" fill="#ECECE9"/>
<path d="M167.028 145.66C165.188 145.692 163.36 145.355 161.651 144.669C159.943 143.983 158.39 142.962 157.083 141.666C155.775 140.371 154.741 138.826 154.039 137.124C153.338 135.423 152.985 133.598 153 131.757C153.016 129.916 153.4 128.098 154.129 126.408C154.858 124.718 155.919 123.191 157.247 121.917C158.576 120.643 160.146 119.649 161.866 118.991C163.585 118.334 165.418 118.028 167.258 118.09C174.888 118.18 180.668 124.25 180.628 132.09C180.599 135.685 179.156 139.125 176.611 141.664C174.066 144.204 170.623 145.639 167.028 145.66ZM168.688 142.92C174.098 143.07 178.348 138.65 178.428 132.79C178.428 128.27 174.178 123.74 169.638 123.55C168.326 123.465 167.01 123.651 165.773 124.097C164.536 124.542 163.404 125.238 162.448 126.141C161.492 127.044 160.732 128.134 160.216 129.343C159.7 130.552 159.438 131.855 159.448 133.17C159.408 137.98 163.218 143.12 168.688 142.92Z" fill="#ECECE9"/>
<path d="M227.218 142.91C221.928 142.91 217.958 138.69 217.978 133.15C217.978 130.63 218.979 128.214 220.761 126.432C222.542 124.651 224.959 123.65 227.478 123.65C229.998 123.65 232.414 124.651 234.196 126.432C235.977 128.214 236.978 130.63 236.978 133.15C236.983 134.433 236.735 135.705 236.246 136.891C235.757 138.078 235.039 139.156 234.131 140.063C233.224 140.97 232.146 141.689 230.959 142.178C229.773 142.666 228.501 142.915 227.218 142.91ZM230.418 126.25C230.01 126.249 229.607 126.332 229.232 126.493C228.857 126.653 228.519 126.889 228.238 127.184C227.957 127.48 227.74 127.83 227.599 128.213C227.458 128.595 227.396 129.003 227.418 129.41C227.418 131.41 228.688 132.5 230.688 132.53C231.118 132.572 231.552 132.521 231.96 132.381C232.368 132.24 232.741 132.013 233.053 131.715C233.366 131.416 233.61 131.054 233.77 130.653C233.929 130.252 234 129.821 233.978 129.39C233.958 127.48 232.658 126.34 230.378 126.25H230.418Z" fill="#322C29"/>
<path d="M168.688 142.92C163.218 143.12 159.408 137.98 159.448 133.17C159.438 131.855 159.7 130.552 160.216 129.343C160.732 128.134 161.492 127.044 162.448 126.141C163.404 125.238 164.536 124.542 165.773 124.097C167.01 123.651 168.326 123.465 169.638 123.55C174.178 123.74 178.478 128.27 178.428 132.79C178.348 138.65 174.098 143.07 168.688 142.92ZM175.688 129.49C175.228 127.66 174.278 126.34 172.218 126.39C171.812 126.375 171.408 126.448 171.032 126.602C170.656 126.756 170.317 126.988 170.038 127.283C169.759 127.578 169.546 127.93 169.413 128.314C169.28 128.698 169.231 129.105 169.268 129.51C169.268 131.51 170.538 132.62 172.608 132.58C174.678 132.54 175.288 131.2 175.658 129.49H175.688Z" fill="#322C29"/>
<path d="M230.378 126.25C232.658 126.34 233.958 127.48 233.928 129.39C233.95 129.821 233.879 130.252 233.72 130.653C233.56 131.054 233.316 131.416 233.003 131.714C232.691 132.013 232.318 132.24 231.91 132.38C231.502 132.521 231.068 132.572 230.638 132.53C228.638 132.53 227.348 131.38 227.368 129.41C227.346 129.002 227.408 128.594 227.55 128.21C227.691 127.827 227.91 127.477 228.192 127.181C228.473 126.885 228.813 126.65 229.189 126.489C229.565 126.329 229.969 126.248 230.378 126.25Z" fill="#ECECE9"/>
<path d="M175.658 129.49C175.288 131.2 174.578 132.55 172.578 132.58C170.578 132.61 169.248 131.51 169.238 129.51C169.201 129.105 169.25 128.698 169.383 128.314C169.516 127.93 169.729 127.578 170.008 127.283C170.287 126.988 170.626 126.756 171.002 126.602C171.378 126.448 171.782 126.376 172.188 126.39C174.218 126.34 175.218 127.66 175.658 129.49Z" fill="#ECECE9"/>
<path d="M109.646 286.98C126.006 287.39 142.366 287.59 158.716 286.98H229.716C234.111 287.435 238.541 287.435 242.936 286.98C261.086 287.05 279.246 287.04 297.396 287.28C301.176 287.28 300.756 285.15 300.756 282.79C300.816 261.99 300.966 241.18 300.956 220.38C300.956 189.75 300.736 159.13 300.826 128.5C300.826 124.71 299.636 122.4 296.616 120.3C286.496 113.3 276.616 105.98 266.476 98.9301C263.786 97.0601 262.886 95.2001 264.136 91.9301C266.056 86.9901 266.396 81.6402 267.376 76.1702C268.069 76.3352 268.74 76.5802 269.376 76.9001C295.456 95.0801 321.516 113.29 347.556 131.53C351.936 134.61 352.816 138.84 350.886 143.43C348.396 149.35 342.116 151.43 336.376 147.92C331.056 144.63 326.036 140.86 320.076 136.75C320.076 139.36 320.076 141.11 320.076 142.86C320.263 186.3 320.443 229.737 320.616 273.17C320.616 280.66 320.466 288.17 320.406 295.64C320.336 304.07 317.106 307.37 308.596 307.38C265.929 307.42 223.279 307.42 180.646 307.38C144.153 307.38 107.666 307.36 71.1861 307.32C60.6761 307.32 57.6361 304.55 57.4861 294.23C57.2961 281.85 57.436 269.47 58.006 256.97C63.096 265.06 68.786 272.31 76.006 278.32C77.386 279.47 77.306 281.03 77.116 282.45C76.616 286.1 77.7961 287.37 81.6861 287.21C90.9961 286.97 100.316 287.07 109.646 286.98Z" fill="url(#paint1_linear_35_730)"/>
<path d="M194.696 29C197.698 29.1478 200.596 30.1429 203.056 31.87C213.316 39.25 223.566 46.62 233.956 53.81C236.746 55.75 237.856 57.18 234.446 59.45C233.395 60.2659 232.427 61.1837 231.556 62.19C223.706 70.1 223.696 70.12 214.276 63.77C209.046 60.24 203.706 56.83 198.726 52.97C196.046 50.9 194.186 51.28 191.726 53.07C184.496 58.38 177.046 63.41 169.876 68.8C167.656 70.48 166.436 70.43 164.506 68.49C161.365 65.2884 157.989 62.3268 154.406 59.63C151.806 57.71 152.666 56.84 154.646 55.41C165.699 47.41 176.719 39.3867 187.706 31.34C189.763 29.905 192.19 29.0926 194.696 29Z" fill="#D3FFF6"/>
<path d="M194.58 181.22C196.158 181.819 197.697 182.514 199.19 183.3C200.39 184.01 202.85 184.63 202.85 184.63C202.923 185.711 202.746 186.795 202.334 187.797C201.921 188.8 201.283 189.693 200.47 190.41C198.77 191.87 196.77 192.64 194.73 190.79L194.58 181.22Z" fill="#ECECE9"/>
<path d="M194.16 190.81C191.86 192.69 189.96 191.72 188.3 189.89C186.908 188.159 186.102 186.029 186 183.81C188.952 183.573 191.807 182.641 194.33 181.09C194.27 184.337 194.213 187.577 194.16 190.81Z" fill="#ECECE9"/>
<path d="M194.16 190.81C194.207 187.577 194.263 184.337 194.33 181.09L194.52 181L194.58 181.22L194.73 190.79L194.16 190.81Z" fill="#D76342"/>
<path d="M193.898 204C192.697 203.971 191.516 203.692 190.427 203.178C189.338 202.665 188.364 201.929 187.567 201.016C186.714 200.057 186.811 199.233 187.943 198.648C191.87 196.624 195.81 196.335 199.822 198.507C201.124 199.22 201.469 200.008 200.234 201.238C199.414 202.106 198.43 202.798 197.342 203.273C196.253 203.747 195.082 203.994 193.898 204ZM193.407 203.385C194.492 203.439 195.575 203.25 196.581 202.834C197.587 202.417 198.49 201.782 199.229 200.973C200.016 200.186 199.919 199.528 199.024 198.919C196.863 197.442 190.987 197.541 188.784 199.03C187.785 199.712 187.852 200.395 188.675 201.023C190.291 202.222 192.009 203.293 193.395 203.354L193.407 203.385Z" fill="#9C664C"/>
<path d="M193 203.5C191 203 190.41 202.303 188.755 201.192C187.912 200.636 187.733 199.673 188.755 199.056C191 197.5 197 197.5 199.243 198.956C200.161 199.512 200.26 200.101 199.454 200.813C198.697 201.544 198.03 202.624 197 203C195.97 203.376 194.111 203.548 193 203.5Z" fill="#C35F46"/>
<path d="M307.104 22.0652C307.964 24.9752 309.724 26.7052 313.294 27.9752C309.514 28.3352 307.784 29.8952 306.594 33.3252C305.964 29.8352 304.594 28.0652 300.994 27.4152C304.494 26.2952 307.044 25.5952 307.104 22.0652Z" fill="#C5C259"/>
<path d="M113.914 38.4053C113.704 38.4053 113.564 38.4053 113.494 38.3253C112.654 37.6053 113.014 36.8553 113.624 36.3253C114.974 35.1353 115.834 32.7653 118.064 33.4553C119.174 33.8053 118.184 35.0453 117.544 35.6053C116.384 36.6153 115.394 37.9053 113.914 38.4053Z" fill="#C5C259"/>
<path d="M122.984 29.5953C122.204 29.4953 121.664 29.0753 121.984 28.4953C122.375 27.6349 122.936 26.8625 123.634 26.2249C124.332 25.5873 125.151 25.0976 126.044 24.7853C126.594 24.6353 127.274 25.1553 126.904 25.7853C125.944 27.4853 124.814 28.9753 122.984 29.5953Z" fill="#C5C259"/>
<path d="M113.474 25.4153C113.594 24.7653 113.674 24.1153 114.224 24.2953C116.224 24.9953 117.424 26.6753 118.384 28.4753C118.456 28.6003 118.489 28.7437 118.48 28.8876C118.47 29.0315 118.418 29.1694 118.331 29.2839C118.243 29.3983 118.123 29.4842 117.987 29.5308C117.85 29.5773 117.703 29.5824 117.564 29.5453C115.554 28.7653 114.534 26.9653 113.474 25.4153Z" fill="#C5C259"/>
<path d="M125.334 38.4852C124.531 38.0628 123.82 37.4857 123.242 36.7872C122.663 36.0886 122.229 35.2825 121.964 34.4152C121.933 34.3037 121.934 34.1858 121.967 34.0748C121.999 33.9638 122.062 33.8642 122.149 33.7872C122.235 33.7102 122.341 33.6589 122.455 33.6391C122.569 33.6194 122.687 33.6318 122.794 33.6752C123.707 34.0031 124.533 34.5333 125.212 35.226C125.891 35.9187 126.404 36.756 126.714 37.6752C126.964 38.3052 126.324 38.6152 125.334 38.4852Z" fill="#C5C259"/>
<path d="M288.244 40.9552C288.874 41.0952 289.154 41.0752 289.304 41.2052C290.776 42.2941 291.764 43.9168 292.054 45.7252C292.054 45.8152 291.104 46.2152 290.884 46.0652C290.051 45.5027 289.373 44.74 288.912 43.8472C288.45 42.9543 288.221 41.9599 288.244 40.9552Z" fill="#C5C259"/>
<path d="M165.024 14.5453C166.482 15.4037 167.556 16.7888 168.024 18.4153C168.184 18.9353 168.024 19.7753 167.294 19.5553C165.494 19.0153 164.934 17.2953 164.194 15.7953C163.884 15.1053 164.424 14.8153 165.024 14.5453Z" fill="#C5C259"/>
<path d="M283.244 42.3953C282.174 43.5753 282.704 45.9453 280.584 46.5353C279.954 46.7153 279.654 45.9253 279.844 45.3753C280.384 43.8453 280.594 42.0253 282.464 41.3753C282.964 41.2653 283.244 41.7153 283.244 42.3953Z" fill="#C5C259"/>
<path d="M290.654 36.4852C291.014 35.9752 291.064 35.8352 291.154 35.7952C292.844 35.0052 294.564 34.5152 296.324 35.5652C296.379 35.7125 296.399 35.8708 296.382 36.0272C296.364 36.1836 296.31 36.3336 296.224 36.4652C294.454 37.6152 292.674 37.3852 290.654 36.4852Z" fill="#C5C259"/>
<path d="M279.774 36.7653C279.654 36.9453 279.614 37.0653 279.534 37.1153C278.778 37.6795 277.873 38.0073 276.931 38.0571C275.99 38.1069 275.054 37.8766 274.244 37.3952C273.874 37.1852 274.034 36.3952 274.474 36.2752C276.244 35.6852 278.104 35.4053 279.774 36.7653Z" fill="#C5C259"/>
<path d="M288.004 31.6453C287.764 31.4353 287.634 31.3753 287.614 31.2953C287.455 30.4051 287.546 29.4883 287.876 28.6464C288.206 27.8045 288.762 27.0704 289.484 26.5253C289.577 26.4617 289.684 26.4237 289.797 26.4151C289.909 26.4065 290.021 26.4275 290.122 26.4762C290.224 26.5249 290.311 26.5994 290.374 26.6923C290.438 26.7852 290.475 26.8931 290.484 27.0053C290.564 27.9358 290.373 28.8698 289.933 29.6935C289.492 30.5172 288.822 31.1953 288.004 31.6453Z" fill="#C5C259"/>
<path d="M282.184 30.7152C282.264 31.5252 281.994 32.1552 281.334 31.8652C279.694 31.1352 278.964 29.5552 278.334 27.9952C278.287 27.8559 278.28 27.7064 278.314 27.5634C278.347 27.4204 278.42 27.2896 278.524 27.1857C278.628 27.0818 278.759 27.009 278.902 26.9753C279.045 26.9417 279.194 26.9486 279.334 26.9952C281.104 27.6352 281.574 29.3352 282.184 30.7152Z" fill="#C5C259"/>
<path d="M155.524 10.6653C155.324 11.0153 155.264 11.3053 155.104 11.3853C153.554 12.0953 151.974 12.8353 150.254 11.9653C149.814 11.7453 149.684 10.9653 150.094 10.8253C151.844 10.0853 153.654 9.53527 155.524 10.6653Z" fill="#C5C259"/>
<path d="M156.664 20.5952C156.464 20.2652 156.274 20.0852 156.254 19.8852C156.136 19.0487 156.239 18.196 156.553 17.4118C156.867 16.6277 157.381 15.9393 158.044 15.4152C158.132 15.3358 158.242 15.2845 158.36 15.2676C158.477 15.2508 158.597 15.2693 158.704 15.3207C158.811 15.3721 158.901 15.4542 158.961 15.5564C159.022 15.6587 159.05 15.7766 159.044 15.8952C159.044 17.8352 158.684 19.6252 156.664 20.5952Z" fill="#C5C259"/>
<path d="M154.754 0.72522C155.182 1.01089 155.575 1.34659 155.924 1.72522C156.674 2.80522 157.924 3.65522 157.764 5.16522C157.764 5.35522 157.254 5.69524 157.044 5.65524C155.384 5.30524 155.044 3.74524 154.274 2.55524C153.954 1.99524 154.124 1.48522 154.754 0.72522Z" fill="#C5C259"/>
<path d="M166.704 10.2352C166.704 9.70519 166.624 9.54519 166.704 9.48519C168.094 7.83519 169.924 8.15519 171.704 8.42519C171.884 8.42519 172.184 9.11519 172.124 9.17519C170.554 10.7352 168.654 10.4852 166.704 10.2352Z" fill="#C5C259"/>
<path d="M163.534 5.37527C162.634 3.15527 163.534 1.55525 164.854 0.135248C164.944 0.0671027 165.05 0.0229383 165.162 0.00683026C165.274 -0.00927778 165.388 0.00321491 165.494 0.0431462C165.6 0.0830774 165.694 0.149143 165.767 0.235193C165.841 0.321243 165.891 0.424451 165.914 0.535242C165.995 1.48223 165.817 2.43352 165.397 3.28646C164.978 4.13941 164.334 4.86165 163.534 5.37527Z" fill="#C5C259"/>
<defs>
<linearGradient id="paint0_linear_35_730" x1="152.475" y1="46.7822" x2="152.475" y2="287.376" gradientUnits="userSpaceOnUse">
<stop stop-color="#E29A3C"/>
<stop offset="1" stop-color="#D34D44"/>
</linearGradient>
<linearGradient id="paint1_linear_35_730" x1="204.63" y1="76.1702" x2="205" y2="294.5" gradientUnits="userSpaceOnUse">
<stop offset="0.00961538" stop-color="#D3FFF6"/>
<stop offset="0.386101" stop-color="#AFC7C2"/>
<stop offset="1" stop-color="#29A185"/>
</linearGradient>
</defs>
</svg>