<svg width="318" height="279" viewBox="0 0 318 279" fill="none" xmlns="http://www.w3.org/2000/svg">
<path d="M63.7599 258.48C80.1199 258.89 96.48 259.09 112.83 258.48H183.83C188.225 258.935 192.655 258.935 197.05 258.48C215.2 258.55 233.36 258.54 251.51 258.78C255.29 258.78 254.87 256.65 254.87 254.29C254.93 233.49 255.08 212.68 255.07 191.88C255.07 161.25 254.85 130.63 254.94 100C254.94 96.2102 253.75 93.9002 250.73 91.8002C240.61 84.8002 230.73 77.4801 220.59 70.4301C217.9 68.5601 173.52 38.5 173.52 38.5C173.52 38.5 188.54 31.97 189.52 26.5C190.213 26.665 222.854 48.0802 223.49 48.4001C249.57 66.5801 275.63 84.7902 301.67 103.03C306.05 106.11 306.93 110.34 305 114.93C302.51 120.85 296.23 122.93 290.49 119.42C285.17 116.13 280.15 112.36 274.19 108.25C274.19 110.86 274.19 112.61 274.19 114.36C274.377 157.8 274.557 201.237 274.73 244.67C274.73 252.16 274.58 259.67 274.52 267.14C274.45 275.57 271.22 278.87 262.71 278.88C220.043 278.92 177.393 278.92 134.76 278.88C98.2666 278.88 61.7799 278.86 25.2999 278.82C14.7899 278.82 11.75 276.05 11.6 265.73C11.41 253.35 11.03 141.292 11.6 128.792C16.69 136.882 24.0099 119.99 31.2299 126C31.2299 126 31.4199 252.53 31.2299 253.95C30.7299 257.6 31.9099 258.87 35.7999 258.71C45.1099 258.47 54.4299 258.57 63.7599 258.48Z" fill="url(#paint0_linear_36_766)"/>
<path d="M152.29 3C155.292 3.14785 158.19 4.14293 160.65 5.87001C170.91 13.25 182.61 21.81 193 29C195.45 31.19 195.45 31.18 192.04 33.45C190.989 34.2659 190.021 35.1837 189.15 36.19C181.3 44.1 177 41 177 41C171.77 37.47 161.3 30.83 156.32 26.97C153.64 24.9 151.78 25.28 149.32 27.07C142.09 32.38 79.1702 71.61 72.0002 77C68.8597 73.7984 40.0002 77 40.0002 77C40.0002 77 112.02 28.5 114 27.07C125.054 19.07 134.313 13.3867 145.3 5.34001C147.357 3.90501 149.784 3.09263 152.29 3Z" fill="#D3FFF6"/>
<path d="M53.0364 246.952C53.1164 246.952 53.2164 246.852 53.2864 246.872C53.3564 246.892 53.3864 247.002 53.4364 247.072L53.0464 247.212L53.0364 246.952Z" fill="#7AA99B"/>
<path d="M264.426 101.862L265.196 102.312C265.056 102.502 264.926 102.702 264.796 102.902L264.136 102.192L264.426 101.862Z" fill="#7AA99B"/>
<path d="M47.3464 241.292C47.2164 241.602 47.1265 241.972 47.0565 241.962C46.7549 241.915 46.4597 241.835 46.1765 241.722C46.2565 241.522 46.3165 241.182 46.4265 241.162C46.7376 241.163 47.047 241.207 47.3464 241.292Z" fill="#424342"/>
<path d="M62.8825 189.23C64.1625 177.71 64.8825 166.23 61.8825 154.8C59.8825 147.41 56.8825 140.58 49.0825 137.67C41.8125 134.95 34.7925 135.67 28.9125 141.13C22.7825 146.81 21.6525 154.07 23.2125 161.95C23.9025 165.4 25.8325 168.25 27.8325 171.05C27.5925 172.54 28.1625 173.31 29.7325 173.17L30.3925 173.82C30.6125 174.03 30.8325 174.24 31.0425 174.46H31.0925L31.7425 175.04L31.8825 175.11C31.2225 176.97 29.5125 176.53 28.1425 176.81H28.0425C27.9929 176.694 27.9204 176.59 27.8294 176.503C27.7384 176.417 27.6308 176.349 27.513 176.305C27.3952 176.261 27.2698 176.242 27.1442 176.248C27.0187 176.254 26.8956 176.285 26.7825 176.34L26.5425 176.2C26.1825 175.33 25.4625 175.32 24.6925 175.42C24.5601 175.187 24.3629 174.998 24.125 174.876C23.8871 174.753 23.6187 174.702 23.3525 174.73L22.5025 174.21C5.2425 163.61 -3.11751 143.93 1.06249 123.49C3.89249 109.65 10.0625 97.6396 20.8325 88.2196C22.7025 86.5796 23.7225 85.9696 25.4925 88.5296C28.9825 93.5296 34.1625 95.8896 40.2725 95.7596C42.3083 95.6411 44.3214 96.239 45.9625 97.4496C53.8725 103.13 60.9625 103.31 69.1925 97.8996C71.2725 96.5396 71.8525 97.0296 72.8825 98.9496C75.8825 104.57 80.6525 107.05 86.4925 105.71C89.7925 104.95 90.2225 105.98 89.9925 108.87C89.6825 112.87 91.3925 115.49 94.9925 117.01C96.5057 117.733 98.2039 117.975 99.8591 117.706C101.514 117.436 103.047 116.666 104.252 115.5C105.523 114.33 106.416 112.808 106.817 111.128C107.218 109.448 107.108 107.687 106.502 106.07C105.172 102.46 101.252 100.28 96.7025 100.84C94.7925 101.08 93.6325 101.16 94.7025 98.6996C96.3225 95.0296 95.7025 91.5596 93.5825 88.2496C93.0525 87.3996 92.1525 86.6396 92.4825 85.4796C92.9125 83.9496 93.0925 82.0096 94.4825 81.2496C95.8725 80.4896 97.2025 81.9296 98.3425 82.8096C104.952 87.8996 110.472 93.9196 114.172 101.55C116.552 99.1296 116.873 98.2196 115.793 94.7796C112.464 83.8178 111.202 72.3326 112.073 60.9096C112.293 57.4996 113.072 54.1196 113.332 50.7096C113.602 47.8196 115.242 47.6096 117.402 48.3896C120.42 49.4766 123.281 50.956 125.912 52.7896C131.997 56.9289 137.41 61.9777 141.962 67.7596C144.072 70.4796 146.442 70.8296 149.512 69.7596C165.512 64.0696 181.512 63.7596 197.572 69.6796C201.632 71.1596 203.383 70.4596 206.183 66.9996C212.083 59.7196 218.753 53.3596 227.373 49.3596C232.073 47.1696 233.272 47.6496 234.062 52.6196C236.252 66.5196 235.762 80.2296 230.572 93.4996C229.915 94.9546 229.575 96.5329 229.575 98.1296C229.575 99.7263 229.915 101.305 230.572 102.76C234.857 112.155 237.152 122.335 237.312 132.66L237.892 133.46C237.572 135.61 239.272 136.6 240.452 137.89C241.452 139.03 242.952 139.94 242.452 141.84C241.952 143.74 239.942 142.18 239.062 143.26C234.732 140.27 229.649 138.558 224.392 138.32C223.377 138.229 222.355 138.391 221.418 138.793C220.48 139.194 219.657 139.822 219.022 140.62C215.752 144.29 211.382 147.04 206.632 145.87C200.372 144.33 195.633 146.95 190.483 149.31C189.243 149.88 187.913 150.25 186.623 150.72C185.483 146.45 183.562 144.78 179.312 144.4C175.453 144.041 171.568 144.058 167.712 144.45C164.212 144.8 161.653 146.34 161.163 150.19C157.594 149.381 154.157 148.075 150.952 146.31C149.986 145.751 148.917 145.392 147.809 145.255C146.701 145.117 145.576 145.204 144.502 145.51C138.642 146.91 132.843 146.18 128.793 141.33C126.373 138.42 123.792 138.17 120.672 138.67C118.289 138.979 115.943 139.532 113.672 140.32C105.442 143.43 101.552 149.11 101.612 157.87C101.612 162.98 104.002 167.3 106.052 171.75C104.282 171.33 103.632 169.94 102.912 168.44C101.173 164.79 100.533 160.84 99.6325 156.91C98.2825 160.72 100.362 164.77 98.4925 168.47C98.3925 168.67 98.7025 169.09 98.8625 169.4C100.232 172.07 99.1225 173.23 96.4125 173.4C95.8403 173.424 95.2804 173.573 94.7724 173.838C94.2643 174.102 93.8206 174.475 93.4725 174.93C90.8725 178.27 90.2525 178.28 87.2125 174.87C86.2125 173.73 84.9425 172.92 83.6425 173.72C81.4525 175.07 79.4825 176.72 77.2125 178.03C75.6325 178.94 74.6525 179.33 73.0725 178.83C71.4925 178.33 70.3025 177.96 68.6125 179.07C64.8325 181.56 64.0125 185.14 63.9125 189.18L62.8825 189.23ZM127.882 131.37C130.753 138.78 135.373 142.19 142.163 141.92C145.156 141.816 148.044 140.791 150.432 138.983C152.82 137.175 154.591 134.673 155.502 131.82C157.072 126.56 155.682 120.88 152.142 118.1C153.142 116.83 153.282 115.51 151.892 114.53C150.502 113.55 149.533 114.64 148.603 115.53C142.473 121.12 135.662 125.29 127.212 126.25C125.712 126.42 124.113 126.92 124.323 128.94C124.533 130.96 126.213 131.23 127.882 131.37ZM195.053 118.09C193.613 118.41 193.192 119.7 192.632 120.77C191.659 122.554 191.076 124.524 190.922 126.551C190.768 128.577 191.047 130.613 191.74 132.523C192.433 134.434 193.525 136.175 194.943 137.631C196.36 139.087 198.071 140.225 199.962 140.97C207.812 144.06 217.483 139.97 219.173 131.12C220.733 130.94 222.583 131.12 222.853 128.93C223.123 126.74 221.442 126.45 220.002 126.22C211.906 125.068 204.42 121.267 198.712 115.41C197.712 114.41 196.442 113.6 195.072 114.71C193.702 115.82 194.353 116.95 195.053 118.09ZM228.832 58.6796C222.932 63.4833 217.864 69.227 213.832 75.6796C213.492 76.1463 213.327 76.7184 213.367 77.2948C213.408 77.8712 213.65 78.4148 214.053 78.8296C216.903 82.1096 219.753 85.3996 222.613 88.6596C223.513 89.6596 224.393 89.7296 224.923 88.3396C228.493 79.0696 230.252 69.5396 228.832 58.6796ZM117.442 66.8096C117.347 73.6304 118.657 80.3978 121.293 86.6896C122.723 89.9696 122.973 90.0196 125.103 87.2796C126.563 85.2407 128.28 83.3988 130.212 81.7996C133.412 79.3496 133.852 77.1796 131.512 73.8896C129.172 70.5996 126.592 67.5996 123.962 64.5996C122.422 62.8496 120.672 59.8596 118.462 60.7096C116.422 61.4896 117.882 64.8496 117.442 66.8096Z" fill="url(#paint1_linear_36_766)"/>
<path d="M63.9425 189.14C64.0425 185.14 64.8625 181.52 68.6425 179.03C70.3325 177.92 71.6425 178.31 73.1025 178.79C74.5625 179.27 75.6625 178.9 77.2425 177.99C79.5125 176.68 81.4825 174.99 83.6725 173.68C84.9725 172.88 86.2125 173.68 87.2425 174.83C90.2425 178.24 90.9025 178.23 93.5025 174.89C93.8506 174.435 94.2943 174.062 94.8024 173.798C95.3104 173.533 95.8703 173.384 96.4425 173.36C99.1525 173.17 100.262 172.01 98.8925 169.36C98.7325 169.05 98.4225 168.63 98.5225 168.43C100.392 164.73 98.3125 160.68 99.6625 156.87C100.562 160.8 101.202 164.75 102.942 168.4C103.662 169.9 104.312 171.29 106.082 171.71V171.8L106.602 172.54L107.282 173.43C107.266 173.675 107.341 173.917 107.492 174.111C107.643 174.305 107.861 174.436 108.102 174.48L108.172 174.55L108.742 175.21L108.832 175.29C108.832 177.07 109.692 177.93 111.452 177.95L111.532 178.04L112.162 178.64L112.242 178.71L112.892 179.28L112.972 179.35L113.612 179.89L113.732 180L114.332 180.49L114.482 180.62C114.482 181.23 114.892 181.46 115.482 181.5C141.262 199.92 169.582 204.31 200.062 196.77C200.632 197.35 201.062 197.18 201.342 196.49L201.243 196.57C201.636 196.711 202.066 196.719 202.464 196.59C202.862 196.462 203.206 196.205 203.442 195.86L203.332 195.92C203.732 196.032 204.156 196.017 204.547 195.877C204.937 195.737 205.275 195.48 205.512 195.14L205.363 195.22C205.654 195.271 205.953 195.238 206.226 195.124C206.499 195.011 206.733 194.822 206.902 194.58H206.822C207.219 194.669 207.633 194.636 208.01 194.484C208.387 194.332 208.709 194.069 208.933 193.73H208.792C209.356 193.92 209.97 193.888 210.51 193.638C211.049 193.389 211.473 192.942 211.692 192.39L211.592 192.45C211.885 192.483 212.18 192.432 212.444 192.302C212.708 192.173 212.93 191.971 213.082 191.72L212.982 191.77C213.27 191.795 213.559 191.742 213.82 191.617C214.08 191.493 214.302 191.3 214.462 191.06H214.382C214.666 191.079 214.949 191.021 215.203 190.892C215.456 190.764 215.67 190.57 215.822 190.33H215.752C216.942 190.38 218.202 190.57 218.562 188.95H218.512C218.796 188.966 219.079 188.909 219.333 188.782C219.588 188.656 219.804 188.466 219.962 188.23H219.892C220.179 188.249 220.466 188.188 220.72 188.054C220.975 187.92 221.187 187.717 221.332 187.47H221.252C226.252 186.75 229.612 183.32 233.412 180.57C234.282 179.95 234.833 178.57 236.183 179.09C237.533 179.61 236.992 181.09 237.252 182.09H237.183L236.522 182.75L235.863 183.4V183.48C233.482 183.41 232.173 184.57 231.863 186.92H231.722L231.042 187.54C230.042 187.43 229.132 187.6 229.042 188.91H228.942C228.687 188.854 228.421 188.893 228.191 189.018C227.962 189.142 227.785 189.345 227.692 189.59H227.582L226.902 190.17C226.637 190.135 226.367 190.182 226.129 190.306C225.891 190.429 225.697 190.622 225.572 190.86L224.852 191.47C224.583 191.46 224.315 191.522 224.078 191.65C223.84 191.779 223.642 191.968 223.502 192.2C223.221 192.176 222.939 192.245 222.701 192.397C222.462 192.548 222.28 192.774 222.183 193.04C220.513 194.61 217.122 193.78 216.642 197.04C215.902 198.1 216.643 198.19 217.423 198.19V198.27C217.643 198.49 217.852 198.72 218.072 198.95L218.743 199.62L219.392 200.33C219.362 200.591 219.422 200.854 219.565 201.075C219.707 201.296 219.922 201.46 220.173 201.54L220.222 201.65L220.803 202.3L220.873 202.36C220.814 202.611 220.856 202.876 220.988 203.098C221.12 203.319 221.333 203.481 221.582 203.55L221.722 203.75C221.272 204.86 221.943 205.66 222.373 206.6C224.973 212.17 227.373 217.8 228.373 223.92C229.073 228.28 228.373 234 228.373 234C228.373 234 225.834 243.353 222.183 247.937C217.733 253.523 209.572 257.5 207.072 259H190C187.39 258.69 188.59 255.98 188.5 254.26C188.36 250.58 191.132 246.65 193.792 244.5C195.042 243.5 199.032 241.94 199.382 240.22L200.072 239.57C204.302 238.71 205.552 235.1 207.072 231.85C210.522 224.54 209.142 217.76 204.562 211.4L204.642 211.52C204.722 211.231 204.711 210.925 204.608 210.644C204.506 210.362 204.319 210.12 204.072 209.95V210.03C204.173 209.633 204.142 209.214 203.983 208.837C203.824 208.46 203.547 208.145 203.192 207.94L203.272 208.08C203.332 207.782 203.297 207.473 203.174 207.195C203.05 206.917 202.844 206.685 202.582 206.53L202.652 206.66C202.691 206.359 202.63 206.055 202.478 205.793C202.326 205.531 202.092 205.326 201.812 205.21L201.982 205.35L201.192 204.51L200.623 203.92L199.762 203.19L199.962 203.3C198.502 201.83 196.802 202.42 195.142 202.76C189.069 204.329 182.856 205.294 176.592 205.64C168.383 205.792 160.184 204.959 152.173 203.16C150.503 202.78 148.293 201.8 147.173 204.42L147.232 204.34L146.452 205.12H146.522C143.862 205.25 144.023 207.77 143.123 209.3C140.963 212.99 141.123 217.73 137.933 221.04C137.483 221.51 137.542 222.54 137.482 223.32C137.062 228.39 139.033 232.68 141.993 236.6C143.123 238.1 143.932 240.08 146.312 240.06C146.722 241.76 148.113 242.59 149.373 243.6C150.951 244.738 152.25 246.222 153.17 247.937C154.09 249.652 154.607 251.555 154.683 253.5C154.773 256.08 154 259 154 259C146.9 258.92 136.6 258.95 129.5 259C127 255.5 125.761 250.964 124.762 249.71C123.201 247.465 121.861 245.074 120.762 242.57C114.842 227.77 119.182 214.69 127.892 202.46C128.992 200.91 130.673 199.72 129.803 197.46L129.082 196.12C128.52 194.948 127.573 194.003 126.4 193.443C125.227 192.883 123.898 192.741 122.632 193.04C122.522 193.38 122.402 193.71 122.292 194.04C121.812 194.13 121.292 194.42 121.382 194.87C122.262 198.55 120.622 201.47 118.892 204.52C113.962 213.25 111.232 222.62 112.162 232.7C112.492 236.36 112.372 240.42 115.592 243.24V243.37C115.532 245.63 115.592 247.84 118.292 248.71L118.402 248.82C118.213 249.956 118.483 251.122 119.152 252.06C121.762 256.8 121.152 257.81 115.602 257.84C108.782 257.84 101.982 257.72 95.1625 257.34C91.0679 257.258 87.1267 255.768 84.0025 253.12C82.1025 251.5 80.5625 249.06 77.5925 249.03L77.5325 248.96L76.9025 248.33L76.8225 248.26C77.0325 247 76.3125 246.14 75.6025 245.2C67.0625 233.88 63.0925 221.05 63.1225 206.92C63.2325 200.97 63.1125 195.04 63.9425 189.14Z" fill="url(#paint2_linear_36_766)"/>
<path d="M237.262 182.32C237.002 181.27 237.482 179.84 236.192 179.32C234.902 178.8 234.292 180.18 233.422 180.8C229.622 183.55 226.212 186.98 221.262 187.7C222.182 187.06 223.092 186.38 224.042 185.78C231.042 181.34 237.302 176.17 241.492 168.78C246.842 159.4 246.082 150.78 239.082 143.18C239.962 142.1 241.942 143.66 242.472 141.76C243.002 139.86 241.542 138.95 240.472 137.81C239.292 136.52 237.592 135.53 237.912 133.38C257.472 148.54 250.312 170.37 237.262 182.32Z" fill="url(#paint3_linear_36_766)"/>
<path d="M122.202 259.27C111.762 259.73 101.322 259.6 90.8725 259.27C86.1325 256.27 81.0625 253.77 77.6925 249.05C80.6925 249.05 82.2025 251.52 84.1025 253.14C87.2267 255.788 91.168 257.278 95.2625 257.36C102.083 257.74 108.882 257.9 115.702 257.86C121.262 257.86 121.863 256.86 119.253 252.08C118.583 251.142 118.313 249.976 118.503 248.84C120.393 252.06 124.372 254.58 122.202 259.27Z" fill="url(#paint4_linear_36_766)"/>
<path d="M63.9425 189.14C63.1125 195.04 63.2325 200.97 63.2225 206.9C63.2225 221.03 67.1625 233.9 75.7025 245.18C76.4125 246.12 77.1325 246.98 76.9225 248.24C71.1425 243.46 68.2225 236.89 65.7925 230.1C61.0125 216.76 60.7925 203.1 62.8825 189.23L63.9425 189.14Z" fill="url(#paint5_linear_36_766)"/>
<path d="M28.1925 176.95C29.5625 176.67 31.2725 177.11 31.9325 175.25C33.6516 175.976 35.1734 177.1 36.3725 178.53C33.2025 178.46 30.5925 178.38 28.1925 176.95Z" fill="url(#paint6_linear_36_766)"/>
<path d="M231.852 187.2C232.132 184.85 233.442 183.69 235.852 183.76C234.93 185.312 233.526 186.52 231.852 187.2Z" fill="url(#paint7_linear_36_766)"/>
<path d="M29.7125 173.17C28.1425 173.31 27.5725 172.54 27.8125 171.05L29.7125 173.17Z" fill="url(#paint8_linear_36_766)"/>
<path d="M229.042 189.24C229.102 187.93 229.962 187.76 231.042 187.87C230.845 188.243 230.56 188.563 230.212 188.802C229.863 189.041 229.462 189.191 229.042 189.24Z" fill="url(#paint9_linear_36_766)"/>
<path d="M217.353 198.58C216.533 198.58 215.832 198.49 216.572 197.43L217.353 198.58Z" fill="url(#paint10_linear_36_766)"/>
<path d="M24.7426 175.53C25.5126 175.43 26.2326 175.44 26.5926 176.31C26.2449 176.331 25.8971 176.272 25.5762 176.136C25.2553 176.001 24.97 175.793 24.7426 175.53Z" fill="url(#paint11_linear_36_766)"/>
<path d="M227.693 189.95C227.785 189.705 227.962 189.502 228.191 189.378C228.421 189.253 228.687 189.214 228.943 189.27C228.83 189.499 228.65 189.687 228.426 189.809C228.202 189.931 227.946 189.98 227.693 189.95Z" fill="url(#paint12_linear_36_766)"/>
<path d="M23.3724 174.81C23.6386 174.782 23.907 174.833 24.145 174.956C24.3829 175.078 24.58 175.267 24.7124 175.5L23.3724 174.81Z" fill="url(#paint13_linear_36_766)"/>
<path d="M26.8325 176.45C26.9456 176.395 27.0687 176.364 27.1942 176.358C27.3198 176.352 27.4453 176.371 27.563 176.415C27.6808 176.459 27.7884 176.526 27.8794 176.613C27.9704 176.7 28.0429 176.804 28.0925 176.92L26.8325 176.45Z" fill="url(#paint14_linear_36_766)"/>
<path d="M221.533 203.99C221.283 203.921 221.07 203.759 220.938 203.538C220.806 203.316 220.764 203.051 220.823 202.8L221.533 203.99Z" fill="url(#paint15_linear_36_766)"/>
<path d="M220.122 201.98C219.872 201.9 219.657 201.736 219.515 201.515C219.372 201.294 219.312 201.031 219.342 200.77L220.122 201.98Z" fill="url(#paint16_linear_36_766)"/>
<path d="M223.432 192.62C223.572 192.388 223.77 192.199 224.008 192.07C224.245 191.942 224.513 191.88 224.782 191.89C224.643 192.121 224.445 192.311 224.207 192.439C223.97 192.567 223.702 192.63 223.432 192.62Z" fill="url(#paint17_linear_36_766)"/>
<path d="M222.112 193.47C222.21 193.204 222.392 192.978 222.63 192.827C222.869 192.675 223.151 192.606 223.432 192.63L222.112 193.47Z" fill="url(#paint18_linear_36_766)"/>
<path d="M225.592 191.28C225.717 191.042 225.911 190.849 226.149 190.726C226.387 190.602 226.657 190.555 226.922 190.59C226.793 190.822 226.597 191.012 226.361 191.134C226.125 191.257 225.857 191.308 225.592 191.28Z" fill="url(#paint19_linear_36_766)"/>
<path d="M217.982 199.34C217.762 199.11 217.552 198.88 217.332 198.66C217.592 198.88 217.762 199.11 217.982 199.34Z" fill="url(#paint20_linear_36_766)"/>
<path d="M239.083 143.2C246.083 150.76 246.843 159.42 241.493 168.8C237.303 176.15 231.043 181.32 224.043 185.8C223.043 186.4 222.183 187.08 221.263 187.72H221.333C221.048 187.71 220.767 187.775 220.516 187.908C220.265 188.042 220.053 188.239 219.903 188.48H219.973C219.689 188.459 219.404 188.515 219.149 188.641C218.894 188.768 218.678 188.961 218.523 189.2H218.573C217.52 189.37 216.541 189.851 215.763 190.58H215.833C215.55 190.568 215.269 190.629 215.017 190.757C214.765 190.884 214.55 191.075 214.393 191.31H214.473C214.184 191.279 213.893 191.329 213.632 191.454C213.37 191.58 213.149 191.776 212.993 192.02L213.093 191.97C212.801 191.939 212.506 191.991 212.242 192.12C211.979 192.249 211.757 192.45 211.603 192.7L211.703 192.64C210.609 192.736 209.584 193.21 208.803 193.98H208.943C208.549 193.946 208.153 194.005 207.786 194.153C207.42 194.301 207.093 194.533 206.833 194.83H206.903C206.313 194.83 205.713 194.83 205.373 195.47L205.523 195.39C205.125 195.356 204.724 195.408 204.348 195.543C203.972 195.677 203.629 195.891 203.343 196.17L203.453 196.11C202.663 196.18 201.843 196.11 201.253 196.82L201.353 196.74L200.073 197.02C169.593 204.56 141.273 200.17 115.493 181.75L114.493 180.87L114.343 180.74L113.743 180.25L113.623 180.14L112.983 179.6L112.903 179.53L112.253 178.96L112.173 178.89L111.543 178.29L111.463 178.2C110.822 177.111 109.922 176.197 108.843 175.54L108.753 175.46L108.183 174.8L108.113 174.73L107.293 173.68C107.063 173.38 106.843 173.08 106.613 172.79L106.093 172.05V171.96C104.043 167.51 101.693 163.19 101.653 158.08C101.593 149.32 105.483 143.64 113.713 140.53C115.983 139.742 118.329 139.189 120.713 138.88C123.853 138.38 126.413 138.63 128.833 141.54C132.833 146.39 138.683 147.12 144.543 145.72C145.616 145.414 146.741 145.327 147.849 145.465C148.957 145.602 150.026 145.961 150.993 146.52C154.197 148.285 157.634 149.591 161.203 150.4C161.754 152.622 162.781 154.698 164.215 156.483C165.648 158.269 167.452 159.721 169.503 160.74C172.503 162.33 171.043 165.18 171.233 167.5C171.413 169.61 169.523 169.15 168.313 169.5C164.603 170.362 161.36 172.604 159.243 175.77C158.563 176.83 157.733 178.06 159.123 179.09C160.513 180.12 161.553 179.28 162.573 178.09C169.433 170.36 178.233 170.44 185.083 178.25C185.923 179.2 186.703 180.4 188.183 179.42C189.823 178.32 188.963 177 188.253 175.83C186.033 172.19 182.493 170.47 178.573 169.32C177.573 169.02 176.293 169.08 176.143 167.44C175.873 164.59 175.873 162.13 178.983 160.49C180.884 159.548 182.557 158.201 183.884 156.544C185.21 154.888 186.159 152.961 186.663 150.9C187.953 150.43 189.283 150.06 190.523 149.49C195.643 147.13 200.413 144.49 206.673 146.05C211.423 147.22 215.793 144.47 219.063 140.8C219.697 140.002 220.52 139.374 221.458 138.973C222.395 138.571 223.417 138.409 224.433 138.5C229.658 138.671 234.732 140.299 239.083 143.2ZM222.083 152.98C222.083 150.48 219.033 145.08 217.543 145.51C214.933 146.27 214.543 149.14 213.473 151.34C213.351 151.66 213.28 151.997 213.263 152.34C213.193 152.966 213.254 153.599 213.441 154.2C213.628 154.802 213.938 155.358 214.35 155.834C214.762 156.31 215.268 156.695 215.837 156.967C216.405 157.238 217.023 157.389 217.653 157.41C220.203 157.64 222.013 155.82 222.043 152.98H222.083Z" fill="white"/>
<path d="M186.642 150.66C186.139 152.721 185.19 154.648 183.864 156.304C182.537 157.961 180.864 159.307 178.962 160.25C175.852 161.89 175.853 164.35 176.123 167.2C176.273 168.84 177.533 168.78 178.553 169.08C182.473 170.23 186.013 171.95 188.233 175.59C188.943 176.76 189.802 178.08 188.162 179.18C186.682 180.18 185.902 178.96 185.062 178.01C178.212 170.2 169.413 170.12 162.553 177.85C161.553 179 160.553 179.85 159.103 178.85C157.653 177.85 158.542 176.59 159.222 175.53C161.34 172.364 164.583 170.122 168.293 169.26C169.503 168.92 171.392 169.38 171.212 167.26C171.022 164.94 172.503 162.09 169.483 160.5C167.432 159.481 165.628 158.028 164.195 156.243C162.761 154.458 161.734 152.382 161.183 150.16C161.673 146.31 164.183 144.77 167.733 144.42C171.588 144.028 175.473 144.011 179.332 144.37C183.592 144.76 185.502 146.39 186.642 150.66Z" fill="#424342"/>
<path d="M195.052 118.09C194.352 116.95 193.822 115.72 195.052 114.71C196.282 113.7 197.712 114.4 198.692 115.41C204.399 121.267 211.886 125.068 219.982 126.22C221.422 126.45 223.082 126.86 222.832 128.93C222.582 131 220.712 130.93 219.152 131.12C216.012 130.29 213.722 130.12 212.352 134.3C210.982 138.48 207.122 140.13 202.662 139.72C200.826 139.603 199.067 138.937 197.614 137.808C196.161 136.679 195.08 135.14 194.512 133.39C193.062 129.58 193.322 125.9 196.692 123.12C198.062 121.98 197.942 121.25 196.792 120.18C196.17 119.519 195.589 118.821 195.052 118.09ZM202.592 127.56C202.062 125.71 201.052 124.46 198.992 124.56C196.932 124.66 196.152 126.13 196.232 127.79C196.202 128.225 196.271 128.662 196.436 129.067C196.601 129.471 196.857 129.832 197.183 130.122C197.51 130.412 197.899 130.623 198.32 130.739C198.741 130.855 199.184 130.872 199.612 130.79C201.502 130.54 202.242 129.23 202.592 127.56Z" fill="black"/>
<path d="M127.882 131.37C126.212 131.23 124.552 130.95 124.322 128.9C124.092 126.85 125.712 126.38 127.212 126.21C135.662 125.21 142.472 121.08 148.602 115.49C149.532 114.64 150.602 113.6 151.892 114.49C153.182 115.38 153.172 116.79 152.142 118.06C151.598 118.797 151.003 119.495 150.362 120.15C149.232 121.15 149.072 121.82 150.362 123.09C153.762 126.46 154.212 129.84 152.272 133.99C151.455 135.79 150.109 137.299 148.413 138.316C146.717 139.333 144.752 139.809 142.778 139.682C140.805 139.555 138.917 138.831 137.366 137.605C135.814 136.379 134.673 134.71 134.092 132.82C133.432 130.15 132.322 129.88 130.092 130.7C129.412 131.01 128.512 130.76 127.882 131.37ZM147.592 124.45C147.178 124.472 146.773 124.578 146.4 124.76C146.028 124.943 145.696 125.199 145.425 125.512C145.153 125.826 144.947 126.191 144.82 126.585C144.692 126.98 144.646 127.396 144.682 127.81C144.674 128.215 144.749 128.619 144.903 128.994C145.058 129.369 145.288 129.709 145.581 129.991C145.873 130.272 146.22 130.491 146.601 130.632C146.982 130.773 147.387 130.833 147.792 130.81C148.222 130.845 148.654 130.787 149.059 130.641C149.464 130.494 149.832 130.263 150.14 129.961C150.447 129.659 150.686 129.295 150.84 128.892C150.994 128.49 151.06 128.059 151.032 127.63C151.072 125.7 149.862 124.51 147.592 124.45Z" fill="black"/>
<path d="M228.832 58.6796C230.252 69.5396 228.492 79.0696 224.892 88.3496C224.362 89.7396 223.482 89.6996 222.582 88.6696C219.722 85.4096 216.872 82.1196 214.022 78.8396C213.62 78.4248 213.378 77.8812 213.337 77.3048C213.297 76.7284 213.462 76.1563 213.802 75.6896C217.842 69.2311 222.92 63.4838 228.832 58.6796Z" fill="url(#paint21_linear_36_766)"/>
<path d="M117.443 66.8096C117.883 64.8096 116.443 61.4896 118.443 60.7096C120.653 59.8596 122.443 62.8496 123.943 64.5996C126.573 67.5996 129.173 70.5996 131.493 73.8896C133.813 77.1796 133.392 79.3496 130.192 81.7996C128.26 83.3988 126.543 85.2407 125.083 87.2796C122.953 90.0196 122.703 89.9696 121.273 86.6896C118.644 80.3963 117.34 73.629 117.443 66.8096Z" fill="url(#paint22_linear_36_766)"/>
<path d="M127.882 131.37C128.512 130.73 129.412 131.01 130.132 130.74C132.312 129.92 133.422 130.19 134.132 132.86C134.712 134.75 135.854 136.419 137.406 137.645C138.957 138.871 140.845 139.595 142.818 139.722C144.792 139.849 146.757 139.373 148.453 138.356C150.149 137.339 151.495 135.83 152.312 134.03C154.252 129.88 153.802 126.5 150.402 123.13C149.122 121.86 149.282 121.22 150.402 120.19C151.043 119.535 151.638 118.837 152.182 118.1C155.722 120.88 157.112 126.56 155.542 131.82C154.631 134.673 152.86 137.175 150.472 138.983C148.084 140.791 145.196 141.816 142.202 141.92C135.372 142.19 130.752 138.76 127.882 131.37Z" fill="white"/>
<path d="M195.053 118.09C195.596 118.822 196.183 119.52 196.812 120.18C197.962 121.25 198.082 121.98 196.712 123.12C193.342 125.9 193.082 129.58 194.532 133.39C195.1 135.14 196.181 136.679 197.634 137.808C199.087 138.937 200.846 139.603 202.683 139.72C207.143 140.13 211.013 138.43 212.373 134.3C213.733 130.17 216.033 130.3 219.173 131.12C217.483 140 207.812 144.06 199.962 140.97C198.067 140.23 196.35 139.094 194.927 137.639C193.504 136.184 192.408 134.442 191.711 132.53C191.013 130.618 190.731 128.579 190.883 126.55C191.035 124.52 191.618 122.546 192.592 120.76C193.192 119.7 193.593 118.41 195.053 118.09Z" fill="white"/>
<path d="M191.5 259H153.441C156.446 251.272 153.461 245.814 145.5 241.071C136.615 235.741 131.808 227.832 130 218.963C131.415 212.879 133.959 207.009 137.545 201.556H137.454L138.469 200.725L138.39 200.81C139.232 200.438 140.158 200.21 141.111 200.141C142.063 200.071 143.023 200.161 143.932 200.405C159.623 203.313 175.824 203.894 191.765 202.121C196.89 201.567 201.69 199.499 207.024 200.117L206.764 200L207.883 200.778L208.624 201.407L209.652 202.302L209.431 202.153C209.587 202.761 209.717 203.39 210.523 203.699L210.432 203.56C210.388 203.876 210.448 204.196 210.606 204.487C210.764 204.777 211.014 205.028 211.33 205.212L211.226 205.063C211.395 205.884 211.408 206.747 212.371 207.291V207.206C212.286 207.514 212.311 207.835 212.443 208.131C212.574 208.428 212.806 208.688 213.112 208.879L213.008 208.751C214.01 211.949 214.244 220.392 214.244 220.392C212.253 229.505 206.93 235.968 198.5 241.5C191.449 246.211 188.963 252.114 191.5 259Z" fill="white"/>
<path d="M122.202 259.27C124.372 254.58 120.392 252.06 118.502 248.8L118.392 248.7C117.786 246.783 116.874 244.976 115.692 243.35V243.22C110.992 228.28 114.272 214.59 122.442 201.78C124.242 198.95 123.162 196.59 122.392 194.02C122.502 193.69 122.622 193.36 122.722 193.02L129.182 196.09C129.422 196.53 129.662 196.98 129.912 197.42C125.762 201.36 123.032 206.23 120.852 211.42C115.972 223.1 114.492 234.8 121.202 246.35C123.532 250.35 126.302 254.17 125.442 259.22L122.202 259.27Z" fill="url(#paint23_linear_36_766)"/>
<path d="M122.362 194.02C123.132 196.59 124.212 198.95 122.412 201.78C114.242 214.59 110.962 228.28 115.662 243.22C112.442 240.4 112.562 236.34 112.232 232.68C111.302 222.6 114.032 213.23 118.962 204.5C120.692 201.45 122.332 198.5 121.452 194.85C121.342 194.4 121.882 194.11 122.362 194.02Z" fill="url(#paint24_linear_36_766)"/>
<path d="M129.152 196.1L122.693 193.03C123.958 192.725 125.29 192.864 126.465 193.423C127.641 193.981 128.589 194.926 129.152 196.1Z" fill="url(#paint25_linear_36_766)"/>
<path d="M115.692 243.35C116.874 244.976 117.786 246.783 118.392 248.7C115.692 247.82 115.592 245.61 115.692 243.35Z" fill="url(#paint26_linear_36_766)"/>
<path d="M108.872 175.27C109.952 175.927 110.852 176.841 111.492 177.93C109.732 177.91 108.832 177.05 108.872 175.27Z" fill="url(#paint27_linear_36_766)"/>
<path d="M215.762 190.46C216.541 189.731 217.52 189.25 218.572 189.08C218.212 190.7 216.952 190.51 215.762 190.46Z" fill="url(#paint28_linear_36_766)"/>
<path d="M208.802 193.76C209.584 192.99 210.609 192.516 211.702 192.42C211.483 192.972 211.059 193.419 210.52 193.668C209.98 193.918 209.366 193.95 208.802 193.76Z" fill="url(#paint29_linear_36_766)"/>
<path d="M201.252 196.55C201.842 195.86 202.662 195.91 203.452 195.84C203.216 196.185 202.872 196.442 202.474 196.57C202.076 196.699 201.646 196.691 201.252 196.55Z" fill="url(#paint30_linear_36_766)"/>
<path d="M206.832 194.59C207.093 194.292 207.419 194.061 207.786 193.913C208.153 193.765 208.549 193.706 208.942 193.74C208.719 194.079 208.397 194.342 208.02 194.494C207.643 194.646 207.229 194.679 206.832 194.59Z" fill="url(#paint31_linear_36_766)"/>
<path d="M203.342 195.9C203.629 195.621 203.972 195.407 204.348 195.273C204.724 195.138 205.124 195.086 205.522 195.12C205.285 195.46 204.947 195.717 204.557 195.857C204.166 195.997 203.742 196.012 203.342 195.9Z" fill="url(#paint32_linear_36_766)"/>
<path d="M214.392 191.16C214.55 190.925 214.765 190.734 215.017 190.607C215.269 190.479 215.55 190.418 215.832 190.43C215.68 190.67 215.466 190.864 215.213 190.992C214.959 191.121 214.676 191.179 214.392 191.16Z" fill="url(#paint33_linear_36_766)"/>
<path d="M218.522 189.11C218.678 188.871 218.894 188.678 219.149 188.551C219.404 188.425 219.688 188.369 219.972 188.39C219.814 188.626 219.598 188.816 219.343 188.942C219.089 189.069 218.806 189.126 218.522 189.11Z" fill="url(#paint34_linear_36_766)"/>
<path d="M219.902 188.42C220.053 188.179 220.265 187.982 220.516 187.848C220.767 187.715 221.048 187.65 221.332 187.66C221.19 187.908 220.98 188.112 220.727 188.246C220.474 188.38 220.188 188.441 219.902 188.42Z" fill="url(#paint35_linear_36_766)"/>
<path d="M107.322 173.41L108.142 174.46C107.901 174.416 107.683 174.285 107.532 174.091C107.381 173.897 107.306 173.655 107.322 173.41Z" fill="url(#paint36_linear_36_766)"/>
<path d="M114.522 180.6L115.522 181.48C114.932 181.44 114.592 181.21 114.522 180.6Z" fill="url(#paint37_linear_36_766)"/>
<path d="M200.072 196.76L201.352 196.48C201.052 197.16 200.642 197.33 200.072 196.76Z" fill="url(#paint38_linear_36_766)"/>
<path d="M211.592 192.51C211.747 192.26 211.969 192.059 212.232 191.93C212.496 191.801 212.791 191.749 213.082 191.78C212.93 192.031 212.708 192.233 212.444 192.362C212.18 192.492 211.885 192.543 211.592 192.51Z" fill="url(#paint39_linear_36_766)"/>
<path d="M205.372 195.2C205.712 194.59 206.312 194.56 206.902 194.56C206.737 194.803 206.504 194.993 206.232 195.107C205.961 195.22 205.662 195.253 205.372 195.2Z" fill="url(#paint40_linear_36_766)"/>
<path d="M212.993 191.83C213.149 191.585 213.37 191.39 213.632 191.264C213.893 191.139 214.184 191.089 214.473 191.12C214.312 191.36 214.09 191.552 213.83 191.677C213.569 191.802 213.28 191.855 212.993 191.83Z" fill="url(#paint41_linear_36_766)"/>
<path d="M200.082 240.04L199.392 240.69C199.307 240.605 199.227 240.515 199.152 240.42L199.862 239.8L200.082 240.04Z" fill="url(#paint42_linear_36_766)"/>
<path d="M222.042 152.98C222.042 155.82 220.202 157.64 217.612 157.41C216.983 157.389 216.365 157.238 215.797 156.967C215.228 156.695 214.722 156.31 214.31 155.834C213.898 155.358 213.588 154.802 213.401 154.2C213.214 153.599 213.153 152.966 213.222 152.34C213.24 151.997 213.311 151.66 213.432 151.34C214.432 149.14 214.892 146.27 217.502 145.51C218.992 145.08 222.072 150.48 222.042 152.98Z" fill="#009AED"/>
<path d="M202.593 127.56C202.263 129.23 201.523 130.56 199.593 130.74C199.164 130.822 198.721 130.805 198.3 130.689C197.879 130.573 197.49 130.362 197.164 130.072C196.837 129.782 196.581 129.421 196.416 129.017C196.251 128.612 196.182 128.175 196.213 127.74C196.133 126.08 196.933 124.58 198.973 124.51C201.013 124.44 202.043 125.76 202.593 127.56Z" fill="white"/>
<path d="M147.592 124.45C149.822 124.51 151.032 125.7 151.032 127.61C151.06 128.04 150.994 128.47 150.84 128.872C150.686 129.275 150.447 129.639 150.14 129.941C149.833 130.243 149.464 130.474 149.059 130.621C148.654 130.767 148.222 130.825 147.792 130.79C147.387 130.813 146.982 130.753 146.601 130.612C146.22 130.471 145.873 130.252 145.581 129.971C145.288 129.689 145.058 129.349 144.903 128.974C144.749 128.599 144.674 128.195 144.683 127.79C144.648 127.378 144.697 126.964 144.826 126.572C144.955 126.179 145.161 125.817 145.432 125.505C145.703 125.194 146.034 124.94 146.405 124.759C146.777 124.577 147.18 124.472 147.592 124.45Z" fill="white"/>
<path d="M4 56.2735C4.39977 49.7388 7.06487 44.3256 13.34 41.3752C14.0848 41.1189 14.7336 40.6392 15.1993 40.0005C15.6649 39.3619 15.925 38.595 15.9445 37.8031C17.7253 24.9896 26.5566 18.9669 38.9615 22.0758C39.5748 22.3203 40.2524 22.3486 40.8838 22.156C41.5151 21.9634 42.063 21.5613 42.4382 21.0151C51.33 11.2618 63.2867 11.6885 71.5122 22.2343C71.9882 22.9677 72.678 23.5349 73.4871 23.8579C74.2961 24.181 75.1847 24.2441 76.0308 24.0387C87.8421 22.4659 97.3396 31.7682 95.9465 43.5454C95.8249 44.1944 95.8839 44.8647 96.1169 45.4821C96.3499 46.0996 96.7479 46.6402 97.2669 47.0444C107.358 57.0294 105.989 68.9894 93.9477 76.0606C93.4015 76.3082 92.9276 76.6926 92.5713 77.1772C92.215 77.6617 91.9881 78.2302 91.9125 78.8281C91.5823 80.7474 90.9656 82.6053 90.0833 84.3388C89.2231 86.0456 89.1626 86.9844 90.798 88.4352C94.6382 91.8245 95.147 95.2504 93.0997 99.6638C92.2625 101.436 90.8924 102.899 89.1834 103.844C87.4745 104.789 85.5134 105.169 83.5779 104.931C81.4901 104.747 79.5166 103.891 77.9499 102.49C76.3833 101.089 75.3068 99.2173 74.88 97.1523C74.1289 93.9702 68.2899 92.2756 65.8428 94.4945C57.7384 101.895 47.9017 101.809 39.87 94.019C39.2367 93.2532 38.3946 92.6906 37.4476 92.4003C36.5005 92.11 35.4898 92.1048 34.5398 92.3853C24.0368 94.6286 13.7519 85.7286 13.5217 74.2319C13.5744 73.3688 13.3841 72.5083 12.9726 71.7491C12.5612 70.99 11.9453 70.3631 11.1958 69.9404C6.58028 66.734 4.39977 62.1011 4 56.2735ZM41.772 61.6988C33.0376 61.0648 28.2404 65.8806 28.0829 75.4389C28.0102 80.1083 28.8704 80.9251 33.0497 81.1811C37.2291 81.4372 37.5805 79.072 37.3503 75.8899C37.2534 74.3782 37.1322 72.6348 38.8282 71.8545C40.5242 71.0742 41.5418 72.7201 42.6684 73.6345C47.8654 77.8772 53.7165 80.0473 60.4156 78.9623C63.7438 78.4154 66.9251 77.1872 69.7627 75.3536C72.6004 73.52 75.0341 71.12 76.9133 68.302C78.7925 65.484 80.0773 62.308 80.6881 58.9704C81.299 55.6327 81.2229 52.2044 80.4646 48.8975C78.3446 39.2173 69.5619 33.9993 61.0819 37.4495C56.4422 39.3514 55.788 39.0832 55.6427 33.792C55.5336 30.2564 53.8982 29.0251 50.797 29.147C47.6958 29.2689 45.6364 30.9513 45.9513 34.4626C46.3026 38.9003 47.502 42.9967 50.9303 46.0569C52.218 47.1236 53.0398 48.6552 53.2198 50.324C54.1526 58.6387 50.4336 62.3815 41.772 61.6988Z" fill="#ECECE9"/>
<path d="M98.5224 102.004C99.4884 101.971 100.451 102.134 101.354 102.485C102.257 102.837 103.081 103.368 103.778 104.049C104.475 104.73 105.03 105.546 105.412 106.448C105.793 107.351 105.993 108.323 105.998 109.305C106.04 111.288 105.311 113.208 103.97 114.649C102.628 116.089 100.782 116.934 98.8319 116.999C96.7978 117.025 94.8355 116.235 93.3698 114.801C91.9041 113.367 91.0527 111.404 91 109.337C91.0181 108.352 91.2273 107.381 91.6155 106.48C92.0038 105.578 92.5635 104.763 93.2624 104.081C93.9614 103.4 94.7859 102.866 95.6886 102.509C96.5912 102.153 97.5543 101.981 98.5224 102.004Z" fill="#ECECE9"/>
<path d="M41.3056 61.7368C50.3164 62.407 54.1494 58.5249 53.0812 49.9767C52.8944 48.2458 52.0418 46.6573 50.7059 45.5508C47.1494 42.3768 45.9052 38.128 45.5408 33.5251C45.2643 29.8833 47.162 28.1635 50.5677 28.0117C53.9735 27.86 55.5318 29.1625 55.5946 32.8296C55.7454 38.2798 56.4241 38.5579 61.2374 36.6232C70.0345 33.0446 79.1458 38.4568 81.3451 48.4972C82.1317 51.9271 82.2106 55.483 81.5769 58.9448C80.9433 62.4066 79.6105 65.7008 77.661 68.6237C75.7115 71.5465 73.1867 74.0358 70.2429 75.9377C67.2991 77.8395 63.9988 79.1134 60.5462 79.6806C53.5964 80.806 47.5264 78.5551 42.1351 74.1546C40.9663 73.2062 40.0363 71.4611 38.1512 72.3083C36.2661 73.1556 36.5174 74.9259 36.618 76.4939C36.8568 79.7944 36.4169 82.2349 32.1566 81.982C27.8963 81.7291 26.9286 80.8692 27.004 76.0261C27.2679 66.1121 32.2446 61.1172 41.3056 61.7368Z" fill="#BA6054"/>
<path d="M254.859 67.6988C257.999 64.5888 260.149 61.8288 261.119 58.3288C261.417 57.5997 261.487 56.7973 261.319 56.0277C261.151 55.2581 260.754 54.5576 260.179 54.0188C257.224 51.0396 254.954 47.4518 253.527 43.5054C252.101 39.5591 251.552 35.349 251.919 31.1688C252.199 27.1688 253.919 23.2888 255.919 19.7088C262.299 8.55882 276.669 2.21883 290.499 4.43883C296.868 5.40127 302.789 8.29252 307.465 12.7231C312.14 17.1537 315.346 22.9108 316.649 29.2188C319.549 43.3288 309.649 58.3688 294.519 62.5988C288.239 64.3488 281.869 64.7788 275.589 62.6788C274.715 62.3294 273.758 62.2379 272.833 62.4152C271.908 62.5924 271.053 63.0309 270.369 63.6788C266.109 67.1688 261.159 68.1688 254.859 67.6988ZM274.589 20.0288C272.919 19.5188 271.879 16.3288 269.399 19.4188C267.059 22.3388 270.399 22.6888 271.009 24.1888C271.479 24.9656 272.047 25.6782 272.699 26.3088C269.829 31.9588 268.229 37.7688 270.539 44.0588C270.259 44.4188 270.019 44.8088 269.719 45.1388C268.919 46.0088 267.459 46.7488 269.159 48.0588C270.349 48.9788 271.159 51.2888 273.219 49.1288C273.729 50.9488 273.939 53.7088 276.169 53.4588C279.379 53.0988 282.869 53.5988 285.829 51.8788C288.329 50.4288 291.769 49.8788 292.229 46.1288C294.559 46.7888 295.489 49.1988 297.459 50.3088C301.039 46.9788 301.029 46.9788 297.669 43.5488C296.941 43.0044 296.391 42.2561 296.089 41.3988C297.839 40.9788 297.439 38.6988 299.209 38.0488C301.609 37.1788 302.079 34.8888 301.709 32.6288C301.269 29.9188 300.309 27.3688 297.819 25.7488C296.989 24.2688 298.359 23.6588 299.089 22.9788C300.639 21.5388 300.769 20.6588 299.089 18.9788C297.139 17.0388 296.499 18.5988 295.419 19.5888C294.589 20.3588 293.729 21.0888 292.879 21.8288C293.219 19.7088 294.219 17.6788 294.009 15.4788C293.859 13.9888 293.159 12.7788 291.389 13.0488C289.619 13.3188 289.719 14.4088 289.919 15.8688C290.509 20.0888 290.469 19.9788 286.189 18.8688C282.229 17.8888 278.159 16.7588 274.589 20.0288Z" fill="#ECECE9"/>
<path d="M293.668 20.2189C291.078 23.0306 288.465 25.8185 285.909 28.6538C284.902 29.8402 284.099 30.3859 282.82 28.8911C279.653 25.1897 275.818 22.1408 272.979 18.0954C277.029 14.216 281.633 15.5566 286.101 16.7429C290.942 18.0242 288.647 18.7696 287.979 13.7988C287.753 12.0668 290.128 10.135 291.983 9.83838C293.838 9.54179 294.777 10.9536 294.947 12.7212C295.184 15.2956 294.053 17.7039 293.668 20.2189Z" fill="#ECECE9"/>
<path d="M296.089 41.3988C293.089 39.8588 289.469 36.3688 286.979 34.2988C286.509 33.8988 287.349 31.2988 287.979 30.7988C291.109 28.3288 294.559 15.8488 298.479 14.2988C300.979 15.9188 301.269 29.9188 301.709 32.6288C302.079 34.8888 301.609 37.1788 299.209 38.0488C297.439 38.6988 297.839 40.9788 296.089 41.3988Z" fill="#ECECE9"/>
<path d="M272.699 26.3088C272.809 26.3088 272.959 26.3088 273.029 26.4088C275.479 28.7888 279.439 30.8988 279.949 33.6388C280.489 36.6388 275.949 38.5388 273.779 41.0988C272.767 42.1734 271.681 43.1759 270.529 44.0988C268.229 37.7688 269.829 31.9588 272.699 26.3088Z" fill="#ECECE9"/>
<path d="M275.54 57.4567C284.085 57.8115 289.919 53.441 294.29 46.6502C297.047 42.3246 296.829 41.6401 292.609 38.58C287.423 34.8185 281.887 31.773 275.616 30.2145C273.382 32.7268 272.362 35.837 271.458 38.9366C269.36 45.8617 270.048 52.2025 275.54 57.4567Z" fill="#CA7E4C"/>
<path d="M300.113 31.9535C300.35 29.8256 299.216 28.2903 297.863 26.8696C294.727 23.5561 290.695 21.6784 286.544 20.0831C284.315 19.2234 277.879 21.876 276.484 23.9057C275.399 25.4972 276.234 26.3948 277.629 26.6357C280.425 27.1125 282.913 28.4095 285.53 29.3042C285.81 29.3756 286.084 29.4683 286.349 29.5814C287.84 30.3653 288.299 27.53 289.454 28.5117C290.228 29.1628 288.881 30.8373 290.138 31.8603C290.807 32.5521 291.654 33.0466 292.585 33.2898C293.37 33.4157 293.931 33.4618 294.204 34.5009C294.75 36.579 296.119 36.973 297.904 35.7233C298.343 34.3016 296.826 31.733 300.113 31.9535ZM294.973 29.3926C294.621 28.4309 293.632 26.9686 294.859 26.4788C296.085 25.989 296.983 27.6721 297.841 28.6159C298.367 29.195 298.766 30.0311 297.87 30.5646C296.585 31.3655 295.833 30.3668 294.998 29.427L294.973 29.3926Z" fill="#9C664C"/>
<path d="M275.54 57.4567C270.048 52.2025 269.36 45.8618 271.438 38.9513C272.341 35.8517 273.382 32.7268 275.595 30.2292C267.44 28.5291 268.162 27.476 265.239 36.1697C262.535 44.21 265.823 50.8673 270.463 57.1106C271.926 59.0341 273.828 57.6286 275.54 57.4567Z" fill="#9C664C"/>
<path d="M290.663 19.5353C291.56 18.6258 292.201 17.4957 292.522 16.2591C292.843 15.0224 292.832 13.723 292.491 12.492C292.462 12.173 292.359 11.8651 292.19 11.5932C292.021 11.3213 291.79 11.093 291.516 10.9267C291.242 10.7604 290.933 10.6608 290.614 10.6358C290.295 10.6109 289.974 10.6613 289.678 10.7831C288.202 11.3157 288.792 12.4505 289.351 13.4105C290.352 15.1232 290.176 17.1039 290.663 19.5353Z" fill="#9C664C"/>
<path d="M300.113 31.9535C296.845 31.7301 298.319 34.2672 297.919 35.744C299.183 36.5442 300.073 35.8585 300.999 35.0335L301.023 34.9648C300.535 34.0167 301.117 32.7523 300.113 31.9535Z" fill="#C35F46"/>
<path d="M300.89 37.8792C300.307 38.2436 299.823 38.7446 299.478 39.3386C299.133 39.9327 298.939 40.6019 298.911 41.2882C300.184 40.019 300.98 39.2144 301.007 37.899L300.89 37.8792Z" fill="#9C664C"/>
<path d="M300.975 34.9991L301.127 35.2124L301.279 35.4257L301.401 35.4524C301.567 35.0443 301.495 34.8263 301.019 34.9158L300.975 34.9991Z" fill="#9C664C"/>
<path d="M301.303 35.4601L301.166 36.2727L301.296 36.2945L301.426 35.4868L301.303 35.4601Z" fill="#9C664C"/>
<path d="M301.166 36.2726L301.018 37.0833L301.171 37.1091L301.296 36.2945L301.166 36.2726Z" fill="#9C664C"/>
<path d="M301.008 37.899L301.171 37.1091L301.018 37.0833L300.89 37.8792L301.008 37.899Z" fill="#9C664C"/>
<path d="M294.998 29.427C295.818 30.3462 296.605 31.393 297.902 30.5942C298.802 30.0675 298.389 29.2108 297.873 28.6455C297.014 27.7016 296.117 26.0186 294.89 26.5083C293.663 26.9981 294.645 28.4654 294.998 29.427Z" fill="#CA7E4C"/>
<path d="M272.479 26.2988C270.37 24.305 266.979 21.2988 266.979 21.2988L272.637 16.2988L274.979 19.2988C274.979 19.2988 280.179 25.6988 282.979 28.7988C284.109 30.0588 284.737 29.6364 285.627 28.6864C287.887 26.2964 290.197 23.9464 292.487 21.5764C293.337 20.8364 294.197 20.1064 295.027 19.3364C296.107 18.3364 296.979 17.2989 296.979 17.2989L301.479 22.2989C301.479 22.2989 291.467 30.8164 288.337 33.2864C287.707 33.7864 287.997 34.2864 288.467 34.6564C290.957 36.7264 295.979 41.2988 295.979 41.2988L301.479 47.2989L297.479 50.7989L291.979 45.7989C291.979 45.7989 287.897 41.5864 286.097 39.2964C284.867 37.7364 283.827 37.5064 282.327 39.1464C279.257 42.4864 276.007 45.6464 272.827 48.8764C270.827 51.0364 269.957 48.7264 268.767 47.8064C267.067 46.4964 268.527 45.8064 269.327 44.8864C269.627 44.5564 269.867 44.1664 270.137 43.8064C271.289 42.8835 272.375 41.881 273.387 40.8064C275.537 38.2464 280.135 35.394 279.557 33.3464C278.979 31.2988 275.314 28.9782 272.479 26.2988Z" fill="#424342"/>
<defs>
<linearGradient id="paint0_linear_36_766" x1="163.224" y1="48.1702" x2="163.594" y2="266.5" gradientUnits="userSpaceOnUse">
<stop offset="0.00961538" stop-color="#D3FFF6"/>
<stop offset="0.386101" stop-color="#AFC7C2"/>
<stop offset="1" stop-color="#29A185"/>
</linearGradient>
<linearGradient id="paint1_linear_36_766" x1="121.276" y1="48" x2="121.276" y2="189.23" gradientUnits="userSpaceOnUse">
<stop stop-color="#E1973C"/>
<stop offset="1" stop-color="#D34E44"/>
</linearGradient>
<linearGradient id="paint2_linear_36_766" x1="150.187" y1="156.87" x2="150.187" y2="257.84" gradientUnits="userSpaceOnUse">
<stop stop-color="#D34E44"/>
<stop offset="1" stop-color="#E1973C"/>
</linearGradient>
<linearGradient id="paint3_linear_36_766" x1="235.625" y1="133.38" x2="235.625" y2="187.7" gradientUnits="userSpaceOnUse">
<stop stop-color="#D34E44"/>
<stop offset="1" stop-color="#E1973C"/>
</linearGradient>
<linearGradient id="paint4_linear_36_766" x1="100.263" y1="248.84" x2="100.263" y2="259.568" gradientUnits="userSpaceOnUse">
<stop stop-color="#D34E44"/>
<stop offset="1" stop-color="#E1973C"/>
</linearGradient>
<linearGradient id="paint5_linear_36_766" x1="69.2918" y1="189.14" x2="69.2918" y2="248.24" gradientUnits="userSpaceOnUse">
<stop stop-color="#D34E44"/>
<stop offset="1" stop-color="#E1973C"/>
</linearGradient>
<linearGradient id="paint6_linear_36_766" x1="32.2825" y1="175.25" x2="32.2825" y2="178.53" gradientUnits="userSpaceOnUse">
<stop stop-color="#D34E44"/>
<stop offset="1" stop-color="#E1973C"/>
</linearGradient>
<linearGradient id="paint7_linear_36_766" x1="233.852" y1="183.757" x2="233.852" y2="187.2" gradientUnits="userSpaceOnUse">
<stop stop-color="#D34E44"/>
<stop offset="1" stop-color="#E1973C"/>
</linearGradient>
<linearGradient id="paint8_linear_36_766" x1="28.7361" y1="171.05" x2="28.7361" y2="173.186" gradientUnits="userSpaceOnUse">
<stop stop-color="#D34E44"/>
<stop offset="1" stop-color="#E1973C"/>
</linearGradient>
<linearGradient id="paint9_linear_36_766" x1="230.042" y1="187.842" x2="230.042" y2="189.24" gradientUnits="userSpaceOnUse">
<stop stop-color="#D34E44"/>
<stop offset="1" stop-color="#E1973C"/>
</linearGradient>
<linearGradient id="paint10_linear_36_766" x1="216.806" y1="197.43" x2="216.806" y2="198.58" gradientUnits="userSpaceOnUse">
<stop stop-color="#D34E44"/>
<stop offset="1" stop-color="#E1973C"/>
</linearGradient>
<linearGradient id="paint11_linear_36_766" x1="25.6676" y1="175.487" x2="25.6676" y2="176.314" gradientUnits="userSpaceOnUse">
<stop stop-color="#D34E44"/>
<stop offset="1" stop-color="#E1973C"/>
</linearGradient>
<linearGradient id="paint12_linear_36_766" x1="228.318" y1="189.245" x2="228.318" y2="189.958" gradientUnits="userSpaceOnUse">
<stop stop-color="#D34E44"/>
<stop offset="1" stop-color="#E1973C"/>
</linearGradient>
<linearGradient id="paint13_linear_36_766" x1="24.0424" y1="174.802" x2="24.0424" y2="175.5" gradientUnits="userSpaceOnUse">
<stop stop-color="#D34E44"/>
<stop offset="1" stop-color="#E1973C"/>
</linearGradient>
<linearGradient id="paint14_linear_36_766" x1="27.4625" y1="176.357" x2="27.4625" y2="176.92" gradientUnits="userSpaceOnUse">
<stop stop-color="#D34E44"/>
<stop offset="1" stop-color="#E1973C"/>
</linearGradient>
<linearGradient id="paint15_linear_36_766" x1="221.165" y1="202.8" x2="221.165" y2="203.99" gradientUnits="userSpaceOnUse">
<stop stop-color="#D34E44"/>
<stop offset="1" stop-color="#E1973C"/>
</linearGradient>
<linearGradient id="paint16_linear_36_766" x1="219.729" y1="200.77" x2="219.729" y2="201.98" gradientUnits="userSpaceOnUse">
<stop stop-color="#D34E44"/>
<stop offset="1" stop-color="#E1973C"/>
</linearGradient>
<linearGradient id="paint17_linear_36_766" x1="224.107" y1="191.889" x2="224.107" y2="192.621" gradientUnits="userSpaceOnUse">
<stop stop-color="#D34E44"/>
<stop offset="1" stop-color="#E1973C"/>
</linearGradient>
<linearGradient id="paint18_linear_36_766" x1="222.772" y1="192.625" x2="222.772" y2="193.47" gradientUnits="userSpaceOnUse">
<stop stop-color="#D34E44"/>
<stop offset="1" stop-color="#E1973C"/>
</linearGradient>
<linearGradient id="paint19_linear_36_766" x1="226.257" y1="190.579" x2="226.257" y2="191.287" gradientUnits="userSpaceOnUse">
<stop stop-color="#D34E44"/>
<stop offset="1" stop-color="#E1973C"/>
</linearGradient>
<linearGradient id="paint20_linear_36_766" x1="217.657" y1="198.66" x2="217.657" y2="199.34" gradientUnits="userSpaceOnUse">
<stop stop-color="#D34E44"/>
<stop offset="1" stop-color="#E1973C"/>
</linearGradient>
<linearGradient id="paint21_linear_36_766" x1="221.328" y1="58.6796" x2="221.328" y2="89.4202" gradientUnits="userSpaceOnUse">
<stop stop-color="#D34E44"/>
<stop offset="1" stop-color="#E1973C"/>
</linearGradient>
<linearGradient id="paint22_linear_36_766" x1="125.155" y1="60.5607" x2="125.155" y2="89.2485" gradientUnits="userSpaceOnUse">
<stop stop-color="#D34E44"/>
<stop offset="1" stop-color="#E1973C"/>
</linearGradient>
<linearGradient id="paint23_linear_36_766" x1="121.721" y1="193.02" x2="121.721" y2="259.27" gradientUnits="userSpaceOnUse">
<stop stop-color="#D34E44"/>
<stop offset="1" stop-color="#E1973C"/>
</linearGradient>
<linearGradient id="paint24_linear_36_766" x1="117.723" y1="194.02" x2="117.723" y2="243.22" gradientUnits="userSpaceOnUse">
<stop stop-color="#D34E44"/>
<stop offset="1" stop-color="#E1973C"/>
</linearGradient>
<linearGradient id="paint25_linear_36_766" x1="125.923" y1="192.872" x2="125.923" y2="196.1" gradientUnits="userSpaceOnUse">
<stop stop-color="#D34E44"/>
<stop offset="1" stop-color="#E1973C"/>
</linearGradient>
<linearGradient id="paint26_linear_36_766" x1="117.031" y1="243.35" x2="117.031" y2="248.7" gradientUnits="userSpaceOnUse">
<stop stop-color="#D34E44"/>
<stop offset="1" stop-color="#E1973C"/>
</linearGradient>
<linearGradient id="paint27_linear_36_766" x1="110.182" y1="175.27" x2="110.182" y2="177.93" gradientUnits="userSpaceOnUse">
<stop stop-color="#D34E44"/>
<stop offset="1" stop-color="#E1973C"/>
</linearGradient>
<linearGradient id="paint28_linear_36_766" x1="217.167" y1="189.08" x2="217.167" y2="190.493" gradientUnits="userSpaceOnUse">
<stop stop-color="#D34E44"/>
<stop offset="1" stop-color="#E1973C"/>
</linearGradient>
<linearGradient id="paint29_linear_36_766" x1="210.252" y1="192.42" x2="210.252" y2="193.882" gradientUnits="userSpaceOnUse">
<stop stop-color="#D34E44"/>
<stop offset="1" stop-color="#E1973C"/>
</linearGradient>
<linearGradient id="paint30_linear_36_766" x1="202.352" y1="195.84" x2="202.352" y2="196.662" gradientUnits="userSpaceOnUse">
<stop stop-color="#D34E44"/>
<stop offset="1" stop-color="#E1973C"/>
</linearGradient>
<linearGradient id="paint31_linear_36_766" x1="207.887" y1="193.73" x2="207.887" y2="194.639" gradientUnits="userSpaceOnUse">
<stop stop-color="#D34E44"/>
<stop offset="1" stop-color="#E1973C"/>
</linearGradient>
<linearGradient id="paint32_linear_36_766" x1="204.432" y1="195.11" x2="204.432" y2="195.974" gradientUnits="userSpaceOnUse">
<stop stop-color="#D34E44"/>
<stop offset="1" stop-color="#E1973C"/>
</linearGradient>
<linearGradient id="paint33_linear_36_766" x1="215.112" y1="190.428" x2="215.112" y2="191.163" gradientUnits="userSpaceOnUse">
<stop stop-color="#D34E44"/>
<stop offset="1" stop-color="#E1973C"/>
</linearGradient>
<linearGradient id="paint34_linear_36_766" x1="219.247" y1="188.385" x2="219.247" y2="189.112" gradientUnits="userSpaceOnUse">
<stop stop-color="#D34E44"/>
<stop offset="1" stop-color="#E1973C"/>
</linearGradient>
<linearGradient id="paint35_linear_36_766" x1="220.617" y1="187.659" x2="220.617" y2="188.424" gradientUnits="userSpaceOnUse">
<stop stop-color="#D34E44"/>
<stop offset="1" stop-color="#E1973C"/>
</linearGradient>
<linearGradient id="paint36_linear_36_766" x1="107.731" y1="173.41" x2="107.731" y2="174.46" gradientUnits="userSpaceOnUse">
<stop stop-color="#D34E44"/>
<stop offset="1" stop-color="#E1973C"/>
</linearGradient>
<linearGradient id="paint37_linear_36_766" x1="115.022" y1="180.6" x2="115.022" y2="181.48" gradientUnits="userSpaceOnUse">
<stop stop-color="#D34E44"/>
<stop offset="1" stop-color="#E1973C"/>
</linearGradient>
<linearGradient id="paint38_linear_36_766" x1="200.712" y1="196.48" x2="200.712" y2="197.103" gradientUnits="userSpaceOnUse">
<stop stop-color="#D34E44"/>
<stop offset="1" stop-color="#E1973C"/>
</linearGradient>
<linearGradient id="paint39_linear_36_766" x1="212.337" y1="191.771" x2="212.337" y2="192.52" gradientUnits="userSpaceOnUse">
<stop stop-color="#D34E44"/>
<stop offset="1" stop-color="#E1973C"/>
</linearGradient>
<linearGradient id="paint40_linear_36_766" x1="206.137" y1="194.56" x2="206.137" y2="195.224" gradientUnits="userSpaceOnUse">
<stop stop-color="#D34E44"/>
<stop offset="1" stop-color="#E1973C"/>
</linearGradient>
<linearGradient id="paint41_linear_36_766" x1="213.733" y1="191.111" x2="213.733" y2="191.836" gradientUnits="userSpaceOnUse">
<stop stop-color="#D34E44"/>
<stop offset="1" stop-color="#E1973C"/>
</linearGradient>
<linearGradient id="paint42_linear_36_766" x1="199.617" y1="239.8" x2="199.617" y2="240.69" gradientUnits="userSpaceOnUse">
<stop stop-color="#D34E44"/>
<stop offset="1" stop-color="#E1973C"/>
</linearGradient>
</defs>
</svg>